ISO-10303-21;
HEADER;
/* Generated by software containing ST-Developer
 * from STEP Tools, Inc. (www.steptools.com) 
 */
/* OPTION: using custom renumber hook */

FILE_DESCRIPTION(
/* description */ ('STEP AP242 Edition 2',
'CAx-IF Rec.Pracs.---Representation and Presentation of Product Manufa
cturing Information (PMI)---4.0---2014-10-13',
'CAx-IF Rec.Pracs.---3D Tessellated Geometry---0.4---2014-09-14','2;1',
'CAx-IF Rec.Pracs.---User Defined Attributes---1.5---2016-08-15'),
/* implementation_level */ '2;1');

FILE_NAME(
/* name */ 'Cake - Cake Top',
/* time_stamp */ '2026-05-28T13:54:38Z',
/* author */ (''),
/* organization */ (''),
/* preprocessor_version */ 'ST-DEVELOPER v20',
/* originating_system */ 'ONSHAPE BY PTC INC, 1.215',
/* authorisation */ '  ');

FILE_SCHEMA (('AP242_MANAGED_MODEL_BASED_3D_ENGINEERING_MIM_LF { 1 0 10303 442 3 1 4 }'));
ENDSEC;

DATA;
#10=SHAPE_REPRESENTATION_RELATIONSHIP('','',#80,#11);
#11=ADVANCED_BREP_SHAPE_REPRESENTATION('',(#78),#135);
#12=CONICAL_SURFACE('',#89,0.0102,0.785398163397448);
#13=PLANE('',#85);
#14=PLANE('',#87);
#15=PLANE('',#92);
#16=ORIENTED_EDGE('',*,*,#26,.T.);
#17=ORIENTED_EDGE('',*,*,#27,.T.);
#18=ORIENTED_EDGE('',*,*,#28,.T.);
#19=ORIENTED_EDGE('',*,*,#29,.T.);
#20=ORIENTED_EDGE('',*,*,#27,.F.);
#21=ORIENTED_EDGE('',*,*,#26,.F.);
#22=ORIENTED_EDGE('',*,*,#28,.F.);
#23=ORIENTED_EDGE('',*,*,#30,.T.);
#24=ORIENTED_EDGE('',*,*,#29,.F.);
#25=ORIENTED_EDGE('',*,*,#30,.F.);
#26=EDGE_CURVE('',#31,#31,#36,.F.);
#27=EDGE_CURVE('',#32,#32,#37,.T.);
#28=EDGE_CURVE('',#33,#33,#38,.T.);
#29=EDGE_CURVE('',#34,#34,#39,.T.);
#30=EDGE_CURVE('',#35,#35,#40,.T.);
#31=VERTEX_POINT('',#120);
#32=VERTEX_POINT('',#122);
#33=VERTEX_POINT('',#125);
#34=VERTEX_POINT('',#128);
#35=VERTEX_POINT('',#132);
#36=CIRCLE('',#83,0.012);
#37=CIRCLE('',#84,0.012);
#38=CIRCLE('',#86,0.0102);
#39=CIRCLE('',#88,0.003075);
#40=CIRCLE('',#91,0.003075);
#41=EDGE_LOOP('',(#16));
#42=EDGE_LOOP('',(#17));
#43=EDGE_LOOP('',(#18));
#44=EDGE_LOOP('',(#19));
#45=EDGE_LOOP('',(#20));
#46=EDGE_LOOP('',(#21));
#47=EDGE_LOOP('',(#22));
#48=EDGE_LOOP('',(#23));
#49=EDGE_LOOP('',(#24));
#50=EDGE_LOOP('',(#25));
#51=FACE_BOUND('',#41,.T.);
#52=FACE_BOUND('',#42,.T.);
#53=FACE_BOUND('',#43,.T.);
#54=FACE_BOUND('',#44,.T.);
#55=FACE_BOUND('',#45,.T.);
#56=FACE_BOUND('',#46,.T.);
#57=FACE_BOUND('',#47,.T.);
#58=FACE_BOUND('',#48,.T.);
#59=FACE_BOUND('',#49,.T.);
#60=FACE_BOUND('',#50,.T.);
#61=CYLINDRICAL_SURFACE('',#82,0.012);
#62=CYLINDRICAL_SURFACE('',#90,0.003075);
#63=ADVANCED_FACE('',(#51,#52),#61,.T.);
#64=ADVANCED_FACE('',(#53),#13,.T.);
#65=ADVANCED_FACE('',(#54,#55),#14,.F.);
#66=ADVANCED_FACE('',(#56,#57),#12,.T.);
#67=ADVANCED_FACE('',(#58,#59),#62,.F.);
#68=ADVANCED_FACE('',(#60),#15,.F.);
#69=CLOSED_SHELL('',(#63,#64,#65,#66,#67,#68));
#70=STYLED_ITEM('',(#71),#78);
#71=PRESENTATION_STYLE_ASSIGNMENT((#72));
#72=SURFACE_STYLE_USAGE(.BOTH.,#73);
#73=SURFACE_SIDE_STYLE('',(#74));
#74=SURFACE_STYLE_FILL_AREA(#75);
#75=FILL_AREA_STYLE('',(#76));
#76=FILL_AREA_STYLE_COLOUR('',#77);
#77=COLOUR_RGB('',0.647058823529412,0.647058823529412,0.647058823529412);
#78=MANIFOLD_SOLID_BREP('Cake Top',#69);
#79=SHAPE_DEFINITION_REPRESENTATION(#140,#80);
#80=SHAPE_REPRESENTATION('Cake Top',(#81),#135);
#81=AXIS2_PLACEMENT_3D('',#117,#93,#94);
#82=AXIS2_PLACEMENT_3D('',#118,#95,#96);
#83=AXIS2_PLACEMENT_3D('',#119,#97,#98);
#84=AXIS2_PLACEMENT_3D('',#121,#99,#100);
#85=AXIS2_PLACEMENT_3D('',#123,#101,#102);
#86=AXIS2_PLACEMENT_3D('',#124,#103,#104);
#87=AXIS2_PLACEMENT_3D('',#126,#105,#106);
#88=AXIS2_PLACEMENT_3D('',#127,#107,#108);
#89=AXIS2_PLACEMENT_3D('',#129,#109,#110);
#90=AXIS2_PLACEMENT_3D('',#130,#111,#112);
#91=AXIS2_PLACEMENT_3D('',#131,#113,#114);
#92=AXIS2_PLACEMENT_3D('',#133,#115,#116);
#93=DIRECTION('',(0.,0.,1.));
#94=DIRECTION('',(1.,0.,0.));
#95=DIRECTION('',(0.,-1.,0.));
#96=DIRECTION('',(-1.,0.,0.));
#97=DIRECTION('',(0.,1.,0.));
#98=DIRECTION('',(1.,0.,0.));
#99=DIRECTION('',(0.,1.,0.));
#100=DIRECTION('',(1.,0.,0.));
#101=DIRECTION('',(0.,1.,0.));
#102=DIRECTION('',(1.,0.,0.));
#103=DIRECTION('',(0.,1.,0.));
#104=DIRECTION('',(1.,0.,0.));
#105=DIRECTION('',(0.,1.,0.));
#106=DIRECTION('',(1.,0.,0.));
#107=DIRECTION('',(0.,1.,0.));
#108=DIRECTION('',(1.,0.,0.));
#109=DIRECTION('',(0.,-1.,0.));
#110=DIRECTION('',(-1.,0.,0.));
#111=DIRECTION('',(0.,1.,0.));
#112=DIRECTION('',(1.,0.,0.));
#113=DIRECTION('',(0.,1.,0.));
#114=DIRECTION('',(1.,0.,0.));
#115=DIRECTION('',(0.,1.,0.));
#116=DIRECTION('',(1.,0.,0.));
#117=CARTESIAN_POINT('',(0.,0.,0.));
#118=CARTESIAN_POINT('',(0.,0.036,-7.34788079488412E-19));
#119=CARTESIAN_POINT('',(0.,0.0342,-7.34788079488412E-19));
#120=CARTESIAN_POINT('',(0.012,0.0342,-7.34788079488412E-19));
#121=CARTESIAN_POINT('',(0.,0.024,-7.34788079488412E-19));
#122=CARTESIAN_POINT('',(0.012,0.024,-7.34788079488412E-19));
#123=CARTESIAN_POINT('',(0.,0.036,-1.7347234759768E-18));
#124=CARTESIAN_POINT('',(0.,0.036,-7.34788079488412E-19));
#125=CARTESIAN_POINT('',(0.0102,0.036,-7.34788079488412E-19));
#126=CARTESIAN_POINT('',(0.,0.024,-1.7347234759768E-18));
#127=CARTESIAN_POINT('',(0.,0.024,-1.08228160874647E-18));
#128=CARTESIAN_POINT('',(0.003075,0.024,-1.08228160874647E-18));
#129=CARTESIAN_POINT('',(0.,0.036,-7.34788079488412E-19));
#130=CARTESIAN_POINT('',(0.,0.0218,-1.08228160874647E-18));
#131=CARTESIAN_POINT('',(0.,0.0262,-1.08228160874647E-18));
#132=CARTESIAN_POINT('',(0.003075,0.0262,-1.08228160874647E-18));
#133=CARTESIAN_POINT('',(0.,0.0262,-1.7347234759768E-18));
#134=MECHANICAL_DESIGN_GEOMETRIC_PRESENTATION_REPRESENTATION('',(#70),#135);
#135=(
GEOMETRIC_REPRESENTATION_CONTEXT(3)
GLOBAL_UNCERTAINTY_ASSIGNED_CONTEXT((#136))
GLOBAL_UNIT_ASSIGNED_CONTEXT((#139,#138,#137))
REPRESENTATION_CONTEXT('Cake Top','TOP_LEVEL_ASSEMBLY_PART')
);
#136=UNCERTAINTY_MEASURE_WITH_UNIT(LENGTH_MEASURE(1.E-8),#139,
'DISTANCE_ACCURACY_VALUE','Maximum Tolerance applied to model');
#137=(
NAMED_UNIT(*)
SI_UNIT($,.STERADIAN.)
SOLID_ANGLE_UNIT()
);
#138=(
NAMED_UNIT(*)
PLANE_ANGLE_UNIT()
SI_UNIT($,.RADIAN.)
);
#139=(
LENGTH_UNIT()
NAMED_UNIT(*)
SI_UNIT($,.METRE.)
);
#140=PRODUCT_DEFINITION_SHAPE('','',#141);
#141=PRODUCT_DEFINITION('','',#143,#142);
#142=PRODUCT_DEFINITION_CONTEXT('',#149,'design');
#143=PRODUCT_DEFINITION_FORMATION_WITH_SPECIFIED_SOURCE('','',#145,
 .NOT_KNOWN.);
#144=PRODUCT_RELATED_PRODUCT_CATEGORY('','',(#145));
#145=PRODUCT('Cake Top','Cake Top','Cake Top',(#147));
#146=PRODUCT_CATEGORY('','');
#147=PRODUCT_CONTEXT('',#149,'mechanical');
#148=APPLICATION_PROTOCOL_DEFINITION('international standard',
'ap242_managed_model_based_3d_engineering',2020,#149);
#149=APPLICATION_CONTEXT('managed model based 3d engineering');
ENDSEC;
END-ISO-10303-21;
