ISO-10303-21;
HEADER;
/* Generated by software containing ST-Developer
 * from STEP Tools, Inc. (www.steptools.com) 
 */
/* OPTION: using custom renumber hook */

FILE_DESCRIPTION(
/* description */ ('STEP AP242 Edition 2',
'CAx-IF Rec.Pracs.---Representation and Presentation of Product Manufa
cturing Information (PMI)---4.0---2014-10-13',
'CAx-IF Rec.Pracs.---3D Tessellated Geometry---0.4---2014-09-14','2;1',
'CAx-IF Rec.Pracs.---User Defined Attributes---1.5---2016-08-15'),
/* implementation_level */ '2;1');

FILE_NAME(
/* name */ 'Cell Funnel - cellFunnel',
/* time_stamp */ '2026-05-28T13:55:19Z',
/* author */ (''),
/* organization */ (''),
/* preprocessor_version */ 'ST-DEVELOPER v20',
/* originating_system */ 'ONSHAPE BY PTC INC, 1.215',
/* authorisation */ '  ');

FILE_SCHEMA (('AP242_MANAGED_MODEL_BASED_3D_ENGINEERING_MIM_LF { 1 0 10303 442 3 1 4 }'));
ENDSEC;

DATA;
#10=SHAPE_REPRESENTATION_RELATIONSHIP('','',#669,#11);
#11=ADVANCED_BREP_SHAPE_REPRESENTATION('',(#667),#1131);
#12=CONICAL_SURFACE('',#699,0.0158,0.144441578374644);
#13=CONICAL_SURFACE('',#701,0.0225,0.412410441597388);
#14=CONICAL_SURFACE('',#711,0.0026,0.785398163397448);
#15=CONICAL_SURFACE('',#712,0.0026,0.785398163397448);
#16=CONICAL_SURFACE('',#715,0.0026,0.785398163397448);
#17=CONICAL_SURFACE('',#716,0.0026,0.785398163397448);
#18=CYLINDRICAL_SURFACE('',#697,0.0158);
#19=CYLINDRICAL_SURFACE('',#702,0.004);
#20=CYLINDRICAL_SURFACE('',#704,0.004);
#21=CYLINDRICAL_SURFACE('',#706,0.004);
#22=CYLINDRICAL_SURFACE('',#708,0.004);
#23=CYLINDRICAL_SURFACE('',#732,0.0012);
#24=CYLINDRICAL_SURFACE('',#733,0.0012);
#25=CYLINDRICAL_SURFACE('',#734,0.0012);
#26=CYLINDRICAL_SURFACE('',#735,0.0012);
#27=CYLINDRICAL_SURFACE('',#736,0.0012);
#28=CYLINDRICAL_SURFACE('',#737,0.0012);
#29=CYLINDRICAL_SURFACE('',#738,0.0012);
#30=CYLINDRICAL_SURFACE('',#739,0.0012);
#31=ELLIPSE('',#673,0.0012369316876853,0.0012);
#32=ELLIPSE('',#674,0.0012369316876853,0.0012);
#33=ELLIPSE('',#675,0.0012369316876853,0.0012);
#34=ELLIPSE('',#676,0.0012369316876853,0.0012);
#35=ELLIPSE('',#678,0.0012369316876853,0.0012);
#36=ELLIPSE('',#681,0.0012369316876853,0.0012);
#37=ELLIPSE('',#693,0.0012369316876853,0.0012);
#38=ELLIPSE('',#694,0.0012369316876853,0.0012);
#39=ELLIPSE('',#719,0.0012369316876853,0.0012);
#40=ELLIPSE('',#720,0.0012369316876853,0.0012);
#41=ELLIPSE('',#721,0.0012369316876853,0.0012);
#42=ELLIPSE('',#722,0.0012369316876853,0.0012);
#43=ELLIPSE('',#726,0.0012369316876853,0.0012);
#44=ELLIPSE('',#727,0.0012369316876853,0.0012);
#45=ELLIPSE('',#728,0.0012369316876853,0.0012);
#46=ELLIPSE('',#729,0.0012369316876853,0.0012);
#47=LINE('',#944,#107);
#48=LINE('',#949,#108);
#49=LINE('',#953,#109);
#50=LINE('',#957,#110);
#51=LINE('',#961,#111);
#52=LINE('',#966,#112);
#53=LINE('',#970,#113);
#54=LINE('',#974,#114);
#55=LINE('',#978,#115);
#56=LINE('',#981,#116);
#57=LINE('',#982,#117);
#58=LINE('',#984,#118);
#59=LINE('',#986,#119);
#60=LINE('',#988,#120);
#61=LINE('',#990,#121);
#62=LINE('',#992,#122);
#63=LINE('',#994,#123);
#64=LINE('',#995,#124);
#65=LINE('',#997,#125);
#66=LINE('',#999,#126);
#67=LINE('',#1001,#127);
#68=LINE('',#1003,#128);
#69=LINE('',#1005,#129);
#70=LINE('',#1007,#130);
#71=LINE('',#1008,#131);
#72=LINE('',#1010,#132);
#73=LINE('',#1012,#133);
#74=LINE('',#1014,#134);
#75=LINE('',#1016,#135);
#76=LINE('',#1018,#136);
#77=LINE('',#1020,#137);
#78=LINE('',#1022,#138);
#79=LINE('',#1025,#139);
#80=LINE('',#1027,#140);
#81=LINE('',#1029,#141);
#82=LINE('',#1034,#142);
#83=LINE('',#1038,#143);
#84=LINE('',#1042,#144);
#85=LINE('',#1046,#145);
#86=LINE('',#1052,#146);
#87=LINE('',#1073,#147);
#88=LINE('',#1074,#148);
#89=LINE('',#1076,#149);
#90=LINE('',#1078,#150);
#91=LINE('',#1080,#151);
#92=LINE('',#1082,#152);
#93=LINE('',#1084,#153);
#94=LINE('',#1086,#154);
#95=LINE('',#1091,#155);
#96=LINE('',#1096,#156);
#97=LINE('',#1100,#157);
#98=LINE('',#1101,#158);
#99=LINE('',#1103,#159);
#100=LINE('',#1104,#160);
#101=LINE('',#1108,#161);
#102=LINE('',#1113,#162);
#103=LINE('',#1117,#163);
#104=LINE('',#1118,#164);
#105=LINE('',#1120,#165);
#106=LINE('',#1121,#166);
#107=VECTOR('',#746,1.);
#108=VECTOR('',#749,1.);
#109=VECTOR('',#752,1.);
#110=VECTOR('',#755,1.);
#111=VECTOR('',#760,1.);
#112=VECTOR('',#763,1.);
#113=VECTOR('',#766,1.);
#114=VECTOR('',#769,1.);
#115=VECTOR('',#774,1.);
#116=VECTOR('',#775,1.);
#117=VECTOR('',#776,1.);
#118=VECTOR('',#777,1.);
#119=VECTOR('',#778,1.);
#120=VECTOR('',#779,1.);
#121=VECTOR('',#780,1.);
#122=VECTOR('',#781,1.);
#123=VECTOR('',#782,1.);
#124=VECTOR('',#783,1.);
#125=VECTOR('',#786,1.);
#126=VECTOR('',#787,1.);
#127=VECTOR('',#788,1.);
#128=VECTOR('',#791,1.);
#129=VECTOR('',#792,1.);
#130=VECTOR('',#793,1.);
#131=VECTOR('',#794,1.);
#132=VECTOR('',#795,1.);
#133=VECTOR('',#796,1.);
#134=VECTOR('',#797,1.);
#135=VECTOR('',#798,1.);
#136=VECTOR('',#799,1.);
#137=VECTOR('',#800,1.);
#138=VECTOR('',#803,1.);
#139=VECTOR('',#804,1.);
#140=VECTOR('',#805,1.);
#141=VECTOR('',#806,1.);
#142=VECTOR('',#811,1.);
#143=VECTOR('',#814,1.);
#144=VECTOR('',#817,1.);
#145=VECTOR('',#820,1.);
#146=VECTOR('',#827,1.);
#147=VECTOR('',#862,1.);
#148=VECTOR('',#863,1.);
#149=VECTOR('',#866,1.);
#150=VECTOR('',#869,1.);
#151=VECTOR('',#872,1.);
#152=VECTOR('',#875,1.);
#153=VECTOR('',#878,1.);
#154=VECTOR('',#881,1.);
#155=VECTOR('',#888,1.);
#156=VECTOR('',#893,1.);
#157=VECTOR('',#898,1.);
#158=VECTOR('',#899,1.);
#159=VECTOR('',#902,1.);
#160=VECTOR('',#903,1.);
#161=VECTOR('',#908,1.);
#162=VECTOR('',#913,1.);
#163=VECTOR('',#918,1.);
#164=VECTOR('',#919,1.);
#165=VECTOR('',#922,1.);
#166=VECTOR('',#923,1.);
#167=ORIENTED_EDGE('',*,*,#351,.F.);
#168=ORIENTED_EDGE('',*,*,#352,.F.);
#169=ORIENTED_EDGE('',*,*,#353,.T.);
#170=ORIENTED_EDGE('',*,*,#354,.T.);
#171=ORIENTED_EDGE('',*,*,#355,.T.);
#172=ORIENTED_EDGE('',*,*,#356,.T.);
#173=ORIENTED_EDGE('',*,*,#357,.T.);
#174=ORIENTED_EDGE('',*,*,#358,.F.);
#175=ORIENTED_EDGE('',*,*,#359,.T.);
#176=ORIENTED_EDGE('',*,*,#360,.F.);
#177=ORIENTED_EDGE('',*,*,#361,.T.);
#178=ORIENTED_EDGE('',*,*,#362,.F.);
#179=ORIENTED_EDGE('',*,*,#363,.T.);
#180=ORIENTED_EDGE('',*,*,#364,.F.);
#181=ORIENTED_EDGE('',*,*,#365,.T.);
#182=ORIENTED_EDGE('',*,*,#366,.T.);
#183=ORIENTED_EDGE('',*,*,#367,.T.);
#184=ORIENTED_EDGE('',*,*,#368,.T.);
#185=ORIENTED_EDGE('',*,*,#369,.T.);
#186=ORIENTED_EDGE('',*,*,#366,.F.);
#187=ORIENTED_EDGE('',*,*,#370,.T.);
#188=ORIENTED_EDGE('',*,*,#371,.T.);
#189=ORIENTED_EDGE('',*,*,#372,.T.);
#190=ORIENTED_EDGE('',*,*,#373,.F.);
#191=ORIENTED_EDGE('',*,*,#374,.T.);
#192=ORIENTED_EDGE('',*,*,#375,.T.);
#193=ORIENTED_EDGE('',*,*,#376,.T.);
#194=ORIENTED_EDGE('',*,*,#356,.F.);
#195=ORIENTED_EDGE('',*,*,#377,.T.);
#196=ORIENTED_EDGE('',*,*,#378,.T.);
#197=ORIENTED_EDGE('',*,*,#379,.T.);
#198=ORIENTED_EDGE('',*,*,#380,.T.);
#199=ORIENTED_EDGE('',*,*,#364,.T.);
#200=ORIENTED_EDGE('',*,*,#362,.T.);
#201=ORIENTED_EDGE('',*,*,#381,.T.);
#202=ORIENTED_EDGE('',*,*,#382,.T.);
#203=ORIENTED_EDGE('',*,*,#383,.T.);
#204=ORIENTED_EDGE('',*,*,#352,.T.);
#205=ORIENTED_EDGE('',*,*,#384,.T.);
#206=ORIENTED_EDGE('',*,*,#385,.T.);
#207=ORIENTED_EDGE('',*,*,#386,.T.);
#208=ORIENTED_EDGE('',*,*,#387,.T.);
#209=ORIENTED_EDGE('',*,*,#388,.T.);
#210=ORIENTED_EDGE('',*,*,#389,.T.);
#211=ORIENTED_EDGE('',*,*,#390,.T.);
#212=ORIENTED_EDGE('',*,*,#391,.T.);
#213=ORIENTED_EDGE('',*,*,#392,.T.);
#214=ORIENTED_EDGE('',*,*,#393,.T.);
#215=ORIENTED_EDGE('',*,*,#394,.F.);
#216=ORIENTED_EDGE('',*,*,#395,.T.);
#217=ORIENTED_EDGE('',*,*,#396,.T.);
#218=ORIENTED_EDGE('',*,*,#397,.T.);
#219=ORIENTED_EDGE('',*,*,#398,.T.);
#220=ORIENTED_EDGE('',*,*,#399,.T.);
#221=ORIENTED_EDGE('',*,*,#400,.T.);
#222=ORIENTED_EDGE('',*,*,#401,.T.);
#223=ORIENTED_EDGE('',*,*,#402,.T.);
#224=ORIENTED_EDGE('',*,*,#403,.T.);
#225=ORIENTED_EDGE('',*,*,#387,.F.);
#226=ORIENTED_EDGE('',*,*,#404,.T.);
#227=ORIENTED_EDGE('',*,*,#405,.T.);
#228=ORIENTED_EDGE('',*,*,#406,.T.);
#229=ORIENTED_EDGE('',*,*,#373,.T.);
#230=ORIENTED_EDGE('',*,*,#407,.T.);
#231=ORIENTED_EDGE('',*,*,#394,.T.);
#232=ORIENTED_EDGE('',*,*,#408,.T.);
#233=ORIENTED_EDGE('',*,*,#409,.F.);
#234=ORIENTED_EDGE('',*,*,#351,.T.);
#235=ORIENTED_EDGE('',*,*,#410,.F.);
#236=ORIENTED_EDGE('',*,*,#409,.T.);
#237=ORIENTED_EDGE('',*,*,#410,.T.);
#238=ORIENTED_EDGE('',*,*,#403,.F.);
#239=ORIENTED_EDGE('',*,*,#393,.F.);
#240=ORIENTED_EDGE('',*,*,#411,.T.);
#241=ORIENTED_EDGE('',*,*,#388,.F.);
#242=ORIENTED_EDGE('',*,*,#408,.F.);
#243=ORIENTED_EDGE('',*,*,#372,.F.);
#244=ORIENTED_EDGE('',*,*,#412,.T.);
#245=ORIENTED_EDGE('',*,*,#391,.F.);
#246=ORIENTED_EDGE('',*,*,#407,.F.);
#247=ORIENTED_EDGE('',*,*,#380,.F.);
#248=ORIENTED_EDGE('',*,*,#413,.T.);
#249=ORIENTED_EDGE('',*,*,#370,.F.);
#250=ORIENTED_EDGE('',*,*,#365,.F.);
#251=ORIENTED_EDGE('',*,*,#390,.F.);
#252=ORIENTED_EDGE('',*,*,#414,.T.);
#253=ORIENTED_EDGE('',*,*,#378,.F.);
#254=ORIENTED_EDGE('',*,*,#363,.F.);
#255=ORIENTED_EDGE('',*,*,#415,.F.);
#256=ORIENTED_EDGE('',*,*,#400,.F.);
#257=ORIENTED_EDGE('',*,*,#416,.F.);
#258=ORIENTED_EDGE('',*,*,#379,.F.);
#259=ORIENTED_EDGE('',*,*,#416,.T.);
#260=ORIENTED_EDGE('',*,*,#399,.F.);
#261=ORIENTED_EDGE('',*,*,#417,.F.);
#262=ORIENTED_EDGE('',*,*,#413,.F.);
#263=ORIENTED_EDGE('',*,*,#415,.T.);
#264=ORIENTED_EDGE('',*,*,#414,.F.);
#265=ORIENTED_EDGE('',*,*,#418,.F.);
#266=ORIENTED_EDGE('',*,*,#401,.F.);
#267=ORIENTED_EDGE('',*,*,#417,.T.);
#268=ORIENTED_EDGE('',*,*,#398,.F.);
#269=ORIENTED_EDGE('',*,*,#419,.F.);
#270=ORIENTED_EDGE('',*,*,#371,.F.);
#271=ORIENTED_EDGE('',*,*,#418,.T.);
#272=ORIENTED_EDGE('',*,*,#389,.F.);
#273=ORIENTED_EDGE('',*,*,#420,.F.);
#274=ORIENTED_EDGE('',*,*,#402,.F.);
#275=ORIENTED_EDGE('',*,*,#419,.T.);
#276=ORIENTED_EDGE('',*,*,#397,.F.);
#277=ORIENTED_EDGE('',*,*,#421,.F.);
#278=ORIENTED_EDGE('',*,*,#412,.F.);
#279=ORIENTED_EDGE('',*,*,#420,.T.);
#280=ORIENTED_EDGE('',*,*,#411,.F.);
#281=ORIENTED_EDGE('',*,*,#422,.F.);
#282=ORIENTED_EDGE('',*,*,#395,.F.);
#283=ORIENTED_EDGE('',*,*,#421,.T.);
#284=ORIENTED_EDGE('',*,*,#396,.F.);
#285=ORIENTED_EDGE('',*,*,#422,.T.);
#286=ORIENTED_EDGE('',*,*,#392,.F.);
#287=ORIENTED_EDGE('',*,*,#382,.F.);
#288=ORIENTED_EDGE('',*,*,#423,.T.);
#289=ORIENTED_EDGE('',*,*,#424,.T.);
#290=ORIENTED_EDGE('',*,*,#425,.T.);
#291=ORIENTED_EDGE('',*,*,#368,.F.);
#292=ORIENTED_EDGE('',*,*,#426,.T.);
#293=ORIENTED_EDGE('',*,*,#427,.F.);
#294=ORIENTED_EDGE('',*,*,#428,.T.);
#295=ORIENTED_EDGE('',*,*,#424,.F.);
#296=ORIENTED_EDGE('',*,*,#429,.T.);
#297=ORIENTED_EDGE('',*,*,#360,.T.);
#298=ORIENTED_EDGE('',*,*,#430,.T.);
#299=ORIENTED_EDGE('',*,*,#354,.F.);
#300=ORIENTED_EDGE('',*,*,#431,.T.);
#301=ORIENTED_EDGE('',*,*,#427,.T.);
#302=ORIENTED_EDGE('',*,*,#432,.T.);
#303=ORIENTED_EDGE('',*,*,#385,.F.);
#304=ORIENTED_EDGE('',*,*,#433,.T.);
#305=ORIENTED_EDGE('',*,*,#434,.T.);
#306=ORIENTED_EDGE('',*,*,#435,.T.);
#307=ORIENTED_EDGE('',*,*,#375,.F.);
#308=ORIENTED_EDGE('',*,*,#436,.T.);
#309=ORIENTED_EDGE('',*,*,#437,.F.);
#310=ORIENTED_EDGE('',*,*,#438,.T.);
#311=ORIENTED_EDGE('',*,*,#434,.F.);
#312=ORIENTED_EDGE('',*,*,#439,.T.);
#313=ORIENTED_EDGE('',*,*,#358,.T.);
#314=ORIENTED_EDGE('',*,*,#440,.T.);
#315=ORIENTED_EDGE('',*,*,#405,.F.);
#316=ORIENTED_EDGE('',*,*,#441,.T.);
#317=ORIENTED_EDGE('',*,*,#437,.T.);
#318=ORIENTED_EDGE('',*,*,#442,.T.);
#319=ORIENTED_EDGE('',*,*,#361,.F.);
#320=ORIENTED_EDGE('',*,*,#429,.F.);
#321=ORIENTED_EDGE('',*,*,#423,.F.);
#322=ORIENTED_EDGE('',*,*,#381,.F.);
#323=ORIENTED_EDGE('',*,*,#428,.F.);
#324=ORIENTED_EDGE('',*,*,#431,.F.);
#325=ORIENTED_EDGE('',*,*,#353,.F.);
#326=ORIENTED_EDGE('',*,*,#383,.F.);
#327=ORIENTED_EDGE('',*,*,#359,.F.);
#328=ORIENTED_EDGE('',*,*,#439,.F.);
#329=ORIENTED_EDGE('',*,*,#433,.F.);
#330=ORIENTED_EDGE('',*,*,#384,.F.);
#331=ORIENTED_EDGE('',*,*,#438,.F.);
#332=ORIENTED_EDGE('',*,*,#441,.F.);
#333=ORIENTED_EDGE('',*,*,#404,.F.);
#334=ORIENTED_EDGE('',*,*,#386,.F.);
#335=ORIENTED_EDGE('',*,*,#425,.F.);
#336=ORIENTED_EDGE('',*,*,#430,.F.);
#337=ORIENTED_EDGE('',*,*,#367,.F.);
#338=ORIENTED_EDGE('',*,*,#369,.F.);
#339=ORIENTED_EDGE('',*,*,#355,.F.);
#340=ORIENTED_EDGE('',*,*,#432,.F.);
#341=ORIENTED_EDGE('',*,*,#426,.F.);
#342=ORIENTED_EDGE('',*,*,#377,.F.);
#343=ORIENTED_EDGE('',*,*,#435,.F.);
#344=ORIENTED_EDGE('',*,*,#440,.F.);
#345=ORIENTED_EDGE('',*,*,#357,.F.);
#346=ORIENTED_EDGE('',*,*,#376,.F.);
#347=ORIENTED_EDGE('',*,*,#406,.F.);
#348=ORIENTED_EDGE('',*,*,#442,.F.);
#349=ORIENTED_EDGE('',*,*,#436,.F.);
#350=ORIENTED_EDGE('',*,*,#374,.F.);
#351=EDGE_CURVE('',#443,#443,#503,.T.);
#352=EDGE_CURVE('',#444,#445,#47,.T.);
#353=EDGE_CURVE('',#444,#446,#31,.F.);
#354=EDGE_CURVE('',#446,#447,#48,.T.);
#355=EDGE_CURVE('',#447,#448,#32,.F.);
#356=EDGE_CURVE('',#448,#449,#49,.T.);
#357=EDGE_CURVE('',#449,#450,#33,.F.);
#358=EDGE_CURVE('',#451,#450,#50,.T.);
#359=EDGE_CURVE('',#451,#445,#34,.F.);
#360=EDGE_CURVE('',#452,#453,#51,.T.);
#361=EDGE_CURVE('',#452,#454,#35,.F.);
#362=EDGE_CURVE('',#455,#454,#52,.T.);
#363=EDGE_CURVE('',#455,#456,#504,.F.);
#364=EDGE_CURVE('',#457,#456,#53,.T.);
#365=EDGE_CURVE('',#457,#458,#505,.F.);
#366=EDGE_CURVE('',#458,#459,#54,.T.);
#367=EDGE_CURVE('',#459,#453,#36,.F.);
#368=EDGE_CURVE('',#460,#461,#55,.T.);
#369=EDGE_CURVE('',#461,#459,#56,.T.);
#370=EDGE_CURVE('',#458,#462,#57,.F.);
#371=EDGE_CURVE('',#462,#463,#58,.T.);
#372=EDGE_CURVE('',#463,#464,#59,.T.);
#373=EDGE_CURVE('',#465,#464,#60,.T.);
#374=EDGE_CURVE('',#465,#466,#61,.T.);
#375=EDGE_CURVE('',#466,#467,#62,.T.);
#376=EDGE_CURVE('',#467,#449,#63,.T.);
#377=EDGE_CURVE('',#448,#460,#64,.T.);
#378=EDGE_CURVE('',#456,#468,#65,.F.);
#379=EDGE_CURVE('',#468,#469,#66,.T.);
#380=EDGE_CURVE('',#469,#457,#67,.T.);
#381=EDGE_CURVE('',#454,#470,#68,.T.);
#382=EDGE_CURVE('',#470,#471,#69,.T.);
#383=EDGE_CURVE('',#471,#444,#70,.T.);
#384=EDGE_CURVE('',#445,#472,#71,.T.);
#385=EDGE_CURVE('',#472,#473,#72,.T.);
#386=EDGE_CURVE('',#473,#474,#73,.T.);
#387=EDGE_CURVE('',#474,#475,#74,.T.);
#388=EDGE_CURVE('',#475,#476,#75,.F.);
#389=EDGE_CURVE('',#476,#477,#76,.T.);
#390=EDGE_CURVE('',#477,#455,#77,.T.);
#391=EDGE_CURVE('',#478,#479,#78,.F.);
#392=EDGE_CURVE('',#479,#480,#79,.T.);
#393=EDGE_CURVE('',#480,#481,#80,.T.);
#394=EDGE_CURVE('',#478,#481,#81,.T.);
#395=EDGE_CURVE('',#482,#483,#506,.T.);
#396=EDGE_CURVE('',#483,#484,#82,.T.);
#397=EDGE_CURVE('',#484,#485,#507,.T.);
#398=EDGE_CURVE('',#485,#486,#83,.T.);
#399=EDGE_CURVE('',#486,#487,#508,.T.);
#400=EDGE_CURVE('',#487,#488,#84,.T.);
#401=EDGE_CURVE('',#488,#489,#509,.T.);
#402=EDGE_CURVE('',#489,#482,#85,.T.);
#403=EDGE_CURVE('',#490,#490,#510,.T.);
#404=EDGE_CURVE('',#474,#491,#37,.F.);
#405=EDGE_CURVE('',#491,#492,#86,.T.);
#406=EDGE_CURVE('',#492,#465,#38,.F.);
#407=EDGE_CURVE('',#464,#478,#511,.F.);
#408=EDGE_CURVE('',#481,#475,#512,.F.);
#409=EDGE_CURVE('',#493,#493,#513,.T.);
#410=EDGE_CURVE('',#494,#494,#514,.T.);
#411=EDGE_CURVE('',#480,#476,#515,.F.);
#412=EDGE_CURVE('',#463,#479,#516,.F.);
#413=EDGE_CURVE('',#469,#462,#517,.F.);
#414=EDGE_CURVE('',#477,#468,#518,.F.);
#415=EDGE_CURVE('',#488,#468,#87,.T.);
#416=EDGE_CURVE('',#469,#487,#88,.T.);
#417=EDGE_CURVE('',#462,#486,#89,.T.);
#418=EDGE_CURVE('',#489,#477,#90,.T.);
#419=EDGE_CURVE('',#463,#485,#91,.T.);
#420=EDGE_CURVE('',#482,#476,#92,.T.);
#421=EDGE_CURVE('',#479,#484,#93,.T.);
#422=EDGE_CURVE('',#483,#480,#94,.T.);
#423=EDGE_CURVE('',#470,#495,#39,.F.);
#424=EDGE_CURVE('',#495,#496,#95,.T.);
#425=EDGE_CURVE('',#496,#461,#40,.F.);
#426=EDGE_CURVE('',#460,#497,#41,.F.);
#427=EDGE_CURVE('',#498,#497,#96,.T.);
#428=EDGE_CURVE('',#498,#471,#42,.F.);
#429=EDGE_CURVE('',#495,#452,#97,.F.);
#430=EDGE_CURVE('',#453,#496,#98,.F.);
#431=EDGE_CURVE('',#446,#498,#99,.F.);
#432=EDGE_CURVE('',#497,#447,#100,.F.);
#433=EDGE_CURVE('',#472,#499,#43,.F.);
#434=EDGE_CURVE('',#499,#500,#101,.T.);
#435=EDGE_CURVE('',#500,#467,#44,.F.);
#436=EDGE_CURVE('',#466,#501,#45,.F.);
#437=EDGE_CURVE('',#502,#501,#102,.T.);
#438=EDGE_CURVE('',#502,#473,#46,.F.);
#439=EDGE_CURVE('',#499,#451,#103,.F.);
#440=EDGE_CURVE('',#450,#500,#104,.F.);
#441=EDGE_CURVE('',#491,#502,#105,.F.);
#442=EDGE_CURVE('',#501,#492,#106,.F.);
#443=VERTEX_POINT('',#943);
#444=VERTEX_POINT('',#945);
#445=VERTEX_POINT('',#946);
#446=VERTEX_POINT('',#948);
#447=VERTEX_POINT('',#950);
#448=VERTEX_POINT('',#952);
#449=VERTEX_POINT('',#954);
#450=VERTEX_POINT('',#956);
#451=VERTEX_POINT('',#958);
#452=VERTEX_POINT('',#962);
#453=VERTEX_POINT('',#963);
#454=VERTEX_POINT('',#965);
#455=VERTEX_POINT('',#967);
#456=VERTEX_POINT('',#969);
#457=VERTEX_POINT('',#971);
#458=VERTEX_POINT('',#973);
#459=VERTEX_POINT('',#975);
#460=VERTEX_POINT('',#979);
#461=VERTEX_POINT('',#980);
#462=VERTEX_POINT('',#983);
#463=VERTEX_POINT('',#985);
#464=VERTEX_POINT('',#987);
#465=VERTEX_POINT('',#989);
#466=VERTEX_POINT('',#991);
#467=VERTEX_POINT('',#993);
#468=VERTEX_POINT('',#998);
#469=VERTEX_POINT('',#1000);
#470=VERTEX_POINT('',#1004);
#471=VERTEX_POINT('',#1006);
#472=VERTEX_POINT('',#1009);
#473=VERTEX_POINT('',#1011);
#474=VERTEX_POINT('',#1013);
#475=VERTEX_POINT('',#1015);
#476=VERTEX_POINT('',#1017);
#477=VERTEX_POINT('',#1019);
#478=VERTEX_POINT('',#1023);
#479=VERTEX_POINT('',#1024);
#480=VERTEX_POINT('',#1026);
#481=VERTEX_POINT('',#1028);
#482=VERTEX_POINT('',#1032);
#483=VERTEX_POINT('',#1033);
#484=VERTEX_POINT('',#1035);
#485=VERTEX_POINT('',#1037);
#486=VERTEX_POINT('',#1039);
#487=VERTEX_POINT('',#1041);
#488=VERTEX_POINT('',#1043);
#489=VERTEX_POINT('',#1045);
#490=VERTEX_POINT('',#1048);
#491=VERTEX_POINT('',#1051);
#492=VERTEX_POINT('',#1053);
#493=VERTEX_POINT('',#1059);
#494=VERTEX_POINT('',#1062);
#495=VERTEX_POINT('',#1090);
#496=VERTEX_POINT('',#1092);
#497=VERTEX_POINT('',#1095);
#498=VERTEX_POINT('',#1097);
#499=VERTEX_POINT('',#1107);
#500=VERTEX_POINT('',#1109);
#501=VERTEX_POINT('',#1112);
#502=VERTEX_POINT('',#1114);
#503=CIRCLE('',#672,0.0158);
#504=CIRCLE('',#679,0.004);
#505=CIRCLE('',#680,0.004);
#506=CIRCLE('',#687,0.0026);
#507=CIRCLE('',#688,0.0026);
#508=CIRCLE('',#689,0.0026);
#509=CIRCLE('',#690,0.0026);
#510=CIRCLE('',#691,0.0225);
#511=CIRCLE('',#695,0.004);
#512=CIRCLE('',#696,0.004);
#513=CIRCLE('',#698,0.0158);
#514=CIRCLE('',#700,0.019);
#515=CIRCLE('',#703,0.004);
#516=CIRCLE('',#705,0.004);
#517=CIRCLE('',#707,0.004);
#518=CIRCLE('',#709,0.004);
#519=EDGE_LOOP('',(#167));
#520=EDGE_LOOP('',(#168,#169,#170,#171,#172,#173,#174,#175));
#521=EDGE_LOOP('',(#176,#177,#178,#179,#180,#181,#182,#183));
#522=EDGE_LOOP('',(#184,#185,#186,#187,#188,#189,#190,#191,#192,#193,#194,
#195));
#523=EDGE_LOOP('',(#196,#197,#198,#199));
#524=EDGE_LOOP('',(#200,#201,#202,#203,#204,#205,#206,#207,#208,#209,#210,
#211));
#525=EDGE_LOOP('',(#212,#213,#214,#215));
#526=EDGE_LOOP('',(#216,#217,#218,#219,#220,#221,#222,#223));
#527=EDGE_LOOP('',(#224));
#528=EDGE_LOOP('',(#225,#226,#227,#228,#229,#230,#231,#232));
#529=EDGE_LOOP('',(#233));
#530=EDGE_LOOP('',(#234));
#531=EDGE_LOOP('',(#235));
#532=EDGE_LOOP('',(#236));
#533=EDGE_LOOP('',(#237));
#534=EDGE_LOOP('',(#238));
#535=EDGE_LOOP('',(#239,#240,#241,#242));
#536=EDGE_LOOP('',(#243,#244,#245,#246));
#537=EDGE_LOOP('',(#247,#248,#249,#250));
#538=EDGE_LOOP('',(#251,#252,#253,#254));
#539=EDGE_LOOP('',(#255,#256,#257,#258));
#540=EDGE_LOOP('',(#259,#260,#261,#262));
#541=EDGE_LOOP('',(#263,#264,#265,#266));
#542=EDGE_LOOP('',(#267,#268,#269,#270));
#543=EDGE_LOOP('',(#271,#272,#273,#274));
#544=EDGE_LOOP('',(#275,#276,#277,#278));
#545=EDGE_LOOP('',(#279,#280,#281,#282));
#546=EDGE_LOOP('',(#283,#284,#285,#286));
#547=EDGE_LOOP('',(#287,#288,#289,#290,#291,#292,#293,#294));
#548=EDGE_LOOP('',(#295,#296,#297,#298));
#549=EDGE_LOOP('',(#299,#300,#301,#302));
#550=EDGE_LOOP('',(#303,#304,#305,#306,#307,#308,#309,#310));
#551=EDGE_LOOP('',(#311,#312,#313,#314));
#552=EDGE_LOOP('',(#315,#316,#317,#318));
#553=EDGE_LOOP('',(#319,#320,#321,#322));
#554=EDGE_LOOP('',(#323,#324,#325,#326));
#555=EDGE_LOOP('',(#327,#328,#329,#330));
#556=EDGE_LOOP('',(#331,#332,#333,#334));
#557=EDGE_LOOP('',(#335,#336,#337,#338));
#558=EDGE_LOOP('',(#339,#340,#341,#342));
#559=EDGE_LOOP('',(#343,#344,#345,#346));
#560=EDGE_LOOP('',(#347,#348,#349,#350));
#561=FACE_BOUND('',#519,.T.);
#562=FACE_BOUND('',#520,.T.);
#563=FACE_BOUND('',#521,.T.);
#564=FACE_BOUND('',#522,.T.);
#565=FACE_BOUND('',#523,.T.);
#566=FACE_BOUND('',#524,.T.);
#567=FACE_BOUND('',#525,.T.);
#568=FACE_BOUND('',#526,.T.);
#569=FACE_BOUND('',#527,.T.);
#570=FACE_BOUND('',#528,.T.);
#571=FACE_BOUND('',#529,.T.);
#572=FACE_BOUND('',#530,.T.);
#573=FACE_BOUND('',#531,.T.);
#574=FACE_BOUND('',#532,.T.);
#575=FACE_BOUND('',#533,.T.);
#576=FACE_BOUND('',#534,.T.);
#577=FACE_BOUND('',#535,.T.);
#578=FACE_BOUND('',#536,.T.);
#579=FACE_BOUND('',#537,.T.);
#580=FACE_BOUND('',#538,.T.);
#581=FACE_BOUND('',#539,.T.);
#582=FACE_BOUND('',#540,.T.);
#583=FACE_BOUND('',#541,.T.);
#584=FACE_BOUND('',#542,.T.);
#585=FACE_BOUND('',#543,.T.);
#586=FACE_BOUND('',#544,.T.);
#587=FACE_BOUND('',#545,.T.);
#588=FACE_BOUND('',#546,.T.);
#589=FACE_BOUND('',#547,.T.);
#590=FACE_BOUND('',#548,.T.);
#591=FACE_BOUND('',#549,.T.);
#592=FACE_BOUND('',#550,.T.);
#593=FACE_BOUND('',#551,.T.);
#594=FACE_BOUND('',#552,.T.);
#595=FACE_BOUND('',#553,.T.);
#596=FACE_BOUND('',#554,.T.);
#597=FACE_BOUND('',#555,.T.);
#598=FACE_BOUND('',#556,.T.);
#599=FACE_BOUND('',#557,.T.);
#600=FACE_BOUND('',#558,.T.);
#601=FACE_BOUND('',#559,.T.);
#602=FACE_BOUND('',#560,.T.);
#603=PLANE('',#671);
#604=PLANE('',#677);
#605=PLANE('',#682);
#606=PLANE('',#683);
#607=PLANE('',#684);
#608=PLANE('',#685);
#609=PLANE('',#686);
#610=PLANE('',#692);
#611=PLANE('',#710);
#612=PLANE('',#713);
#613=PLANE('',#714);
#614=PLANE('',#717);
#615=PLANE('',#718);
#616=PLANE('',#723);
#617=PLANE('',#724);
#618=PLANE('',#725);
#619=PLANE('',#730);
#620=PLANE('',#731);
#621=ADVANCED_FACE('',(#561,#562),#603,.F.);
#622=ADVANCED_FACE('',(#563),#604,.F.);
#623=ADVANCED_FACE('',(#564),#605,.T.);
#624=ADVANCED_FACE('',(#565),#606,.F.);
#625=ADVANCED_FACE('',(#566),#607,.F.);
#626=ADVANCED_FACE('',(#567),#608,.T.);
#627=ADVANCED_FACE('',(#568,#569),#609,.T.);
#628=ADVANCED_FACE('',(#570),#610,.F.);
#629=ADVANCED_FACE('',(#571,#572),#18,.F.);
#630=ADVANCED_FACE('',(#573,#574),#12,.F.);
#631=ADVANCED_FACE('',(#575,#576),#13,.F.);
#632=ADVANCED_FACE('',(#577),#19,.T.);
#633=ADVANCED_FACE('',(#578),#20,.T.);
#634=ADVANCED_FACE('',(#579),#21,.T.);
#635=ADVANCED_FACE('',(#580),#22,.T.);
#636=ADVANCED_FACE('',(#581),#611,.T.);
#637=ADVANCED_FACE('',(#582),#14,.T.);
#638=ADVANCED_FACE('',(#583),#15,.T.);
#639=ADVANCED_FACE('',(#584),#612,.F.);
#640=ADVANCED_FACE('',(#585),#613,.T.);
#641=ADVANCED_FACE('',(#586),#16,.T.);
#642=ADVANCED_FACE('',(#587),#17,.T.);
#643=ADVANCED_FACE('',(#588),#614,.F.);
#644=ADVANCED_FACE('',(#589),#615,.T.);
#645=ADVANCED_FACE('',(#590),#616,.T.);
#646=ADVANCED_FACE('',(#591),#617,.T.);
#647=ADVANCED_FACE('',(#592),#618,.T.);
#648=ADVANCED_FACE('',(#593),#619,.T.);
#649=ADVANCED_FACE('',(#594),#620,.T.);
#650=ADVANCED_FACE('',(#595),#23,.T.);
#651=ADVANCED_FACE('',(#596),#24,.T.);
#652=ADVANCED_FACE('',(#597),#25,.T.);
#653=ADVANCED_FACE('',(#598),#26,.T.);
#654=ADVANCED_FACE('',(#599),#27,.T.);
#655=ADVANCED_FACE('',(#600),#28,.T.);
#656=ADVANCED_FACE('',(#601),#29,.T.);
#657=ADVANCED_FACE('',(#602),#30,.T.);
#658=CLOSED_SHELL('',(#621,#622,#623,#624,#625,#626,#627,#628,#629,#630,
#631,#632,#633,#634,#635,#636,#637,#638,#639,#640,#641,#642,#643,#644,#645,
#646,#647,#648,#649,#650,#651,#652,#653,#654,#655,#656,#657));
#659=STYLED_ITEM('',(#660),#667);
#660=PRESENTATION_STYLE_ASSIGNMENT((#661));
#661=SURFACE_STYLE_USAGE(.BOTH.,#662);
#662=SURFACE_SIDE_STYLE('',(#663));
#663=SURFACE_STYLE_FILL_AREA(#664);
#664=FILL_AREA_STYLE('',(#665));
#665=FILL_AREA_STYLE_COLOUR('',#666);
#666=COLOUR_RGB('',0.615686274509804,0.811764705882353,0.929411764705882);
#667=MANIFOLD_SOLID_BREP('cellFunnel',#658);
#668=SHAPE_DEFINITION_REPRESENTATION(#1136,#669);
#669=SHAPE_REPRESENTATION('cellFunnel',(#670),#1131);
#670=AXIS2_PLACEMENT_3D('',#940,#740,#741);
#671=AXIS2_PLACEMENT_3D('',#941,#742,#743);
#672=AXIS2_PLACEMENT_3D('',#942,#744,#745);
#673=AXIS2_PLACEMENT_3D('',#947,#747,#748);
#674=AXIS2_PLACEMENT_3D('',#951,#750,#751);
#675=AXIS2_PLACEMENT_3D('',#955,#753,#754);
#676=AXIS2_PLACEMENT_3D('',#959,#756,#757);
#677=AXIS2_PLACEMENT_3D('',#960,#758,#759);
#678=AXIS2_PLACEMENT_3D('',#964,#761,#762);
#679=AXIS2_PLACEMENT_3D('',#968,#764,#765);
#680=AXIS2_PLACEMENT_3D('',#972,#767,#768);
#681=AXIS2_PLACEMENT_3D('',#976,#770,#771);
#682=AXIS2_PLACEMENT_3D('',#977,#772,#773);
#683=AXIS2_PLACEMENT_3D('',#996,#784,#785);
#684=AXIS2_PLACEMENT_3D('',#1002,#789,#790);
#685=AXIS2_PLACEMENT_3D('',#1021,#801,#802);
#686=AXIS2_PLACEMENT_3D('',#1030,#807,#808);
#687=AXIS2_PLACEMENT_3D('',#1031,#809,#810);
#688=AXIS2_PLACEMENT_3D('',#1036,#812,#813);
#689=AXIS2_PLACEMENT_3D('',#1040,#815,#816);
#690=AXIS2_PLACEMENT_3D('',#1044,#818,#819);
#691=AXIS2_PLACEMENT_3D('',#1047,#821,#822);
#692=AXIS2_PLACEMENT_3D('',#1049,#823,#824);
#693=AXIS2_PLACEMENT_3D('',#1050,#825,#826);
#694=AXIS2_PLACEMENT_3D('',#1054,#828,#829);
#695=AXIS2_PLACEMENT_3D('',#1055,#830,#831);
#696=AXIS2_PLACEMENT_3D('',#1056,#832,#833);
#697=AXIS2_PLACEMENT_3D('',#1057,#834,#835);
#698=AXIS2_PLACEMENT_3D('',#1058,#836,#837);
#699=AXIS2_PLACEMENT_3D('',#1060,#838,#839);
#700=AXIS2_PLACEMENT_3D('',#1061,#840,#841);
#701=AXIS2_PLACEMENT_3D('',#1063,#842,#843);
#702=AXIS2_PLACEMENT_3D('',#1064,#844,#845);
#703=AXIS2_PLACEMENT_3D('',#1065,#846,#847);
#704=AXIS2_PLACEMENT_3D('',#1066,#848,#849);
#705=AXIS2_PLACEMENT_3D('',#1067,#850,#851);
#706=AXIS2_PLACEMENT_3D('',#1068,#852,#853);
#707=AXIS2_PLACEMENT_3D('',#1069,#854,#855);
#708=AXIS2_PLACEMENT_3D('',#1070,#856,#857);
#709=AXIS2_PLACEMENT_3D('',#1071,#858,#859);
#710=AXIS2_PLACEMENT_3D('',#1072,#860,#861);
#711=AXIS2_PLACEMENT_3D('',#1075,#864,#865);
#712=AXIS2_PLACEMENT_3D('',#1077,#867,#868);
#713=AXIS2_PLACEMENT_3D('',#1079,#870,#871);
#714=AXIS2_PLACEMENT_3D('',#1081,#873,#874);
#715=AXIS2_PLACEMENT_3D('',#1083,#876,#877);
#716=AXIS2_PLACEMENT_3D('',#1085,#879,#880);
#717=AXIS2_PLACEMENT_3D('',#1087,#882,#883);
#718=AXIS2_PLACEMENT_3D('',#1088,#884,#885);
#719=AXIS2_PLACEMENT_3D('',#1089,#886,#887);
#720=AXIS2_PLACEMENT_3D('',#1093,#889,#890);
#721=AXIS2_PLACEMENT_3D('',#1094,#891,#892);
#722=AXIS2_PLACEMENT_3D('',#1098,#894,#895);
#723=AXIS2_PLACEMENT_3D('',#1099,#896,#897);
#724=AXIS2_PLACEMENT_3D('',#1102,#900,#901);
#725=AXIS2_PLACEMENT_3D('',#1105,#904,#905);
#726=AXIS2_PLACEMENT_3D('',#1106,#906,#907);
#727=AXIS2_PLACEMENT_3D('',#1110,#909,#910);
#728=AXIS2_PLACEMENT_3D('',#1111,#911,#912);
#729=AXIS2_PLACEMENT_3D('',#1115,#914,#915);
#730=AXIS2_PLACEMENT_3D('',#1116,#916,#917);
#731=AXIS2_PLACEMENT_3D('',#1119,#920,#921);
#732=AXIS2_PLACEMENT_3D('',#1122,#924,#925);
#733=AXIS2_PLACEMENT_3D('',#1123,#926,#927);
#734=AXIS2_PLACEMENT_3D('',#1124,#928,#929);
#735=AXIS2_PLACEMENT_3D('',#1125,#930,#931);
#736=AXIS2_PLACEMENT_3D('',#1126,#932,#933);
#737=AXIS2_PLACEMENT_3D('',#1127,#934,#935);
#738=AXIS2_PLACEMENT_3D('',#1128,#936,#937);
#739=AXIS2_PLACEMENT_3D('',#1129,#938,#939);
#740=DIRECTION('',(0.,0.,1.));
#741=DIRECTION('',(1.,0.,0.));
#742=DIRECTION('',(0.,1.,0.));
#743=DIRECTION('',(1.,0.,0.));
#744=DIRECTION('',(0.,-1.,0.));
#745=DIRECTION('',(-1.,0.,0.));
#746=DIRECTION('',(-1.,0.,1.15648231731787E-16));
#747=DIRECTION('',(0.,1.,0.));
#748=DIRECTION('',(-1.,0.,1.15648231731787E-16));
#749=DIRECTION('',(1.15648231731787E-16,0.,1.));
#750=DIRECTION('',(0.,1.,0.));
#751=DIRECTION('',(-1.,0.,1.15648231731787E-16));
#752=DIRECTION('',(-1.,0.,1.15648231731787E-16));
#753=DIRECTION('',(0.,1.,0.));
#754=DIRECTION('',(-1.,0.,1.15648231731787E-16));
#755=DIRECTION('',(1.15648231731787E-16,0.,1.));
#756=DIRECTION('',(0.,1.,0.));
#757=DIRECTION('',(-1.,0.,1.15648231731787E-16));
#758=DIRECTION('',(0.,1.,0.));
#759=DIRECTION('',(1.,0.,0.));
#760=DIRECTION('',(1.15648231731787E-16,0.,1.));
#761=DIRECTION('',(0.,1.,0.));
#762=DIRECTION('',(-1.,0.,1.15648231731787E-16));
#763=DIRECTION('',(-1.,0.,1.15648231731787E-16));
#764=DIRECTION('',(0.,1.,0.));
#765=DIRECTION('',(1.,0.,0.));
#766=DIRECTION('',(-1.7347234759768E-16,0.,-1.));
#767=DIRECTION('',(0.,1.,0.));
#768=DIRECTION('',(1.,0.,0.));
#769=DIRECTION('',(-1.,0.,1.15648231731787E-16));
#770=DIRECTION('',(0.,1.,0.));
#771=DIRECTION('',(-1.,0.,1.15648231731787E-16));
#772=DIRECTION('',(1.15648231731787E-16,0.,1.));
#773=DIRECTION('',(1.,0.,-1.15648231731787E-16));
#774=DIRECTION('',(1.,0.,-1.15648231731787E-16));
#775=DIRECTION('',(-0.24253562503633,-0.970142500145333,2.80488161674153E-17));
#776=DIRECTION('',(0.,-1.,0.));
#777=DIRECTION('',(-1.,0.,1.15648231731787E-16));
#778=DIRECTION('',(0.,-1.,0.));
#779=DIRECTION('',(-1.,0.,1.15648231731787E-16));
#780=DIRECTION('',(-0.242535625036332,0.970142500145332,2.80488161674156E-17));
#781=DIRECTION('',(1.,0.,-1.15648231731787E-16));
#782=DIRECTION('',(-0.242535625036333,-0.970142500145332,2.80488161674157E-17));
#783=DIRECTION('',(-0.24253562503633,0.970142500145333,2.80488161674153E-17));
#784=DIRECTION('',(-1.,0.,1.7347234759768E-16));
#785=DIRECTION('',(1.7347234759768E-16,0.,1.));
#786=DIRECTION('',(0.,-1.,0.));
#787=DIRECTION('',(1.7347234759768E-16,0.,1.));
#788=DIRECTION('',(0.,-1.,0.));
#789=DIRECTION('',(1.15648231731787E-16,0.,1.));
#790=DIRECTION('',(1.,0.,-1.15648231731787E-16));
#791=DIRECTION('',(0.24253562503633,0.970142500145333,-2.80488161674153E-17));
#792=DIRECTION('',(-1.,0.,1.15648231731787E-16));
#793=DIRECTION('',(0.24253562503633,-0.970142500145333,-2.80488161674153E-17));
#794=DIRECTION('',(0.242535625036333,0.970142500145332,-2.80488161674157E-17));
#795=DIRECTION('',(-1.,0.,1.15648231731787E-16));
#796=DIRECTION('',(0.242535625036332,-0.970142500145332,-2.80488161674156E-17));
#797=DIRECTION('',(-1.,0.,1.15648231731787E-16));
#798=DIRECTION('',(0.,-1.,0.));
#799=DIRECTION('',(1.,0.,-1.15648231731787E-16));
#800=DIRECTION('',(0.,-1.,0.));
#801=DIRECTION('',(-1.,0.,1.7347234759768E-16));
#802=DIRECTION('',(1.7347234759768E-16,0.,1.));
#803=DIRECTION('',(0.,-1.,0.));
#804=DIRECTION('',(-1.7347234759768E-16,0.,-1.));
#805=DIRECTION('',(0.,-1.,0.));
#806=DIRECTION('',(-1.7347234759768E-16,0.,-1.));
#807=DIRECTION('',(0.,1.,0.));
#808=DIRECTION('',(1.,0.,0.));
#809=DIRECTION('',(0.,1.,0.));
#810=DIRECTION('',(1.,0.,0.));
#811=DIRECTION('',(1.7347234759768E-16,0.,1.));
#812=DIRECTION('',(0.,1.,0.));
#813=DIRECTION('',(1.,0.,0.));
#814=DIRECTION('',(1.,0.,-1.15648231731787E-16));
#815=DIRECTION('',(0.,1.,0.));
#816=DIRECTION('',(1.,0.,0.));
#817=DIRECTION('',(-1.7347234759768E-16,0.,-1.));
#818=DIRECTION('',(0.,1.,0.));
#819=DIRECTION('',(1.,0.,0.));
#820=DIRECTION('',(-1.,0.,1.15648231731787E-16));
#821=DIRECTION('',(0.,-1.,0.));
#822=DIRECTION('',(-1.,0.,0.));
#823=DIRECTION('',(0.,1.,0.));
#824=DIRECTION('',(1.,0.,0.));
#825=DIRECTION('',(0.,1.,0.));
#826=DIRECTION('',(-1.,0.,1.15648231731787E-16));
#827=DIRECTION('',(1.15648231731787E-16,0.,1.));
#828=DIRECTION('',(0.,1.,0.));
#829=DIRECTION('',(-1.,0.,1.15648231731787E-16));
#830=DIRECTION('',(0.,1.,0.));
#831=DIRECTION('',(1.,0.,0.));
#832=DIRECTION('',(0.,1.,0.));
#833=DIRECTION('',(1.,0.,0.));
#834=DIRECTION('',(0.,-1.,0.));
#835=DIRECTION('',(-1.,0.,0.));
#836=DIRECTION('',(0.,-1.,0.));
#837=DIRECTION('',(-1.,0.,0.));
#838=DIRECTION('',(0.,1.,0.));
#839=DIRECTION('',(1.,0.,0.));
#840=DIRECTION('',(0.,-1.,0.));
#841=DIRECTION('',(-1.,0.,0.));
#842=DIRECTION('',(0.,1.,0.));
#843=DIRECTION('',(1.,0.,0.));
#844=DIRECTION('',(0.,1.,0.));
#845=DIRECTION('',(1.,0.,0.));
#846=DIRECTION('',(0.,1.,0.));
#847=DIRECTION('',(1.,0.,0.));
#848=DIRECTION('',(0.,-1.,0.));
#849=DIRECTION('',(-1.,0.,0.));
#850=DIRECTION('',(0.,1.,0.));
#851=DIRECTION('',(1.,0.,0.));
#852=DIRECTION('',(0.,1.,0.));
#853=DIRECTION('',(1.,0.,0.));
#854=DIRECTION('',(0.,1.,0.));
#855=DIRECTION('',(1.,0.,0.));
#856=DIRECTION('',(0.,-1.,0.));
#857=DIRECTION('',(-1.,0.,0.));
#858=DIRECTION('',(0.,1.,0.));
#859=DIRECTION('',(1.,0.,0.));
#860=DIRECTION('',(0.707106781186548,0.707106781186548,-1.2266347333467E-16));
#861=DIRECTION('',(1.7347234759768E-16,0.,1.));
#862=DIRECTION('',(0.707106781186548,-0.707106781186548,0.));
#863=DIRECTION('',(-0.707106781186547,0.707106781186549,0.));
#864=DIRECTION('',(0.,-1.,0.));
#865=DIRECTION('',(-1.,0.,0.));
#866=DIRECTION('',(0.,0.707106781186548,-0.707106781186548));
#867=DIRECTION('',(0.,-1.,0.));
#868=DIRECTION('',(-1.,0.,0.));
#869=DIRECTION('',(0.,-0.707106781186548,-0.707106781186548));
#870=DIRECTION('',(-8.177564888978E-17,-0.707106781186548,-0.707106781186548));
#871=DIRECTION('',(-1.,0.,1.15648231731787E-16));
#872=DIRECTION('',(0.,0.707106781186548,-0.707106781186548));
#873=DIRECTION('',(-8.177564888978E-17,0.707106781186548,-0.707106781186548));
#874=DIRECTION('',(1.,0.,-1.15648231731787E-16));
#875=DIRECTION('',(0.,-0.707106781186548,-0.707106781186548));
#876=DIRECTION('',(0.,-1.,0.));
#877=DIRECTION('',(-1.,0.,0.));
#878=DIRECTION('',(0.707106781186548,0.707106781186548,0.));
#879=DIRECTION('',(0.,-1.,0.));
#880=DIRECTION('',(-1.,0.,0.));
#881=DIRECTION('',(-0.707106781186548,-0.707106781186548,0.));
#882=DIRECTION('',(0.707106781186548,-0.707106781186548,-1.2266347333467E-16));
#883=DIRECTION('',(-1.7347234759768E-16,0.,-1.));
#884=DIRECTION('',(0.,-1.,0.));
#885=DIRECTION('',(-1.,0.,0.));
#886=DIRECTION('',(0.,-1.,0.));
#887=DIRECTION('',(-1.,0.,1.15648231731787E-16));
#888=DIRECTION('',(1.15648231731787E-16,0.,1.));
#889=DIRECTION('',(0.,-1.,0.));
#890=DIRECTION('',(-1.,0.,1.15648231731787E-16));
#891=DIRECTION('',(0.,-1.,0.));
#892=DIRECTION('',(-1.,0.,1.15648231731787E-16));
#893=DIRECTION('',(1.15648231731787E-16,0.,1.));
#894=DIRECTION('',(0.,-1.,0.));
#895=DIRECTION('',(-1.,0.,1.15648231731787E-16));
#896=DIRECTION('',(-0.970142500145333,0.24253562503633,1.12195264669663E-16));
#897=DIRECTION('',(0.24253562503633,0.970142500145333,0.));
#898=DIRECTION('',(0.24253562503633,0.970142500145333,-2.80488161674153E-17));
#899=DIRECTION('',(-0.24253562503633,-0.970142500145333,2.80488161674153E-17));
#900=DIRECTION('',(0.970142500145333,0.24253562503633,-1.12195264669663E-16));
#901=DIRECTION('',(0.24253562503633,-0.970142500145333,0.));
#902=DIRECTION('',(0.24253562503633,-0.970142500145333,-2.80488161674153E-17));
#903=DIRECTION('',(-0.24253562503633,0.970142500145333,2.80488161674153E-17));
#904=DIRECTION('',(0.,-1.,0.));
#905=DIRECTION('',(-1.,0.,0.));
#906=DIRECTION('',(0.,-1.,0.));
#907=DIRECTION('',(-1.,0.,1.15648231731787E-16));
#908=DIRECTION('',(1.15648231731787E-16,0.,1.));
#909=DIRECTION('',(0.,-1.,0.));
#910=DIRECTION('',(-1.,0.,1.15648231731787E-16));
#911=DIRECTION('',(0.,-1.,0.));
#912=DIRECTION('',(-1.,0.,1.15648231731787E-16));
#913=DIRECTION('',(1.15648231731787E-16,0.,1.));
#914=DIRECTION('',(0.,-1.,0.));
#915=DIRECTION('',(-1.,0.,1.15648231731787E-16));
#916=DIRECTION('',(-0.970142500145332,0.242535625036333,1.12195264669663E-16));
#917=DIRECTION('',(0.242535625036333,0.970142500145332,0.));
#918=DIRECTION('',(0.242535625036333,0.970142500145332,-2.80488161674157E-17));
#919=DIRECTION('',(-0.242535625036333,-0.970142500145332,2.80488161674157E-17));
#920=DIRECTION('',(0.970142500145332,0.242535625036332,-1.12195264669663E-16));
#921=DIRECTION('',(0.242535625036332,-0.970142500145332,0.));
#922=DIRECTION('',(0.242535625036332,-0.970142500145332,-2.80488161674156E-17));
#923=DIRECTION('',(-0.242535625036332,0.970142500145332,2.80488161674156E-17));
#924=DIRECTION('',(-0.24253562503633,-0.970142500145333,2.80488161674153E-17));
#925=DIRECTION('',(-0.970142500145333,0.24253562503633,0.));
#926=DIRECTION('',(-0.24253562503633,0.970142500145333,2.80488161674153E-17));
#927=DIRECTION('',(0.970142500145333,0.24253562503633,0.));
#928=DIRECTION('',(-0.242535625036333,-0.970142500145332,2.80488161674157E-17));
#929=DIRECTION('',(-0.970142500145332,0.242535625036333,0.));
#930=DIRECTION('',(-0.242535625036332,0.970142500145332,2.80488161674156E-17));
#931=DIRECTION('',(0.970142500145332,0.242535625036332,0.));
#932=DIRECTION('',(-0.24253562503633,-0.970142500145333,2.80488161674153E-17));
#933=DIRECTION('',(-0.970142500145333,0.24253562503633,0.));
#934=DIRECTION('',(-0.24253562503633,0.970142500145333,2.80488161674153E-17));
#935=DIRECTION('',(0.970142500145333,0.24253562503633,0.));
#936=DIRECTION('',(-0.242535625036333,-0.970142500145332,2.80488161674157E-17));
#937=DIRECTION('',(-0.970142500145332,0.242535625036333,0.));
#938=DIRECTION('',(-0.242535625036332,0.970142500145332,2.80488161674156E-17));
#939=DIRECTION('',(0.970142500145332,0.242535625036332,0.));
#940=CARTESIAN_POINT('',(0.,0.,0.));
#941=CARTESIAN_POINT('',(0.,-0.0175,0.));
#942=CARTESIAN_POINT('',(0.,-0.0175,0.));
#943=CARTESIAN_POINT('',(-0.0158,-0.0175,0.));
#944=CARTESIAN_POINT('',(-6.93889390390723E-18,-0.0175,-0.03));
#945=CARTESIAN_POINT('',(0.0197630683123147,-0.0175,-0.03));
#946=CARTESIAN_POINT('',(-0.0197630683123147,-0.0175,-0.03));
#947=CARTESIAN_POINT('',(0.0197630683123147,-0.0175,-0.0288));
#948=CARTESIAN_POINT('',(0.021,-0.0175,-0.0288));
#949=CARTESIAN_POINT('',(0.021,-0.0175,-0.030002));
#950=CARTESIAN_POINT('',(0.021,-0.0175,0.0288));
#951=CARTESIAN_POINT('',(0.0197630683123147,-0.0175,0.0288));
#952=CARTESIAN_POINT('',(0.0197630683123147,-0.0175,0.03));
#953=CARTESIAN_POINT('',(3.46944695195361E-18,-0.0175,0.03));
#954=CARTESIAN_POINT('',(-0.0197630683123147,-0.0175,0.03));
#955=CARTESIAN_POINT('',(-0.0197630683123147,-0.0175,0.0288));
#956=CARTESIAN_POINT('',(-0.021,-0.0175,0.0288));
#957=CARTESIAN_POINT('',(-0.021,-0.0175,-0.030002));
#958=CARTESIAN_POINT('',(-0.021,-0.0175,-0.0288));
#959=CARTESIAN_POINT('',(-0.0197630683123147,-0.0175,-0.0288));
#960=CARTESIAN_POINT('',(0.,-0.0175,0.));
#961=CARTESIAN_POINT('',(0.024,-0.0175,-0.030002));
#962=CARTESIAN_POINT('',(0.024,-0.0175,-0.0288));
#963=CARTESIAN_POINT('',(0.024,-0.0175,0.0288));
#964=CARTESIAN_POINT('',(0.0252369316876853,-0.0175,-0.0288));
#965=CARTESIAN_POINT('',(0.0252369316876853,-0.0175,-0.03));
#966=CARTESIAN_POINT('',(-6.93889390390723E-18,-0.0175,-0.03));
#967=CARTESIAN_POINT('',(0.026,-0.0175,-0.03));
#968=CARTESIAN_POINT('',(0.026,-0.0175,-0.026));
#969=CARTESIAN_POINT('',(0.03,-0.0175,-0.026));
#970=CARTESIAN_POINT('',(0.03,-0.0175,-5.20417042793042E-18));
#971=CARTESIAN_POINT('',(0.03,-0.0175,0.026));
#972=CARTESIAN_POINT('',(0.026,-0.0175,0.026));
#973=CARTESIAN_POINT('',(0.026,-0.0175,0.03));
#974=CARTESIAN_POINT('',(3.46944695195361E-18,-0.0175,0.03));
#975=CARTESIAN_POINT('',(0.0252369316876853,-0.0175,0.03));
#976=CARTESIAN_POINT('',(0.0252369316876853,-0.0175,0.0288));
#977=CARTESIAN_POINT('',(3.46944695195361E-18,0.0175,0.03));
#978=CARTESIAN_POINT('',(0.0225,-0.0145,0.03));
#979=CARTESIAN_POINT('',(0.0190130683123147,-0.0145,0.03));
#980=CARTESIAN_POINT('',(0.0259869316876853,-0.0145,0.03));
#981=CARTESIAN_POINT('',(0.031987700411939,0.00950307489701535,0.03));
#982=CARTESIAN_POINT('',(0.026,0.0175,0.03));
#983=CARTESIAN_POINT('',(0.026,0.0161,0.03));
#984=CARTESIAN_POINT('',(3.46944695195361E-18,0.0161,0.03));
#985=CARTESIAN_POINT('',(-0.026,0.0161,0.03));
#986=CARTESIAN_POINT('',(-0.026,0.0175,0.03));
#987=CARTESIAN_POINT('',(-0.026,-0.0175,0.03));
#988=CARTESIAN_POINT('',(3.46944695195361E-18,-0.0175,0.03));
#989=CARTESIAN_POINT('',(-0.0252369316876853,-0.0175,0.03));
#990=CARTESIAN_POINT('',(-0.0319877004119391,0.00950307489701524,0.03));
#991=CARTESIAN_POINT('',(-0.0259869316876853,-0.0145,0.03));
#992=CARTESIAN_POINT('',(-0.0225,-0.0145,0.03));
#993=CARTESIAN_POINT('',(-0.0190130683123147,-0.0145,0.03));
#994=CARTESIAN_POINT('',(-0.0103652407645315,0.0200913101911329,0.03));
#995=CARTESIAN_POINT('',(0.0103652407645316,0.0200913101911329,0.03));
#996=CARTESIAN_POINT('',(0.03,0.0175,-5.20417042793042E-18));
#997=CARTESIAN_POINT('',(0.03,0.0175,-0.026));
#998=CARTESIAN_POINT('',(0.03,0.0161,-0.026));
#999=CARTESIAN_POINT('',(0.03,0.0161,0.026));
#1000=CARTESIAN_POINT('',(0.03,0.0161,0.026));
#1001=CARTESIAN_POINT('',(0.03,-0.0175,0.026));
#1002=CARTESIAN_POINT('',(-6.93889390390723E-18,0.0175,-0.03));
#1003=CARTESIAN_POINT('',(0.0259141710001744,-0.0147910427500436,-0.03));
#1004=CARTESIAN_POINT('',(0.0259869316876853,-0.0145,-0.03));
#1005=CARTESIAN_POINT('',(0.0225,-0.0145,-0.03));
#1006=CARTESIAN_POINT('',(0.0190130683123147,-0.0145,-0.03));
#1007=CARTESIAN_POINT('',(0.0198358289998256,-0.0177910427500436,-0.03));
#1008=CARTESIAN_POINT('',(-0.0190858289998256,-0.0147910427500436,-0.03));
#1009=CARTESIAN_POINT('',(-0.0190130683123147,-0.0145,-0.03));
#1010=CARTESIAN_POINT('',(-0.0225,-0.0145,-0.03));
#1011=CARTESIAN_POINT('',(-0.0259869316876853,-0.0145,-0.03));
#1012=CARTESIAN_POINT('',(-0.0251641710001744,-0.0177910427500436,-0.03));
#1013=CARTESIAN_POINT('',(-0.0252369316876853,-0.0175,-0.03));
#1014=CARTESIAN_POINT('',(-6.93889390390723E-18,-0.0175,-0.03));
#1015=CARTESIAN_POINT('',(-0.026,-0.0175,-0.03));
#1016=CARTESIAN_POINT('',(-0.026,0.0175,-0.03));
#1017=CARTESIAN_POINT('',(-0.026,0.0161,-0.03));
#1018=CARTESIAN_POINT('',(0.026,0.0161,-0.03));
#1019=CARTESIAN_POINT('',(0.026,0.0161,-0.03));
#1020=CARTESIAN_POINT('',(0.026,0.0175,-0.03));
#1021=CARTESIAN_POINT('',(-0.03,0.0175,3.46944695195361E-18));
#1022=CARTESIAN_POINT('',(-0.03,0.0175,0.026));
#1023=CARTESIAN_POINT('',(-0.03,-0.0175,0.026));
#1024=CARTESIAN_POINT('',(-0.03,0.0161,0.026));
#1025=CARTESIAN_POINT('',(-0.03,0.0161,3.46944695195361E-18));
#1026=CARTESIAN_POINT('',(-0.03,0.0161,-0.026));
#1027=CARTESIAN_POINT('',(-0.03,-0.0175,-0.026));
#1028=CARTESIAN_POINT('',(-0.03,-0.0175,-0.026));
#1029=CARTESIAN_POINT('',(-0.03,-0.0175,3.46944695195361E-18));
#1030=CARTESIAN_POINT('',(0.,0.0175,0.));
#1031=CARTESIAN_POINT('',(-0.026,0.0175,-0.026));
#1032=CARTESIAN_POINT('',(-0.026,0.0175,-0.0286));
#1033=CARTESIAN_POINT('',(-0.0286,0.0175,-0.026));
#1034=CARTESIAN_POINT('',(-0.0286,0.0175,4.96130914129367E-18));
#1035=CARTESIAN_POINT('',(-0.0286,0.0175,0.026));
#1036=CARTESIAN_POINT('',(-0.026,0.0175,0.026));
#1037=CARTESIAN_POINT('',(-0.026,0.0175,0.0286));
#1038=CARTESIAN_POINT('',(3.30753942752912E-18,0.0175,0.0286));
#1039=CARTESIAN_POINT('',(0.026,0.0175,0.0286));
#1040=CARTESIAN_POINT('',(0.026,0.0175,0.026));
#1041=CARTESIAN_POINT('',(0.0286,0.0175,0.026));
#1042=CARTESIAN_POINT('',(0.0286,0.0175,-0.026));
#1043=CARTESIAN_POINT('',(0.0286,0.0175,-0.026));
#1044=CARTESIAN_POINT('',(0.026,0.0175,-0.026));
#1045=CARTESIAN_POINT('',(0.026,0.0175,-0.0286));
#1046=CARTESIAN_POINT('',(-0.026,0.0175,-0.0286));
#1047=CARTESIAN_POINT('',(0.,0.0175,0.));
#1048=CARTESIAN_POINT('',(-0.0225,0.0175,0.));
#1049=CARTESIAN_POINT('',(0.,-0.0175,0.));
#1050=CARTESIAN_POINT('',(-0.0252369316876853,-0.0175,-0.0288));
#1051=CARTESIAN_POINT('',(-0.024,-0.0175,-0.0288));
#1052=CARTESIAN_POINT('',(-0.024,-0.0175,-0.030002));
#1053=CARTESIAN_POINT('',(-0.024,-0.0175,0.0288));
#1054=CARTESIAN_POINT('',(-0.0252369316876853,-0.0175,0.0288));
#1055=CARTESIAN_POINT('',(-0.026,-0.0175,0.026));
#1056=CARTESIAN_POINT('',(-0.026,-0.0175,-0.026));
#1057=CARTESIAN_POINT('',(0.,0.,0.));
#1058=CARTESIAN_POINT('',(0.,-0.0125,0.));
#1059=CARTESIAN_POINT('',(-0.0158,-0.0125,0.));
#1060=CARTESIAN_POINT('',(0.,-0.0125,0.));
#1061=CARTESIAN_POINT('',(0.,0.0095,0.));
#1062=CARTESIAN_POINT('',(-0.019,0.0095,0.));
#1063=CARTESIAN_POINT('',(0.,0.0175,0.));
#1064=CARTESIAN_POINT('',(-0.026,0.0175,-0.026));
#1065=CARTESIAN_POINT('',(-0.026,0.0161,-0.026));
#1066=CARTESIAN_POINT('',(-0.026,0.0175,0.026));
#1067=CARTESIAN_POINT('',(-0.026,0.0161,0.026));
#1068=CARTESIAN_POINT('',(0.026,0.0175,0.026));
#1069=CARTESIAN_POINT('',(0.026,0.0161,0.026));
#1070=CARTESIAN_POINT('',(0.026,0.0175,-0.026));
#1071=CARTESIAN_POINT('',(0.026,0.0161,-0.026));
#1072=CARTESIAN_POINT('',(0.0286,0.0175,-4.96130914129367E-18));
#1073=CARTESIAN_POINT('',(0.0286,0.0175,-0.026));
#1074=CARTESIAN_POINT('',(0.03,0.0161,0.026));
#1075=CARTESIAN_POINT('',(0.026,0.0175,0.026));
#1076=CARTESIAN_POINT('',(0.026,0.0161,0.03));
#1077=CARTESIAN_POINT('',(0.026,0.0175,-0.026));
#1078=CARTESIAN_POINT('',(0.026,0.0175,-0.0286));
#1079=CARTESIAN_POINT('',(3.46944695195361E-18,0.0161,0.03));
#1080=CARTESIAN_POINT('',(-0.026,0.0161,0.03));
#1081=CARTESIAN_POINT('',(-3.30753942752912E-18,0.0175,-0.0286));
#1082=CARTESIAN_POINT('',(-0.026,0.0175,-0.0286));
#1083=CARTESIAN_POINT('',(-0.026,0.0175,0.026));
#1084=CARTESIAN_POINT('',(-0.03,0.0161,0.026));
#1085=CARTESIAN_POINT('',(-0.026,0.0175,-0.026));
#1086=CARTESIAN_POINT('',(-0.0286,0.0175,-0.026));
#1087=CARTESIAN_POINT('',(-0.03,0.0161,3.46944695195361E-18));
#1088=CARTESIAN_POINT('',(0.0225,-0.0145,-0.030002));
#1089=CARTESIAN_POINT('',(0.0259869316876853,-0.0145,-0.0288));
#1090=CARTESIAN_POINT('',(0.02475,-0.0145,-0.0288));
#1091=CARTESIAN_POINT('',(0.02475,-0.0145,-0.030002));
#1092=CARTESIAN_POINT('',(0.02475,-0.0145,0.0288));
#1093=CARTESIAN_POINT('',(0.0259869316876853,-0.0145,0.0288));
#1094=CARTESIAN_POINT('',(0.0190130683123147,-0.0145,0.0288));
#1095=CARTESIAN_POINT('',(0.02025,-0.0145,0.0288));
#1096=CARTESIAN_POINT('',(0.02025,-0.0145,-0.030002));
#1097=CARTESIAN_POINT('',(0.02025,-0.0145,-0.0288));
#1098=CARTESIAN_POINT('',(0.0190130683123147,-0.0145,-0.0288));
#1099=CARTESIAN_POINT('',(0.024375,-0.016,-0.030002));
#1100=CARTESIAN_POINT('',(0.024,-0.0175,-0.0288));
#1101=CARTESIAN_POINT('',(0.024375,-0.016,0.0288));
#1102=CARTESIAN_POINT('',(0.020625,-0.016,-0.030002));
#1103=CARTESIAN_POINT('',(0.02025,-0.0145,-0.0288));
#1104=CARTESIAN_POINT('',(0.020625,-0.016,0.0288));
#1105=CARTESIAN_POINT('',(-0.0225,-0.0145,-0.030002));
#1106=CARTESIAN_POINT('',(-0.0190130683123147,-0.0145,-0.0288));
#1107=CARTESIAN_POINT('',(-0.02025,-0.0145,-0.0288));
#1108=CARTESIAN_POINT('',(-0.02025,-0.0145,-0.030002));
#1109=CARTESIAN_POINT('',(-0.02025,-0.0145,0.0288));
#1110=CARTESIAN_POINT('',(-0.0190130683123147,-0.0145,0.0288));
#1111=CARTESIAN_POINT('',(-0.0259869316876853,-0.0145,0.0288));
#1112=CARTESIAN_POINT('',(-0.02475,-0.0145,0.0288));
#1113=CARTESIAN_POINT('',(-0.02475,-0.0145,-0.030002));
#1114=CARTESIAN_POINT('',(-0.02475,-0.0145,-0.0288));
#1115=CARTESIAN_POINT('',(-0.0259869316876853,-0.0145,-0.0288));
#1116=CARTESIAN_POINT('',(-0.020625,-0.016,-0.030002));
#1117=CARTESIAN_POINT('',(-0.021,-0.0175,-0.0288));
#1118=CARTESIAN_POINT('',(-0.020625,-0.016,0.0288));
#1119=CARTESIAN_POINT('',(-0.024375,-0.016,-0.030002));
#1120=CARTESIAN_POINT('',(-0.02475,-0.0145,-0.0288));
#1121=CARTESIAN_POINT('',(-0.024375,-0.016,0.0288));
#1122=CARTESIAN_POINT('',(0.031987700411939,0.00950307489701535,-0.0288));
#1123=CARTESIAN_POINT('',(0.0103652407645316,0.0200913101911329,-0.0288));
#1124=CARTESIAN_POINT('',(-0.0103652407645315,0.0200913101911329,-0.0288));
#1125=CARTESIAN_POINT('',(-0.0319877004119391,0.00950307489701524,-0.0288));
#1126=CARTESIAN_POINT('',(0.031987700411939,0.00950307489701535,0.0288));
#1127=CARTESIAN_POINT('',(0.0103652407645316,0.0200913101911329,0.0288));
#1128=CARTESIAN_POINT('',(-0.0103652407645315,0.0200913101911329,0.0288));
#1129=CARTESIAN_POINT('',(-0.0319877004119391,0.00950307489701524,0.0288));
#1130=MECHANICAL_DESIGN_GEOMETRIC_PRESENTATION_REPRESENTATION('',(#659),
#1131);
#1131=(
GEOMETRIC_REPRESENTATION_CONTEXT(3)
GLOBAL_UNCERTAINTY_ASSIGNED_CONTEXT((#1132))
GLOBAL_UNIT_ASSIGNED_CONTEXT((#1135,#1134,#1133))
REPRESENTATION_CONTEXT('cellFunnel','TOP_LEVEL_ASSEMBLY_PART')
);
#1132=UNCERTAINTY_MEASURE_WITH_UNIT(LENGTH_MEASURE(1.E-8),#1135,
'DISTANCE_ACCURACY_VALUE','Maximum Tolerance applied to model');
#1133=(
NAMED_UNIT(*)
SI_UNIT($,.STERADIAN.)
SOLID_ANGLE_UNIT()
);
#1134=(
NAMED_UNIT(*)
PLANE_ANGLE_UNIT()
SI_UNIT($,.RADIAN.)
);
#1135=(
LENGTH_UNIT()
NAMED_UNIT(*)
SI_UNIT($,.METRE.)
);
#1136=PRODUCT_DEFINITION_SHAPE('','',#1137);
#1137=PRODUCT_DEFINITION('','',#1139,#1138);
#1138=PRODUCT_DEFINITION_CONTEXT('',#1145,'design');
#1139=PRODUCT_DEFINITION_FORMATION_WITH_SPECIFIED_SOURCE('','',#1141,
 .NOT_KNOWN.);
#1140=PRODUCT_RELATED_PRODUCT_CATEGORY('','',(#1141));
#1141=PRODUCT('cellFunnel','cellFunnel','cellFunnel',(#1143));
#1142=PRODUCT_CATEGORY('','');
#1143=PRODUCT_CONTEXT('',#1145,'mechanical');
#1144=APPLICATION_PROTOCOL_DEFINITION('international standard',
'ap242_managed_model_based_3d_engineering',2020,#1145);
#1145=APPLICATION_CONTEXT('managed model based 3d engineering');
ENDSEC;
END-ISO-10303-21;
