ISO-10303-21;
HEADER;
/* Generated by software containing ST-Developer
 * from STEP Tools, Inc. (www.steptools.com) 
 */
/* OPTION: using custom renumber hook */

FILE_DESCRIPTION(
/* description */ ('STEP AP242 Edition 2',
'CAx-IF Rec.Pracs.---Representation and Presentation of Product Manufa
cturing Information (PMI)---4.0---2014-10-13',
'CAx-IF Rec.Pracs.---3D Tessellated Geometry---0.4---2014-09-14','2;1',
'CAx-IF Rec.Pracs.---User Defined Attributes---1.5---2016-08-15'),
/* implementation_level */ '2;1');

FILE_NAME(
/* name */ 'Gripper Fingers - gripperFinger',
/* time_stamp */ '2026-05-28T13:56:06Z',
/* author */ (''),
/* organization */ (''),
/* preprocessor_version */ 'ST-DEVELOPER v20',
/* originating_system */ 'ONSHAPE BY PTC INC, 1.215',
/* authorisation */ '  ');

FILE_SCHEMA (('AP242_MANAGED_MODEL_BASED_3D_ENGINEERING_MIM_LF { 1 0 10303 442 3 1 4 }'));
ENDSEC;

DATA;
#10=SHAPE_REPRESENTATION_RELATIONSHIP('','',#320,#11);
#11=ADVANCED_BREP_SHAPE_REPRESENTATION('',(#318),#520);
#12=CYLINDRICAL_SURFACE('',#339,0.001375);
#13=CYLINDRICAL_SURFACE('',#343,0.00225);
#14=CYLINDRICAL_SURFACE('',#344,0.001375);
#15=CYLINDRICAL_SURFACE('',#348,0.00225);
#16=CIRCLE('',#327,0.00225);
#17=CIRCLE('',#328,0.00225);
#18=CIRCLE('',#334,0.001375);
#19=CIRCLE('',#335,0.001375);
#20=CIRCLE('',#337,0.00225);
#21=CIRCLE('',#338,0.00225);
#22=CIRCLE('',#340,0.001375);
#23=CIRCLE('',#342,0.00225);
#24=CIRCLE('',#345,0.001375);
#25=CIRCLE('',#347,0.00225);
#26=ORIENTED_EDGE('',*,*,#104,.F.);
#27=ORIENTED_EDGE('',*,*,#105,.T.);
#28=ORIENTED_EDGE('',*,*,#106,.T.);
#29=ORIENTED_EDGE('',*,*,#107,.T.);
#30=ORIENTED_EDGE('',*,*,#108,.T.);
#31=ORIENTED_EDGE('',*,*,#109,.T.);
#32=ORIENTED_EDGE('',*,*,#110,.F.);
#33=ORIENTED_EDGE('',*,*,#111,.F.);
#34=ORIENTED_EDGE('',*,*,#112,.F.);
#35=ORIENTED_EDGE('',*,*,#113,.T.);
#36=ORIENTED_EDGE('',*,*,#114,.T.);
#37=ORIENTED_EDGE('',*,*,#111,.T.);
#38=ORIENTED_EDGE('',*,*,#115,.T.);
#39=ORIENTED_EDGE('',*,*,#116,.T.);
#40=ORIENTED_EDGE('',*,*,#117,.F.);
#41=ORIENTED_EDGE('',*,*,#118,.F.);
#42=ORIENTED_EDGE('',*,*,#110,.T.);
#43=ORIENTED_EDGE('',*,*,#119,.T.);
#44=ORIENTED_EDGE('',*,*,#104,.T.);
#45=ORIENTED_EDGE('',*,*,#120,.F.);
#46=ORIENTED_EDGE('',*,*,#121,.T.);
#47=ORIENTED_EDGE('',*,*,#122,.T.);
#48=ORIENTED_EDGE('',*,*,#117,.T.);
#49=ORIENTED_EDGE('',*,*,#123,.T.);
#50=ORIENTED_EDGE('',*,*,#112,.T.);
#51=ORIENTED_EDGE('',*,*,#124,.F.);
#52=ORIENTED_EDGE('',*,*,#125,.F.);
#53=ORIENTED_EDGE('',*,*,#120,.T.);
#54=ORIENTED_EDGE('',*,*,#107,.F.);
#55=ORIENTED_EDGE('',*,*,#126,.T.);
#56=ORIENTED_EDGE('',*,*,#127,.T.);
#57=ORIENTED_EDGE('',*,*,#128,.T.);
#58=ORIENTED_EDGE('',*,*,#129,.F.);
#59=ORIENTED_EDGE('',*,*,#121,.F.);
#60=ORIENTED_EDGE('',*,*,#125,.T.);
#61=ORIENTED_EDGE('',*,*,#130,.T.);
#62=ORIENTED_EDGE('',*,*,#131,.F.);
#63=ORIENTED_EDGE('',*,*,#132,.F.);
#64=ORIENTED_EDGE('',*,*,#118,.T.);
#65=ORIENTED_EDGE('',*,*,#122,.F.);
#66=ORIENTED_EDGE('',*,*,#129,.T.);
#67=ORIENTED_EDGE('',*,*,#133,.F.);
#68=ORIENTED_EDGE('',*,*,#127,.F.);
#69=ORIENTED_EDGE('',*,*,#134,.T.);
#70=ORIENTED_EDGE('',*,*,#131,.T.);
#71=ORIENTED_EDGE('',*,*,#135,.F.);
#72=ORIENTED_EDGE('',*,*,#136,.F.);
#73=ORIENTED_EDGE('',*,*,#124,.T.);
#74=ORIENTED_EDGE('',*,*,#133,.T.);
#75=ORIENTED_EDGE('',*,*,#130,.F.);
#76=ORIENTED_EDGE('',*,*,#128,.F.);
#77=ORIENTED_EDGE('',*,*,#106,.F.);
#78=ORIENTED_EDGE('',*,*,#137,.T.);
#79=ORIENTED_EDGE('',*,*,#108,.F.);
#80=ORIENTED_EDGE('',*,*,#114,.F.);
#81=ORIENTED_EDGE('',*,*,#138,.T.);
#82=ORIENTED_EDGE('',*,*,#115,.F.);
#83=ORIENTED_EDGE('',*,*,#132,.T.);
#84=ORIENTED_EDGE('',*,*,#134,.F.);
#85=ORIENTED_EDGE('',*,*,#126,.F.);
#86=ORIENTED_EDGE('',*,*,#139,.F.);
#87=ORIENTED_EDGE('',*,*,#136,.T.);
#88=ORIENTED_EDGE('',*,*,#139,.T.);
#89=ORIENTED_EDGE('',*,*,#140,.F.);
#90=ORIENTED_EDGE('',*,*,#140,.T.);
#91=ORIENTED_EDGE('',*,*,#123,.F.);
#92=ORIENTED_EDGE('',*,*,#116,.F.);
#93=ORIENTED_EDGE('',*,*,#138,.F.);
#94=ORIENTED_EDGE('',*,*,#113,.F.);
#95=ORIENTED_EDGE('',*,*,#141,.F.);
#96=ORIENTED_EDGE('',*,*,#135,.T.);
#97=ORIENTED_EDGE('',*,*,#141,.T.);
#98=ORIENTED_EDGE('',*,*,#142,.F.);
#99=ORIENTED_EDGE('',*,*,#142,.T.);
#100=ORIENTED_EDGE('',*,*,#119,.F.);
#101=ORIENTED_EDGE('',*,*,#109,.F.);
#102=ORIENTED_EDGE('',*,*,#137,.F.);
#103=ORIENTED_EDGE('',*,*,#105,.F.);
#104=EDGE_CURVE('',#143,#144,#171,.T.);
#105=EDGE_CURVE('',#143,#145,#172,.F.);
#106=EDGE_CURVE('',#145,#146,#173,.T.);
#107=EDGE_CURVE('',#146,#144,#174,.T.);
#108=EDGE_CURVE('',#147,#148,#175,.T.);
#109=EDGE_CURVE('',#148,#149,#176,.T.);
#110=EDGE_CURVE('',#150,#149,#177,.T.);
#111=EDGE_CURVE('',#147,#150,#178,.T.);
#112=EDGE_CURVE('',#151,#150,#179,.T.);
#113=EDGE_CURVE('',#151,#152,#180,.F.);
#114=EDGE_CURVE('',#152,#147,#181,.T.);
#115=EDGE_CURVE('',#153,#154,#182,.T.);
#116=EDGE_CURVE('',#154,#155,#183,.T.);
#117=EDGE_CURVE('',#156,#155,#184,.T.);
#118=EDGE_CURVE('',#153,#156,#185,.T.);
#119=EDGE_CURVE('',#149,#143,#16,.F.);
#120=EDGE_CURVE('',#157,#144,#186,.T.);
#121=EDGE_CURVE('',#157,#158,#187,.T.);
#122=EDGE_CURVE('',#158,#156,#188,.T.);
#123=EDGE_CURVE('',#155,#151,#17,.F.);
#124=EDGE_CURVE('',#159,#160,#189,.T.);
#125=EDGE_CURVE('',#157,#159,#190,.T.);
#126=EDGE_CURVE('',#146,#161,#191,.T.);
#127=EDGE_CURVE('',#161,#160,#192,.T.);
#128=EDGE_CURVE('',#159,#162,#193,.T.);
#129=EDGE_CURVE('',#158,#162,#194,.T.);
#130=EDGE_CURVE('',#162,#163,#195,.T.);
#131=EDGE_CURVE('',#164,#163,#196,.T.);
#132=EDGE_CURVE('',#153,#164,#197,.T.);
#133=EDGE_CURVE('',#160,#163,#198,.T.);
#134=EDGE_CURVE('',#161,#164,#199,.T.);
#135=EDGE_CURVE('',#165,#165,#18,.F.);
#136=EDGE_CURVE('',#166,#166,#19,.F.);
#137=EDGE_CURVE('',#145,#148,#20,.T.);
#138=EDGE_CURVE('',#152,#154,#21,.T.);
#139=EDGE_CURVE('',#167,#167,#22,.T.);
#140=EDGE_CURVE('',#168,#168,#23,.T.);
#141=EDGE_CURVE('',#169,#169,#24,.T.);
#142=EDGE_CURVE('',#170,#170,#25,.T.);
#143=VERTEX_POINT('',#437);
#144=VERTEX_POINT('',#438);
#145=VERTEX_POINT('',#440);
#146=VERTEX_POINT('',#442);
#147=VERTEX_POINT('',#446);
#148=VERTEX_POINT('',#447);
#149=VERTEX_POINT('',#449);
#150=VERTEX_POINT('',#451);
#151=VERTEX_POINT('',#455);
#152=VERTEX_POINT('',#457);
#153=VERTEX_POINT('',#461);
#154=VERTEX_POINT('',#462);
#155=VERTEX_POINT('',#464);
#156=VERTEX_POINT('',#466);
#157=VERTEX_POINT('',#471);
#158=VERTEX_POINT('',#473);
#159=VERTEX_POINT('',#478);
#160=VERTEX_POINT('',#479);
#161=VERTEX_POINT('',#482);
#162=VERTEX_POINT('',#486);
#163=VERTEX_POINT('',#490);
#164=VERTEX_POINT('',#492);
#165=VERTEX_POINT('',#499);
#166=VERTEX_POINT('',#501);
#167=VERTEX_POINT('',#507);
#168=VERTEX_POINT('',#510);
#169=VERTEX_POINT('',#514);
#170=VERTEX_POINT('',#517);
#171=LINE('',#436,#200);
#172=LINE('',#439,#201);
#173=LINE('',#441,#202);
#174=LINE('',#443,#203);
#175=LINE('',#445,#204);
#176=LINE('',#448,#205);
#177=LINE('',#450,#206);
#178=LINE('',#452,#207);
#179=LINE('',#454,#208);
#180=LINE('',#456,#209);
#181=LINE('',#458,#210);
#182=LINE('',#460,#211);
#183=LINE('',#463,#212);
#184=LINE('',#465,#213);
#185=LINE('',#467,#214);
#186=LINE('',#470,#215);
#187=LINE('',#472,#216);
#188=LINE('',#474,#217);
#189=LINE('',#477,#218);
#190=LINE('',#480,#219);
#191=LINE('',#481,#220);
#192=LINE('',#483,#221);
#193=LINE('',#485,#222);
#194=LINE('',#487,#223);
#195=LINE('',#489,#224);
#196=LINE('',#491,#225);
#197=LINE('',#493,#226);
#198=LINE('',#495,#227);
#199=LINE('',#496,#228);
#200=VECTOR('',#353,1.);
#201=VECTOR('',#354,1.);
#202=VECTOR('',#355,1.);
#203=VECTOR('',#356,1.);
#204=VECTOR('',#359,1.);
#205=VECTOR('',#360,1.);
#206=VECTOR('',#361,1.);
#207=VECTOR('',#362,1.);
#208=VECTOR('',#365,1.);
#209=VECTOR('',#366,1.);
#210=VECTOR('',#367,1.);
#211=VECTOR('',#370,1.);
#212=VECTOR('',#371,1.);
#213=VECTOR('',#372,1.);
#214=VECTOR('',#373,1.);
#215=VECTOR('',#378,1.);
#216=VECTOR('',#379,1.);
#217=VECTOR('',#380,1.);
#218=VECTOR('',#385,1.);
#219=VECTOR('',#386,1.);
#220=VECTOR('',#387,1.);
#221=VECTOR('',#388,1.);
#222=VECTOR('',#391,1.);
#223=VECTOR('',#392,1.);
#224=VECTOR('',#395,1.);
#225=VECTOR('',#396,1.);
#226=VECTOR('',#397,1.);
#227=VECTOR('',#400,1.);
#228=VECTOR('',#401,1.);
#229=EDGE_LOOP('',(#26,#27,#28,#29));
#230=EDGE_LOOP('',(#30,#31,#32,#33));
#231=EDGE_LOOP('',(#34,#35,#36,#37));
#232=EDGE_LOOP('',(#38,#39,#40,#41));
#233=EDGE_LOOP('',(#42,#43,#44,#45,#46,#47,#48,#49,#50));
#234=EDGE_LOOP('',(#51,#52,#53,#54,#55,#56));
#235=EDGE_LOOP('',(#57,#58,#59,#60));
#236=EDGE_LOOP('',(#61,#62,#63,#64,#65,#66));
#237=EDGE_LOOP('',(#67,#68,#69,#70));
#238=EDGE_LOOP('',(#71));
#239=EDGE_LOOP('',(#72));
#240=EDGE_LOOP('',(#73,#74,#75,#76));
#241=EDGE_LOOP('',(#77,#78,#79,#80,#81,#82,#83,#84,#85));
#242=EDGE_LOOP('',(#86));
#243=EDGE_LOOP('',(#87));
#244=EDGE_LOOP('',(#88));
#245=EDGE_LOOP('',(#89));
#246=EDGE_LOOP('',(#90));
#247=EDGE_LOOP('',(#91,#92,#93,#94));
#248=EDGE_LOOP('',(#95));
#249=EDGE_LOOP('',(#96));
#250=EDGE_LOOP('',(#97));
#251=EDGE_LOOP('',(#98));
#252=EDGE_LOOP('',(#99));
#253=EDGE_LOOP('',(#100,#101,#102,#103));
#254=FACE_BOUND('',#229,.T.);
#255=FACE_BOUND('',#230,.T.);
#256=FACE_BOUND('',#231,.T.);
#257=FACE_BOUND('',#232,.T.);
#258=FACE_BOUND('',#233,.T.);
#259=FACE_BOUND('',#234,.T.);
#260=FACE_BOUND('',#235,.T.);
#261=FACE_BOUND('',#236,.T.);
#262=FACE_BOUND('',#237,.T.);
#263=FACE_BOUND('',#238,.T.);
#264=FACE_BOUND('',#239,.T.);
#265=FACE_BOUND('',#240,.T.);
#266=FACE_BOUND('',#241,.T.);
#267=FACE_BOUND('',#242,.T.);
#268=FACE_BOUND('',#243,.T.);
#269=FACE_BOUND('',#244,.T.);
#270=FACE_BOUND('',#245,.T.);
#271=FACE_BOUND('',#246,.T.);
#272=FACE_BOUND('',#247,.T.);
#273=FACE_BOUND('',#248,.T.);
#274=FACE_BOUND('',#249,.T.);
#275=FACE_BOUND('',#250,.T.);
#276=FACE_BOUND('',#251,.T.);
#277=FACE_BOUND('',#252,.T.);
#278=FACE_BOUND('',#253,.T.);
#279=PLANE('',#322);
#280=PLANE('',#323);
#281=PLANE('',#324);
#282=PLANE('',#325);
#283=PLANE('',#326);
#284=PLANE('',#329);
#285=PLANE('',#330);
#286=PLANE('',#331);
#287=PLANE('',#332);
#288=PLANE('',#333);
#289=PLANE('',#336);
#290=PLANE('',#341);
#291=PLANE('',#346);
#292=ADVANCED_FACE('',(#254),#279,.T.);
#293=ADVANCED_FACE('',(#255),#280,.T.);
#294=ADVANCED_FACE('',(#256),#281,.T.);
#295=ADVANCED_FACE('',(#257),#282,.T.);
#296=ADVANCED_FACE('',(#258),#283,.T.);
#297=ADVANCED_FACE('',(#259),#284,.T.);
#298=ADVANCED_FACE('',(#260),#285,.F.);
#299=ADVANCED_FACE('',(#261),#286,.F.);
#300=ADVANCED_FACE('',(#262),#287,.T.);
#301=ADVANCED_FACE('',(#263,#264,#265),#288,.F.);
#302=ADVANCED_FACE('',(#266),#289,.T.);
#303=ADVANCED_FACE('',(#267,#268),#12,.F.);
#304=ADVANCED_FACE('',(#269,#270),#290,.T.);
#305=ADVANCED_FACE('',(#271,#272),#13,.F.);
#306=ADVANCED_FACE('',(#273,#274),#14,.F.);
#307=ADVANCED_FACE('',(#275,#276),#291,.T.);
#308=ADVANCED_FACE('',(#277,#278),#15,.F.);
#309=CLOSED_SHELL('',(#292,#293,#294,#295,#296,#297,#298,#299,#300,#301,
#302,#303,#304,#305,#306,#307,#308));
#310=STYLED_ITEM('',(#311),#318);
#311=PRESENTATION_STYLE_ASSIGNMENT((#312));
#312=SURFACE_STYLE_USAGE(.BOTH.,#313);
#313=SURFACE_SIDE_STYLE('',(#314));
#314=SURFACE_STYLE_FILL_AREA(#315);
#315=FILL_AREA_STYLE('',(#316));
#316=FILL_AREA_STYLE_COLOUR('',#317);
#317=COLOUR_RGB('',0.701960784313725,0.701960784313725,0.701960784313725);
#318=MANIFOLD_SOLID_BREP('gripperFinger',#309);
#319=SHAPE_DEFINITION_REPRESENTATION(#525,#320);
#320=SHAPE_REPRESENTATION('gripperFinger',(#321),#520);
#321=AXIS2_PLACEMENT_3D('',#434,#349,#350);
#322=AXIS2_PLACEMENT_3D('',#435,#351,#352);
#323=AXIS2_PLACEMENT_3D('',#444,#357,#358);
#324=AXIS2_PLACEMENT_3D('',#453,#363,#364);
#325=AXIS2_PLACEMENT_3D('',#459,#368,#369);
#326=AXIS2_PLACEMENT_3D('',#468,#374,#375);
#327=AXIS2_PLACEMENT_3D('',#469,#376,#377);
#328=AXIS2_PLACEMENT_3D('',#475,#381,#382);
#329=AXIS2_PLACEMENT_3D('',#476,#383,#384);
#330=AXIS2_PLACEMENT_3D('',#484,#389,#390);
#331=AXIS2_PLACEMENT_3D('',#488,#393,#394);
#332=AXIS2_PLACEMENT_3D('',#494,#398,#399);
#333=AXIS2_PLACEMENT_3D('',#497,#402,#403);
#334=AXIS2_PLACEMENT_3D('',#498,#404,#405);
#335=AXIS2_PLACEMENT_3D('',#500,#406,#407);
#336=AXIS2_PLACEMENT_3D('',#502,#408,#409);
#337=AXIS2_PLACEMENT_3D('',#503,#410,#411);
#338=AXIS2_PLACEMENT_3D('',#504,#412,#413);
#339=AXIS2_PLACEMENT_3D('',#505,#414,#415);
#340=AXIS2_PLACEMENT_3D('',#506,#416,#417);
#341=AXIS2_PLACEMENT_3D('',#508,#418,#419);
#342=AXIS2_PLACEMENT_3D('',#509,#420,#421);
#343=AXIS2_PLACEMENT_3D('',#511,#422,#423);
#344=AXIS2_PLACEMENT_3D('',#512,#424,#425);
#345=AXIS2_PLACEMENT_3D('',#513,#426,#427);
#346=AXIS2_PLACEMENT_3D('',#515,#428,#429);
#347=AXIS2_PLACEMENT_3D('',#516,#430,#431);
#348=AXIS2_PLACEMENT_3D('',#518,#432,#433);
#349=DIRECTION('',(0.,0.,1.));
#350=DIRECTION('',(1.,0.,0.));
#351=DIRECTION('',(0.928476690885259,0.,-0.371390676354103));
#352=DIRECTION('',(-0.371390676354103,0.,-0.92847669088526));
#353=DIRECTION('',(0.371390676354103,0.,0.928476690885259));
#354=DIRECTION('',(0.,-1.,0.));
#355=DIRECTION('',(0.371390676354103,0.,0.928476690885259));
#356=DIRECTION('',(0.,-1.,0.));
#357=DIRECTION('',(0.928476690885259,0.,-0.371390676354103));
#358=DIRECTION('',(-0.371390676354103,0.,-0.92847669088526));
#359=DIRECTION('',(0.371390676354103,0.,0.928476690885259));
#360=DIRECTION('',(0.,-1.,0.));
#361=DIRECTION('',(0.371390676354103,0.,0.928476690885259));
#362=DIRECTION('',(0.,-1.,0.));
#363=DIRECTION('',(0.92847669088526,0.,0.371390676354103));
#364=DIRECTION('',(0.371390676354103,0.,-0.92847669088526));
#365=DIRECTION('',(-0.371390676354103,0.,0.92847669088526));
#366=DIRECTION('',(0.,-1.,0.));
#367=DIRECTION('',(-0.371390676354103,0.,0.92847669088526));
#368=DIRECTION('',(0.92847669088526,0.,0.371390676354103));
#369=DIRECTION('',(0.371390676354103,0.,-0.92847669088526));
#370=DIRECTION('',(-0.371390676354103,0.,0.92847669088526));
#371=DIRECTION('',(0.,-1.,0.));
#372=DIRECTION('',(-0.371390676354103,0.,0.92847669088526));
#373=DIRECTION('',(0.,-1.,0.));
#374=DIRECTION('',(0.,1.,0.));
#375=DIRECTION('',(1.,0.,0.));
#376=DIRECTION('',(0.,1.,0.));
#377=DIRECTION('',(1.,0.,0.));
#378=DIRECTION('',(-1.,0.,2.23835287222814E-16));
#379=DIRECTION('',(8.67361737988404E-17,0.,-1.));
#380=DIRECTION('',(-1.,0.,2.23835287222814E-16));
#381=DIRECTION('',(0.,1.,0.));
#382=DIRECTION('',(1.,0.,0.));
#383=DIRECTION('',(2.23835287222814E-16,0.,1.));
#384=DIRECTION('',(1.,0.,-2.23835287222814E-16));
#385=DIRECTION('',(-1.,0.,2.23835287222814E-16));
#386=DIRECTION('',(0.,-1.,0.));
#387=DIRECTION('',(-1.,0.,2.23835287222814E-16));
#388=DIRECTION('',(0.,-1.,0.));
#389=DIRECTION('',(-1.,0.,-8.67361737988404E-17));
#390=DIRECTION('',(-8.67361737988404E-17,0.,1.));
#391=DIRECTION('',(8.67361737988404E-17,0.,-1.));
#392=DIRECTION('',(0.,-1.,0.));
#393=DIRECTION('',(2.23835287222814E-16,0.,1.));
#394=DIRECTION('',(1.,0.,-2.23835287222814E-16));
#395=DIRECTION('',(-1.,0.,2.23835287222814E-16));
#396=DIRECTION('',(0.,-1.,0.));
#397=DIRECTION('',(-1.,0.,2.23835287222814E-16));
#398=DIRECTION('',(-1.,0.,-8.67361737988404E-17));
#399=DIRECTION('',(-8.67361737988404E-17,0.,1.));
#400=DIRECTION('',(8.67361737988404E-17,0.,-1.));
#401=DIRECTION('',(8.67361737988404E-17,0.,-1.));
#402=DIRECTION('',(0.,1.,0.));
#403=DIRECTION('',(1.,0.,0.));
#404=DIRECTION('',(0.,1.,0.));
#405=DIRECTION('',(1.,0.,0.));
#406=DIRECTION('',(0.,1.,0.));
#407=DIRECTION('',(1.,0.,0.));
#408=DIRECTION('',(0.,1.,0.));
#409=DIRECTION('',(1.,0.,0.));
#410=DIRECTION('',(0.,-1.,0.));
#411=DIRECTION('',(-1.,0.,0.));
#412=DIRECTION('',(0.,-1.,0.));
#413=DIRECTION('',(-1.,0.,0.));
#414=DIRECTION('',(0.,-1.,0.));
#415=DIRECTION('',(-1.,0.,0.));
#416=DIRECTION('',(0.,-1.,0.));
#417=DIRECTION('',(-1.,0.,0.));
#418=DIRECTION('',(0.,1.,0.));
#419=DIRECTION('',(1.,0.,0.));
#420=DIRECTION('',(0.,-1.,0.));
#421=DIRECTION('',(-1.,0.,0.));
#422=DIRECTION('',(0.,-1.,0.));
#423=DIRECTION('',(-1.,0.,0.));
#424=DIRECTION('',(0.,-1.,0.));
#425=DIRECTION('',(-1.,0.,0.));
#426=DIRECTION('',(0.,-1.,0.));
#427=DIRECTION('',(-1.,0.,0.));
#428=DIRECTION('',(0.,1.,0.));
#429=DIRECTION('',(1.,0.,0.));
#430=DIRECTION('',(0.,-1.,0.));
#431=DIRECTION('',(-1.,0.,0.));
#432=DIRECTION('',(0.,-1.,0.));
#433=DIRECTION('',(-1.,0.,0.));
#434=CARTESIAN_POINT('',(0.,0.,0.));
#435=CARTESIAN_POINT('',(-0.00275,0.033,0.005));
#436=CARTESIAN_POINT('',(-0.00275,0.005,0.005));
#437=CARTESIAN_POINT('',(-0.00182185931782415,0.005,0.00732035170543962));
#438=CARTESIAN_POINT('',(-0.00075,0.005,0.01));
#439=CARTESIAN_POINT('',(-0.00182185931782415,0.005,0.00732035170543962));
#440=CARTESIAN_POINT('',(-0.00182185931782415,0.033,0.00732035170543962));
#441=CARTESIAN_POINT('',(-0.00275,0.033,0.005));
#442=CARTESIAN_POINT('',(-0.00075,0.033,0.01));
#443=CARTESIAN_POINT('',(-0.00075,0.033,0.01));
#444=CARTESIAN_POINT('',(-0.00275,0.033,0.005));
#445=CARTESIAN_POINT('',(-0.00275,0.033,0.005));
#446=CARTESIAN_POINT('',(-0.00475,0.033,4.33680868994202E-18));
#447=CARTESIAN_POINT('',(-0.00222986482010688,0.033,0.0063003379497328));
#448=CARTESIAN_POINT('',(-0.00222986482010688,0.005,0.0063003379497328));
#449=CARTESIAN_POINT('',(-0.00222986482010688,0.005,0.0063003379497328));
#450=CARTESIAN_POINT('',(-0.00275,0.005,0.005));
#451=CARTESIAN_POINT('',(-0.00475,0.005,4.33680868994202E-18));
#452=CARTESIAN_POINT('',(-0.00475,0.033,4.33680868994202E-18));
#453=CARTESIAN_POINT('',(-0.00275,0.033,-0.005));
#454=CARTESIAN_POINT('',(-0.00275,0.005,-0.005));
#455=CARTESIAN_POINT('',(-0.00222986482010688,0.005,-0.00630033794973281));
#456=CARTESIAN_POINT('',(-0.00222986482010688,0.005,-0.00630033794973281));
#457=CARTESIAN_POINT('',(-0.00222986482010688,0.033,-0.00630033794973281));
#458=CARTESIAN_POINT('',(-0.00275,0.033,-0.005));
#459=CARTESIAN_POINT('',(-0.00275,0.033,-0.005));
#460=CARTESIAN_POINT('',(-0.00275,0.033,-0.005));
#461=CARTESIAN_POINT('',(-0.00075,0.033,-0.01));
#462=CARTESIAN_POINT('',(-0.00182185931782416,0.033,-0.00732035170543961));
#463=CARTESIAN_POINT('',(-0.00182185931782416,0.005,-0.00732035170543961));
#464=CARTESIAN_POINT('',(-0.00182185931782416,0.005,-0.00732035170543961));
#465=CARTESIAN_POINT('',(-0.00275,0.005,-0.005));
#466=CARTESIAN_POINT('',(-0.00075,0.005,-0.01));
#467=CARTESIAN_POINT('',(-0.00075,0.033,-0.01));
#468=CARTESIAN_POINT('',(0.,0.005,0.));
#469=CARTESIAN_POINT('',(0.,0.005,0.006));
#470=CARTESIAN_POINT('',(-1.7347234759768E-18,0.005,0.01));
#471=CARTESIAN_POINT('',(0.00775,0.005,0.01));
#472=CARTESIAN_POINT('',(0.00775,0.005,-1.7347234759768E-18));
#473=CARTESIAN_POINT('',(0.00775,0.005,-0.01));
#474=CARTESIAN_POINT('',(0.,0.005,-0.01));
#475=CARTESIAN_POINT('',(0.,0.005,-0.006));
#476=CARTESIAN_POINT('',(-1.7347234759768E-18,0.005,0.01));
#477=CARTESIAN_POINT('',(-1.7347234759768E-18,0.,0.01));
#478=CARTESIAN_POINT('',(0.00775,0.,0.01));
#479=CARTESIAN_POINT('',(-0.00775,0.,0.01));
#480=CARTESIAN_POINT('',(0.00775,0.005,0.01));
#481=CARTESIAN_POINT('',(-1.7347234759768E-18,0.033,0.01));
#482=CARTESIAN_POINT('',(-0.00775,0.033,0.01));
#483=CARTESIAN_POINT('',(-0.00775,0.005,0.01));
#484=CARTESIAN_POINT('',(0.00775,0.005,-1.7347234759768E-18));
#485=CARTESIAN_POINT('',(0.00775,0.,-1.7347234759768E-18));
#486=CARTESIAN_POINT('',(0.00775,0.,-0.01));
#487=CARTESIAN_POINT('',(0.00775,0.005,-0.01));
#488=CARTESIAN_POINT('',(0.,0.005,-0.01));
#489=CARTESIAN_POINT('',(0.,0.,-0.01));
#490=CARTESIAN_POINT('',(-0.00775,0.,-0.01));
#491=CARTESIAN_POINT('',(-0.00775,0.005,-0.01));
#492=CARTESIAN_POINT('',(-0.00775,0.033,-0.01));
#493=CARTESIAN_POINT('',(0.,0.033,-0.01));
#494=CARTESIAN_POINT('',(-0.00775,0.005,1.7347234759768E-18));
#495=CARTESIAN_POINT('',(-0.00775,0.,1.7347234759768E-18));
#496=CARTESIAN_POINT('',(-0.00775,0.033,1.7347234759768E-18));
#497=CARTESIAN_POINT('',(0.,0.,0.));
#498=CARTESIAN_POINT('',(0.,0.,0.006));
#499=CARTESIAN_POINT('',(0.001375,0.,0.006));
#500=CARTESIAN_POINT('',(0.,0.,-0.006));
#501=CARTESIAN_POINT('',(0.001375,0.,-0.006));
#502=CARTESIAN_POINT('',(0.0109746812368327,0.033,0.));
#503=CARTESIAN_POINT('',(0.,0.033,0.006));
#504=CARTESIAN_POINT('',(0.,0.033,-0.006));
#505=CARTESIAN_POINT('',(0.,0.005,-0.006));
#506=CARTESIAN_POINT('',(0.,0.0025,-0.006));
#507=CARTESIAN_POINT('',(-0.001375,0.0025,-0.006));
#508=CARTESIAN_POINT('',(0.00225,0.0025,-0.006));
#509=CARTESIAN_POINT('',(0.,0.0025,-0.006));
#510=CARTESIAN_POINT('',(-0.00225,0.0025,-0.006));
#511=CARTESIAN_POINT('',(0.,0.005,-0.006));
#512=CARTESIAN_POINT('',(0.,0.005,0.006));
#513=CARTESIAN_POINT('',(0.,0.0025,0.006));
#514=CARTESIAN_POINT('',(-0.001375,0.0025,0.006));
#515=CARTESIAN_POINT('',(0.00225,0.0025,0.006));
#516=CARTESIAN_POINT('',(0.,0.0025,0.006));
#517=CARTESIAN_POINT('',(-0.00225,0.0025,0.006));
#518=CARTESIAN_POINT('',(0.,0.005,0.006));
#519=MECHANICAL_DESIGN_GEOMETRIC_PRESENTATION_REPRESENTATION('',(#310),
#520);
#520=(
GEOMETRIC_REPRESENTATION_CONTEXT(3)
GLOBAL_UNCERTAINTY_ASSIGNED_CONTEXT((#521))
GLOBAL_UNIT_ASSIGNED_CONTEXT((#524,#523,#522))
REPRESENTATION_CONTEXT('gripperFinger','TOP_LEVEL_ASSEMBLY_PART')
);
#521=UNCERTAINTY_MEASURE_WITH_UNIT(LENGTH_MEASURE(1.E-8),#524,
'DISTANCE_ACCURACY_VALUE','Maximum Tolerance applied to model');
#522=(
NAMED_UNIT(*)
SI_UNIT($,.STERADIAN.)
SOLID_ANGLE_UNIT()
);
#523=(
NAMED_UNIT(*)
PLANE_ANGLE_UNIT()
SI_UNIT($,.RADIAN.)
);
#524=(
LENGTH_UNIT()
NAMED_UNIT(*)
SI_UNIT($,.METRE.)
);
#525=PRODUCT_DEFINITION_SHAPE('','',#526);
#526=PRODUCT_DEFINITION('','',#528,#527);
#527=PRODUCT_DEFINITION_CONTEXT('',#534,'design');
#528=PRODUCT_DEFINITION_FORMATION_WITH_SPECIFIED_SOURCE('','',#530,
 .NOT_KNOWN.);
#529=PRODUCT_RELATED_PRODUCT_CATEGORY('','',(#530));
#530=PRODUCT('gripperFinger','gripperFinger','gripperFinger',(#532));
#531=PRODUCT_CATEGORY('','');
#532=PRODUCT_CONTEXT('',#534,'mechanical');
#533=APPLICATION_PROTOCOL_DEFINITION('international standard',
'ap242_managed_model_based_3d_engineering',2020,#534);
#534=APPLICATION_CONTEXT('managed model based 3d engineering');
ENDSEC;
END-ISO-10303-21;
