ISO-10303-21;
HEADER;
FILE_DESCRIPTION (( 'STEP AP214' ),
    '1' );
FILE_NAME ('Palet_base.STEP',
    '2026-05-27T19:21:21',
    ( '' ),
    ( '' ),
    'SwSTEP 2.0',
    'SolidWorks 2025',
    '' );
FILE_SCHEMA (( 'AUTOMOTIVE_DESIGN' ));
ENDSEC;

DATA;
#1 = ORIENTED_EDGE ( 'NONE', *, *, #622, .F. ) ;
#2 = CARTESIAN_POINT ( 'NONE',  ( -20.00000000000000000, 5.000000000000000000, -20.00000000000000000 ) ) ;
#3 = CARTESIAN_POINT ( 'NONE',  ( 19.99999999999999289, 0.000000000000000000, -36.50000000000001421 ) ) ;
#4 = DIRECTION ( 'NONE',  ( 1.000000000000000000, 0.000000000000000000, -0.000000000000000000 ) ) ;
#5 = DIRECTION ( 'NONE',  ( 0.000000000000000000, 1.000000000000000000, -0.000000000000000000 ) ) ;
#6 = EDGE_LOOP ( 'NONE', ( #999, #117, #474, #211 ) ) ;
#7 = CYLINDRICAL_SURFACE ( 'NONE', #457, 2.000000000000001776 ) ;
#8 = CARTESIAN_POINT ( 'NONE',  ( -45.00000000000000000, -3.000000000000000000, 45.00000000000000000 ) ) ;
#9 = CYLINDRICAL_SURFACE ( 'NONE', #291, 2.999999999999997780 ) ;
#10 = LINE ( 'NONE', #699, #1054 ) ;
#11 = AXIS2_PLACEMENT_3D ( 'NONE', #604, #684, #431 ) ;
#12 = VERTEX_POINT ( 'NONE', #319 ) ;
#13 = DIRECTION ( 'NONE',  ( 0.1874275599918959201, 0.9642312064598242971, -0.1874275599918959201 ) ) ;
#14 = SPHERICAL_SURFACE ( 'NONE', #1037, 2.000000000000000000 ) ;
#15 = ORIENTED_EDGE ( 'NONE', *, *, #215, .T. ) ;
#16 = AXIS2_PLACEMENT_3D ( 'NONE', #710, #318, #903 ) ;
#17 = LINE ( 'NONE', #378, #119 ) ;
#18 = EDGE_CURVE ( 'NONE', #302, #576, #990, .T. ) ;
#19 = ADVANCED_FACE ( 'NONE', ( #78 ), #984, .T. ) ;
#20 = EDGE_CURVE ( 'NONE', #672, #25, #1002, .T. ) ;
#21 = AXIS2_PLACEMENT_3D ( 'NONE', #1043, #810, #653 ) ;
#22 = CARTESIAN_POINT ( 'NONE',  ( 43.00000000000000711, -5.000000000000000000, -43.00000000000000000 ) ) ;
#23 = EDGE_CURVE ( 'NONE', #871, #631, #945, .T. ) ;
#24 = FACE_OUTER_BOUND ( 'NONE', #975, .T. ) ;
#25 = VERTEX_POINT ( 'NONE', #170 ) ;
#26 = CARTESIAN_POINT ( 'NONE',  ( -20.00000000000000000, 5.000000000000000000, -3.499999999999996003 ) ) ;
#27 = CARTESIAN_POINT ( 'NONE',  ( -43.00000000000000000, -3.000000000000000000, -43.00000000000000000 ) ) ;
#28 = ORIENTED_EDGE ( 'NONE', *, *, #132, .T. ) ;
#29 =( GEOMETRIC_REPRESENTATION_CONTEXT ( 3 ) GLOBAL_UNCERTAINTY_ASSIGNED_CONTEXT ( ( #207 ) ) GLOBAL_UNIT_ASSIGNED_CONTEXT ( ( #500, #991, #258 ) ) REPRESENTATION_CONTEXT ( 'NONE', 'WORKASPACE' ) );
#30 = CARTESIAN_POINT ( 'NONE',  ( -19.99999999999999645, 0.000000000000000000, -36.50000000000000711 ) ) ;
#31 = AXIS2_PLACEMENT_3D ( 'NONE', #35, #786, #872 ) ;
#32 = DIRECTION ( 'NONE',  ( 0.000000000000000000, -1.000000000000000000, 0.000000000000000000 ) ) ;
#33 = EDGE_CURVE ( 'NONE', #632, #12, #789, .T. ) ;
#34 = ORIENTED_EDGE ( 'NONE', *, *, #18, .T. ) ;
#35 = CARTESIAN_POINT ( 'NONE',  ( 43.00000000000000711, 0.000000000000000000, 43.00000000000000000 ) ) ;
#36 = EDGE_CURVE ( 'NONE', #364, #811, #158, .T. ) ;
#37 = EDGE_CURVE ( 'NONE', #129, #526, #586, .T. ) ;
#38 = CARTESIAN_POINT ( 'NONE',  ( 45.00000000000001421, 0.000000000000000000, -43.00000000000000000 ) ) ;
#39 = EDGE_CURVE ( 'NONE', #790, #426, #417, .T. ) ;
#40 = EDGE_LOOP ( 'NONE', ( #144, #1 ) ) ;
#41 = ORIENTED_EDGE ( 'NONE', *, *, #254, .T. ) ;
#42 = CARTESIAN_POINT ( 'NONE',  ( 20.00000000000000000, 5.000000000000000000, 20.00000000000000000 ) ) ;
#43 =( BOUNDED_CURVE ( )  B_SPLINE_CURVE ( 3, ( #572, #392, #977, #809 ),
 .UNSPECIFIED., .F., .T. ) 
 B_SPLINE_CURVE_WITH_KNOTS ( ( 4, 4 ),
 ( 5.515995204261211704, 7.050375410097963425 ),
 .UNSPECIFIED. ) 
 CURVE ( )  GEOMETRIC_REPRESENTATION_ITEM ( )  RATIONAL_B_SPLINE_CURVE ( ( 1.000000000000000000, 0.8132426008497406489, 0.8132426008497406489, 1.000000000000000000 ) ) 
 REPRESENTATION_ITEM ( '' )  );
#44 = CARTESIAN_POINT ( 'NONE',  ( -20.00000000000000000, 0.000000000000000000, -3.499999999999996003 ) ) ;
#45 = VERTEX_POINT ( 'NONE', #751 ) ;
#46 = ORIENTED_EDGE ( 'NONE', *, *, #624, .T. ) ;
#47 = CARTESIAN_POINT ( 'NONE',  ( 43.00000000000000711, 0.000000000000000000, -43.00000000000000000 ) ) ;
#48 = AXIS2_PLACEMENT_3D ( 'NONE', #920, #587, #985 ) ;
#49 = VECTOR ( 'NONE', #478, 1000.000000000000000 ) ;
#50 = ORIENTED_EDGE ( 'NONE', *, *, #911, .F. ) ;
#51 = ORIENTED_EDGE ( 'NONE', *, *, #334, .T. ) ;
#52 = DIRECTION ( 'NONE',  ( 0.000000000000000000, 0.000000000000000000, -1.000000000000000000 ) ) ;
#53 = ADVANCED_FACE ( 'NONE', ( #335 ), #919, .T. ) ;
#54 = ORIENTED_EDGE ( 'NONE', *, *, #815, .F. ) ;
#55 = VERTEX_POINT ( 'NONE', #275 ) ;
#56 = CARTESIAN_POINT ( 'NONE',  ( -45.00000000000000000, -3.000000000000000000, 43.00000000000000000 ) ) ;
#57 = PRESENTATION_LAYER_ASSIGNMENT (  '', '', ( #639 ) ) ;
#58 = ORIENTED_EDGE ( 'NONE', *, *, #416, .F. ) ;
#59 = LINE ( 'NONE', #1087, #892 ) ;
#60 = FACE_OUTER_BOUND ( 'NONE', #468, .T. ) ;
#61 = DIRECTION ( 'NONE',  ( 1.000000000000000000, 0.000000000000000000, -0.000000000000000000 ) ) ;
#62 = CIRCLE ( 'NONE', #512, 2.000000000000001776 ) ;
#63 = ORIENTED_EDGE ( 'NONE', *, *, #564, .T. ) ;
#64 = DIRECTION ( 'NONE',  ( 0.000000000000000000, -0.1908089953765449986, -0.9816271834476640867 ) ) ;
#65 = ORIENTED_EDGE ( 'NONE', *, *, #817, .F. ) ;
#66 = DIRECTION ( 'NONE',  ( 0.000000000000000000, 1.000000000000000000, -0.000000000000000000 ) ) ;
#67 = CARTESIAN_POINT ( 'NONE',  ( 19.99999999999998934, 0.000000000000000000, -20.00000000000001066 ) ) ;
#68 = VECTOR ( 'NONE', #13, 1000.000000000000227 ) ;
#69 = EDGE_CURVE ( 'NONE', #871, #711, #603, .T. ) ;
#70 = DIRECTION ( 'NONE',  ( -0.000000000000000000, 1.000000000000000000, -0.000000000000000000 ) ) ;
#71 = CARTESIAN_POINT ( 'NONE',  ( -35.75340584961778490, 6.124303798041298208, 35.75340584961778490 ) ) ;
#72 = VERTEX_POINT ( 'NONE', #22 ) ;
#73 = DIRECTION ( 'NONE',  ( 0.000000000000000000, 1.000000000000000000, -0.000000000000000000 ) ) ;
#74 = DIRECTION ( 'NONE',  ( 0.000000000000000000, 0.000000000000000000, 1.000000000000000000 ) ) ;
#75 = VECTOR ( 'NONE', #830, 1000.000000000000000 ) ;
#76 = EDGE_CURVE ( 'NONE', #327, #565, #832, .T. ) ;
#77 =( BOUNDED_CURVE ( )  B_SPLINE_CURVE ( 3, ( #866, #491, #229, #797 ),
 .UNSPECIFIED., .F., .T. ) 
 B_SPLINE_CURVE_WITH_KNOTS ( ( 4, 4 ),
 ( 5.515995204261211704, 7.050375410097963425 ),
 .UNSPECIFIED. ) 
 CURVE ( )  GEOMETRIC_REPRESENTATION_ITEM ( )  RATIONAL_B_SPLINE_CURVE ( ( 1.000000000000000000, 0.8132426008497406489, 0.8132426008497406489, 1.000000000000000000 ) ) 
 REPRESENTATION_ITEM ( '' )  );
#78 = FACE_OUTER_BOUND ( 'NONE', #86, .T. ) ;
#79 = DIRECTION ( 'NONE',  ( -0.000000000000000000, -1.000000000000000000, 0.000000000000000000 ) ) ;
#80 = APPLICATION_PROTOCOL_DEFINITION ( 'draft international standard', 'automotive_design', 1998, #187 ) ;
#81 = ORIENTED_EDGE ( 'NONE', *, *, #373, .F. ) ;
#82 = DIRECTION ( 'NONE',  ( 1.000000000000000000, -0.000000000000000000, 0.000000000000000000 ) ) ;
#83 = FACE_OUTER_BOUND ( 'NONE', #178, .T. ) ;
#84 = AXIS2_PLACEMENT_3D ( 'NONE', #678, #79, #159 ) ;
#85 = ORIENTED_EDGE ( 'NONE', *, *, #272, .F. ) ;
#86 = EDGE_LOOP ( 'NONE', ( #712, #1076, #374, #656 ) ) ;
#87 = CARTESIAN_POINT ( 'NONE',  ( -20.00000000000000000, 0.000000000000000000, -3.499999999999996003 ) ) ;
#88 = DIRECTION ( 'NONE',  ( 0.9816271834476639757, 0.1908089953765448599, 0.000000000000000000 ) ) ;
#89 = CARTESIAN_POINT ( 'NONE',  ( -43.00000000000000000, -3.000000000000000000, 43.00000000000000000 ) ) ;
#90 = DIRECTION ( 'NONE',  ( 0.000000000000000000, 1.000000000000000000, 0.000000000000000000 ) ) ;
#91 = VERTEX_POINT ( 'NONE', #928 ) ;
#92 = DIRECTION ( 'NONE',  ( -0.000000000000000000, -1.000000000000000000, -0.000000000000000000 ) ) ;
#93 = DIRECTION ( 'NONE',  ( -0.000000000000000000, 1.000000000000000000, -0.000000000000000000 ) ) ;
#94 = AXIS2_PLACEMENT_3D ( 'NONE', #430, #870, #693 ) ;
#95 = DIRECTION ( 'NONE',  ( 0.000000000000000000, 0.000000000000000000, -1.000000000000000000 ) ) ;
#96 = CARTESIAN_POINT ( 'NONE',  ( -43.00000000000000000, -3.000000000000000000, -43.00000000000000000 ) ) ;
#97 = EDGE_LOOP ( 'NONE', ( #562, #239, #560, #220 ) ) ;
#98 = LINE ( 'NONE', #154, #590 ) ;
#99 = FACE_OUTER_BOUND ( 'NONE', #766, .T. ) ;
#100 = ADVANCED_BREP_SHAPE_REPRESENTATION ( 'Palet_base', ( #858, #475 ), #29 ) ;
#101 = DIRECTION ( 'NONE',  ( 0.000000000000000000, 0.000000000000000000, 1.000000000000000000 ) ) ;
#102 = CARTESIAN_POINT ( 'NONE',  ( 20.00000000000000000, 0.000000000000000000, 36.50000000000000000 ) ) ;
#103 = AXIS2_PLACEMENT_3D ( 'NONE', #71, #819, #64 ) ;
#104 = EDGE_LOOP ( 'NONE', ( #219, #981, #173, #393 ) ) ;
#105 = AXIS2_PLACEMENT_3D ( 'NONE', #563, #1074, #316 ) ;
#106 = LINE ( 'NONE', #449, #356 ) ;
#107 = DIRECTION ( 'NONE',  ( -1.000000000000000000, 0.000000000000000000, -0.000000000000000000 ) ) ;
#108 = DIRECTION ( 'NONE',  ( -0.000000000000000000, 0.000000000000000000, 1.000000000000000000 ) ) ;
#109 = ORIENTED_EDGE ( 'NONE', *, *, #136, .T. ) ;
#110 = CARTESIAN_POINT ( 'NONE',  ( 39.02809845431141156, 4.999999999999998224, -37.82104513169651483 ) ) ;
#111 = CARTESIAN_POINT ( 'NONE',  ( 19.99999999999998934, 0.000000000000000000, -20.00000000000001066 ) ) ;
#112 = ORIENTED_EDGE ( 'NONE', *, *, #839, .T. ) ;
#113 = AXIS2_PLACEMENT_3D ( 'NONE', #161, #594, #266 ) ;
#114 = PRODUCT_DEFINITION_SHAPE ( 'NONE', 'NONE',  #635 ) ;
#115 = FACE_OUTER_BOUND ( 'NONE', #715, .T. ) ;
#116 = CARTESIAN_POINT ( 'NONE',  ( -45.00000000000000000, -3.000000000000000000, 45.00000000000000000 ) ) ;
#117 = ORIENTED_EDGE ( 'NONE', *, *, #936, .F. ) ;
#118 = DIRECTION ( 'NONE',  ( 1.000000000000000000, 0.000000000000000000, 0.000000000000000000 ) ) ;
#119 = VECTOR ( 'NONE', #791, 1000.000000000000000 ) ;
#120 = ADVANCED_FACE ( 'NONE', ( #456 ), #1020, .F. ) ;
#121 = DIRECTION ( 'NONE',  ( 0.000000000000000000, 0.000000000000000000, 1.000000000000000000 ) ) ;
#122 = ORIENTED_EDGE ( 'NONE', *, *, #355, .T. ) ;
#123 = CIRCLE ( 'NONE', #1023, 16.50000000000000355 ) ;
#124 = CARTESIAN_POINT ( 'NONE',  ( 39.02809845431140445, 5.000000000000000000, 36.08321690396841319 ) ) ;
#125 = DIRECTION ( 'NONE',  ( 0.1874275599918959756, -0.9642312064598245192, 0.1874275599918959756 ) ) ;
#126 = ORIENTED_EDGE ( 'NONE', *, *, #223, .F. ) ;
#127 = DIRECTION ( 'NONE',  ( 1.000000000000000000, 0.000000000000000000, -0.000000000000000000 ) ) ;
#128 = VECTOR ( 'NONE', #486, 1000.000000000000000 ) ;
#129 = VERTEX_POINT ( 'NONE', #851 ) ;
#130 = ORIENTED_EDGE ( 'NONE', *, *, #33, .T. ) ;
#131 = LINE ( 'NONE', #299, #49 ) ;
#132 = EDGE_CURVE ( 'NONE', #164, #72, #1014, .T. ) ;
#133 = EDGE_CURVE ( 'NONE', #526, #222, #1039, .T. ) ;
#134 = ADVANCED_FACE ( 'NONE', ( #176 ), #9, .T. ) ;
#135 = VECTOR ( 'NONE', #566, 1000.000000000000000 ) ;
#136 = EDGE_CURVE ( 'NONE', #790, #225, #1060, .T. ) ;
#137 = ORIENTED_EDGE ( 'NONE', *, *, #333, .T. ) ;
#138 = CARTESIAN_POINT ( 'NONE',  ( 0.000000000000000000, 0.000000000000000000, 0.000000000000000000 ) ) ;
#139 = EDGE_LOOP ( 'NONE', ( #539, #1088, #63, #965 ) ) ;
#140 = ORIENTED_EDGE ( 'NONE', *, *, #214, .T. ) ;
#141 = ORIENTED_EDGE ( 'NONE', *, *, #1016, .F. ) ;
#142 = PLANE ( 'NONE',  #578 ) ;
#143 = FACE_OUTER_BOUND ( 'NONE', #97, .T. ) ;
#144 = ORIENTED_EDGE ( 'NONE', *, *, #719, .F. ) ;
#145 = DIRECTION ( 'NONE',  ( -0.000000000000000000, 1.000000000000000000, -0.000000000000000000 ) ) ;
#146 = VERTEX_POINT ( 'NONE', #352 ) ;
#147 = CARTESIAN_POINT ( 'NONE',  ( -19.99999999999999645, 5.000000000000000000, 20.00000000000000355 ) ) ;
#148 = CARTESIAN_POINT ( 'NONE',  ( 0.000000000000000000, 0.000000000000000000, -40.00000000000000000 ) ) ;
#149 = EDGE_CURVE ( 'NONE', #811, #164, #989, .T. ) ;
#150 = CARTESIAN_POINT ( 'NONE',  ( -45.00000000000000000, 0.000000000000000000, 43.00000000000000000 ) ) ;
#151 = EDGE_CURVE ( 'NONE', #881, #895, #898, .T. ) ;
#152 = DIRECTION ( 'NONE',  ( -0.000000000000000000, 1.000000000000000000, -0.000000000000000000 ) ) ;
#153 = ORIENTED_EDGE ( 'NONE', *, *, #455, .T. ) ;
#154 = CARTESIAN_POINT ( 'NONE',  ( 43.00000000000000711, -5.000000000000000000, 0.000000000000000000 ) ) ;
#155 = PLANE ( 'NONE',  #210 ) ;
#156 = ADVANCED_FACE ( 'NONE', ( #519 ), #524, .T. ) ;
#157 = CIRCLE ( 'NONE', #496, 2.000000000000001776 ) ;
#158 = LINE ( 'NONE', #664, #413 ) ;
#159 = DIRECTION ( 'NONE',  ( 0.000000000000000000, 0.000000000000000000, -1.000000000000000000 ) ) ;
#160 = ORIENTED_EDGE ( 'NONE', *, *, #718, .T. ) ;
#161 = CARTESIAN_POINT ( 'NONE',  ( 43.00000000000000711, -3.000000000000000000, -43.00000000000000000 ) ) ;
#162 = CIRCLE ( 'NONE', #113, 2.000000000000001776 ) ;
#163 = LINE ( 'NONE', #8, #792 ) ;
#164 = VERTEX_POINT ( 'NONE', #371 ) ;
#165 = FACE_OUTER_BOUND ( 'NONE', #558, .T. ) ;
#166 = ORIENTED_EDGE ( 'NONE', *, *, #36, .T. ) ;
#167 = CARTESIAN_POINT ( 'NONE',  ( 37.05511844965700874, 0.000000000000000000, -40.00000000000000000 ) ) ;
#168 = DIRECTION ( 'NONE',  ( 0.000000000000000000, 0.000000000000000000, -1.000000000000000000 ) ) ;
#169 = EDGE_CURVE ( 'NONE', #327, #91, #446, .T. ) ;
#170 = CARTESIAN_POINT ( 'NONE',  ( 19.99999999999998934, 5.000000000000000000, -3.500000000000010214 ) ) ;
#171 = CYLINDRICAL_SURFACE ( 'NONE', #103, 2.999999999999997780 ) ;
#172 = VECTOR ( 'NONE', #198, 1000.000000000000000 ) ;
#173 = ORIENTED_EDGE ( 'NONE', *, *, #332, .F. ) ;
#174 = DIRECTION ( 'NONE',  ( 0.000000000000000000, 0.000000000000000000, 1.000000000000000000 ) ) ;
#175 = DIRECTION ( 'NONE',  ( -0.1908089953765448599, 0.9816271834476639757, 0.000000000000000000 ) ) ;
#176 = FACE_OUTER_BOUND ( 'NONE', #104, .T. ) ;
#177 = FACE_OUTER_BOUND ( 'NONE', #494, .T. ) ;
#178 = EDGE_LOOP ( 'NONE', ( #980, #130, #204 ) ) ;
#179 = DIRECTION ( 'NONE',  ( -0.000000000000000000, 1.000000000000000000, -0.000000000000000000 ) ) ;
#180 = FACE_OUTER_BOUND ( 'NONE', #377, .T. ) ;
#181 = ADVANCED_FACE ( 'NONE', ( #196 ), #875, .T. ) ;
#182 = DIRECTION ( 'NONE',  ( -0.000000000000000000, 1.000000000000000000, -0.000000000000000000 ) ) ;
#183 = DIRECTION ( 'NONE',  ( -0.000000000000000000, -0.000000000000000000, 1.000000000000000000 ) ) ;
#184 = EDGE_LOOP ( 'NONE', ( #502, #28, #349, #406 ) ) ;
#185 = CIRCLE ( 'NONE', #609, 16.50000000000000000 ) ;
#186 = DIRECTION ( 'NONE',  ( 1.000000000000000000, -0.000000000000000000, 0.000000000000000000 ) ) ;
#187 = APPLICATION_CONTEXT ( 'automotive_design' ) ;
#188 = ADVANCED_FACE ( 'NONE', ( #616 ), #361, .F. ) ;
#189 = DIRECTION ( 'NONE',  ( 0.1874275599918959756, -0.9642312064598245192, -0.1874275599918959756 ) ) ;
#190 = DIRECTION ( 'NONE',  ( -0.000000000000000000, 1.000000000000000000, -0.000000000000000000 ) ) ;
#191 = ORIENTED_EDGE ( 'NONE', *, *, #33, .F. ) ;
#192 = AXIS2_PLACEMENT_3D ( 'NONE', #669, #73, #661 ) ;
#193 =( BOUNDED_CURVE ( )  B_SPLINE_CURVE ( 3, ( #461, #788, #879, #623 ),
 .UNSPECIFIED., .F., .T. ) 
 B_SPLINE_CURVE_WITH_KNOTS ( ( 4, 4 ),
 ( 5.515995204261210816, 7.050375410097961648 ),
 .UNSPECIFIED. ) 
 CURVE ( )  GEOMETRIC_REPRESENTATION_ITEM ( )  RATIONAL_B_SPLINE_CURVE ( ( 1.000000000000000000, 0.8132426008497409819, 0.8132426008497409819, 1.000000000000000000 ) ) 
 REPRESENTATION_ITEM ( '' )  );
#194 = LINE ( 'NONE', #962, #172 ) ;
#195 = PRODUCT ( 'Palet_base', 'Palet_base', '', ( #246 ) ) ;
#196 = FACE_OUTER_BOUND ( 'NONE', #209, .T. ) ;
#197 = ORIENTED_EDGE ( 'NONE', *, *, #149, .F. ) ;
#198 = DIRECTION ( 'NONE',  ( -0.000000000000000000, 1.000000000000000000, -0.000000000000000000 ) ) ;
#199 = DIRECTION ( 'NONE',  ( 0.000000000000000000, 0.000000000000000000, 1.000000000000000000 ) ) ;
#200 = ORIENTED_EDGE ( 'NONE', *, *, #1016, .T. ) ;
#201 = COLOUR_RGB ( '',0.7921568627450980005, 0.8196078431372548767, 0.9333333333333333481 ) ;
#202 = CARTESIAN_POINT ( 'NONE',  ( -35.75340584961779200, 6.696730784170934037, -38.69828739996077616 ) ) ;
#203 = CARTESIAN_POINT ( 'NONE',  ( -20.00000000000000000, 5.000000000000000000, -20.00000000000000000 ) ) ;
#204 = ORIENTED_EDGE ( 'NONE', *, *, #802, .F. ) ;
#205 = DIRECTION ( 'NONE',  ( 0.000000000000000000, 0.000000000000000000, 1.000000000000000000 ) ) ;
#206 = AXIS2_PLACEMENT_3D ( 'NONE', #1006, #255, #948 ) ;
#207 = UNCERTAINTY_MEASURE_WITH_UNIT (LENGTH_MEASURE( 1.000000000000000082E-05 ), #500, 'distance_accuracy_value', 'NONE');
#208 = CYLINDRICAL_SURFACE ( 'NONE', #739, 2.999999999999997780 ) ;
#209 = EDGE_LOOP ( 'NONE', ( #700, #112, #292 ) ) ;
#210 = AXIS2_PLACEMENT_3D ( 'NONE', #687, #88, #175 ) ;
#211 = ORIENTED_EDGE ( 'NONE', *, *, #837, .F. ) ;
#212 = PRESENTATION_STYLE_ASSIGNMENT (( #967 ) ) ;
#213 = DIRECTION ( 'NONE',  ( 0.000000000000000000, 0.000000000000000000, 1.000000000000000000 ) ) ;
#214 = EDGE_CURVE ( 'NONE', #674, #302, #942, .T. ) ;
#215 = EDGE_CURVE ( 'NONE', #625, #553, #77, .T. ) ;
#216 = VECTOR ( 'NONE', #538, 1000.000000000000000 ) ;
#217 = CARTESIAN_POINT ( 'NONE',  ( 45.00000000000001421, -3.000000000000000000, -43.00000000000000000 ) ) ;
#218 = EDGE_CURVE ( 'NONE', #722, #521, #530, .T. ) ;
#219 = ORIENTED_EDGE ( 'NONE', *, *, #23, .F. ) ;
#220 = ORIENTED_EDGE ( 'NONE', *, *, #355, .F. ) ;
#221 = DIRECTION ( 'NONE',  ( 0.000000000000000000, 0.000000000000000000, 1.000000000000000000 ) ) ;
#222 = VERTEX_POINT ( 'NONE', #397 ) ;
#223 = EDGE_CURVE ( 'NONE', #1066, #225, #655, .T. ) ;
#224 = DIRECTION ( 'NONE',  ( 1.000000000000000000, 0.000000000000000000, 0.000000000000000000 ) ) ;
#225 = VERTEX_POINT ( 'NONE', #567 ) ;
#226 = DIRECTION ( 'NONE',  ( 0.000000000000000000, 0.000000000000000000, 1.000000000000000000 ) ) ;
#227 = ADVANCED_FACE ( 'NONE', ( #143 ), #816, .T. ) ;
#228 = CLOSED_SHELL ( 'NONE', ( #454, #620, #642, #721, #353, #537, #626, #857, #720, #288, #313, #429, #19, #935, #1067, #827, #887, #1051, #973, #838, #610, #181, #436, #437, #227, #555, #549, #134, #156, #337, #1082, #998, #438, #120, #53, #953, #707, #188, #914 ) ) ;
#229 = CARTESIAN_POINT ( 'NONE',  ( 39.02809845431141156, 4.999999999999998224, 37.82104513169650062 ) ) ;
#230 = ORIENTED_EDGE ( 'NONE', *, *, #696, .F. ) ;
#231 = EDGE_CURVE ( 'NONE', #306, #369, #729, .T. ) ;
#232 = EDGE_CURVE ( 'NONE', #432, #888, #279, .T. ) ;
#233 = ORIENTED_EDGE ( 'NONE', *, *, #254, .F. ) ;
#234 = CARTESIAN_POINT ( 'NONE',  ( -43.00000000000000000, -5.000000000000000000, 45.00000000000000000 ) ) ;
#235 = EDGE_CURVE ( 'NONE', #672, #146, #185, .T. ) ;
#236 = DIRECTION ( 'NONE',  ( 0.000000000000000000, 1.000000000000000000, -0.000000000000000000 ) ) ;
#237 = CARTESIAN_POINT ( 'NONE',  ( -19.99999999999999289, 0.000000000000000000, 3.500000000000003109 ) ) ;
#238 =( BOUNDED_CURVE ( )  B_SPLINE_CURVE ( 3, ( #796, #110, #453, #869 ),
 .UNSPECIFIED., .F., .T. ) 
 B_SPLINE_CURVE_WITH_KNOTS ( ( 4, 4 ),
 ( 5.515995204261211704, 7.050375410097963425 ),
 .UNSPECIFIED. ) 
 CURVE ( )  GEOMETRIC_REPRESENTATION_ITEM ( )  RATIONAL_B_SPLINE_CURVE ( ( 1.000000000000000000, 0.8132426008497406489, 0.8132426008497406489, 1.000000000000000000 ) ) 
 REPRESENTATION_ITEM ( '' )  );
#239 = ORIENTED_EDGE ( 'NONE', *, *, #654, .F. ) ;
#240 = CYLINDRICAL_SURFACE ( 'NONE', #1065, 2.000000000000001776 ) ;
#241 = FACE_OUTER_BOUND ( 'NONE', #184, .T. ) ;
#242 = AXIS2_PLACEMENT_3D ( 'NONE', #944, #190, #263 ) ;
#243 = CIRCLE ( 'NONE', #529, 16.50000000000000000 ) ;
#244 = EDGE_LOOP ( 'NONE', ( #716, #34, #1078, #771 ) ) ;
#245 = DIRECTION ( 'NONE',  ( 0.000000000000000000, 0.000000000000000000, -1.000000000000000000 ) ) ;
#246 = PRODUCT_CONTEXT ( 'NONE', #441, 'mechanical' ) ;
#247 = ORIENTED_EDGE ( 'NONE', *, *, #839, .F. ) ;
#248 = DIRECTION ( 'NONE',  ( -0.000000000000000000, -0.000000000000000000, 1.000000000000000000 ) ) ;
#249 = FACE_BOUND ( 'NONE', #840, .T. ) ;
#250 = ORIENTED_EDGE ( 'NONE', *, *, #235, .F. ) ;
#251 = FACE_BOUND ( 'NONE', #730, .T. ) ;
#252 = ORIENTED_EDGE ( 'NONE', *, *, #680, .T. ) ;
#253 = CARTESIAN_POINT ( 'NONE',  ( 38.79294667738510327, 0.000000000000000000, -39.99999999999999289 ) ) ;
#254 = EDGE_CURVE ( 'NONE', #553, #834, #648, .T. ) ;
#255 = DIRECTION ( 'NONE',  ( 0.000000000000000000, 1.000000000000000000, -0.000000000000000000 ) ) ;
#256 = MECHANICAL_DESIGN_GEOMETRIC_PRESENTATION_REPRESENTATION (  '', ( #639 ), #873 ) ;
#257 = DIRECTION ( 'NONE',  ( 0.000000000000000000, 0.1908089953765448599, -0.9816271834476639757 ) ) ;
#258 =( NAMED_UNIT ( * ) SI_UNIT ( $, .STERADIAN. ) SOLID_ANGLE_UNIT ( ) );
#259 = ORIENTED_EDGE ( 'NONE', *, *, #535, .F. ) ;
#260 = DIRECTION ( 'NONE',  ( 0.000000000000000000, 0.000000000000000000, 1.000000000000000000 ) ) ;
#261 = CARTESIAN_POINT ( 'NONE',  ( 20.00000000000000000, 0.000000000000000000, 20.00000000000000000 ) ) ;
#262 = CARTESIAN_POINT ( 'NONE',  ( 20.00000000000000000, 5.000000000000000000, 20.00000000000000000 ) ) ;
#263 = DIRECTION ( 'NONE',  ( 0.000000000000000000, 0.000000000000000000, 1.000000000000000000 ) ) ;
#264 = AXIS2_PLACEMENT_3D ( 'NONE', #628, #705, #205 ) ;
#265 = ORIENTED_EDGE ( 'NONE', *, *, #624, .F. ) ;
#266 = DIRECTION ( 'NONE',  ( 0.000000000000000000, 0.000000000000000000, -1.000000000000000000 ) ) ;
#267 = DIRECTION ( 'NONE',  ( 0.000000000000000000, 1.000000000000000000, -0.000000000000000000 ) ) ;
#268 = AXIS2_PLACEMENT_3D ( 'NONE', #465, #32, #580 ) ;
#269 = DIRECTION ( 'NONE',  ( 0.000000000000000000, 0.000000000000000000, 1.000000000000000000 ) ) ;
#270 = DIRECTION ( 'NONE',  ( 1.000000000000000000, 0.000000000000000000, 0.000000000000000000 ) ) ;
#271 = ORIENTED_EDGE ( 'NONE', *, *, #231, .F. ) ;
#272 = EDGE_CURVE ( 'NONE', #722, #557, #551, .T. ) ;
#273 = CARTESIAN_POINT ( 'NONE',  ( 0.000000000000000000, 0.000000000000000000, 0.000000000000000000 ) ) ;
#274 = AXIS2_PLACEMENT_3D ( 'NONE', #367, #439, #95 ) ;
#275 = CARTESIAN_POINT ( 'NONE',  ( -19.99999999999999645, 5.000000000000000000, -36.50000000000000711 ) ) ;
#276 = DIRECTION ( 'NONE',  ( 0.000000000000000000, 0.000000000000000000, -1.000000000000000000 ) ) ;
#277 = ORIENTED_EDGE ( 'NONE', *, *, #564, .F. ) ;
#278 = EDGE_CURVE ( 'NONE', #651, #1092, #409, .T. ) ;
#279 = CIRCLE ( 'NONE', #799, 16.49999999999999645 ) ;
#280 = CYLINDRICAL_SURFACE ( 'NONE', #979, 2.000000000000001776 ) ;
#281 = DIRECTION ( 'NONE',  ( 0.000000000000000000, 1.000000000000000000, -0.000000000000000000 ) ) ;
#282 = CARTESIAN_POINT ( 'NONE',  ( -0.000000000000000000, -3.000000000000000000, -43.00000000000000000 ) ) ;
#283 = CIRCLE ( 'NONE', #561, 16.50000000000000000 ) ;
#284 = ORIENTED_EDGE ( 'NONE', *, *, #384, .T. ) ;
#285 = DIRECTION ( 'NONE',  ( 1.000000000000000000, 0.000000000000000000, 0.000000000000000000 ) ) ;
#286 = CARTESIAN_POINT ( 'NONE',  ( -45.00000000000000000, -3.000000000000000000, -45.00000000000000000 ) ) ;
#287 = ORIENTED_EDGE ( 'NONE', *, *, #719, .T. ) ;
#288 = ADVANCED_FACE ( 'NONE', ( #241 ), #1048, .T. ) ;
#289 = DIRECTION ( 'NONE',  ( 0.000000000000000000, 0.000000000000000000, -1.000000000000000000 ) ) ;
#290 = DIRECTION ( 'NONE',  ( 0.000000000000000000, 1.000000000000000000, -0.000000000000000000 ) ) ;
#291 = AXIS2_PLACEMENT_3D ( 'NONE', #698, #859, #1025 ) ;
#292 = ORIENTED_EDGE ( 'NONE', *, *, #934, .F. ) ;
#293 = FACE_OUTER_BOUND ( 'NONE', #309, .T. ) ;
#294 = LINE ( 'NONE', #116, #825 ) ;
#295 = EDGE_LOOP ( 'NONE', ( #1056, #400, #880, #1050 ) ) ;
#296 = VECTOR ( 'NONE', #1093, 1000.000000000000227 ) ;
#297 = SURFACE_STYLE_FILL_AREA ( #961 ) ;
#298 = CIRCLE ( 'NONE', #192, 16.49999999999999645 ) ;
#299 = CARTESIAN_POINT ( 'NONE',  ( -0.000000000000000000, -5.000000000000000000, 43.00000000000000000 ) ) ;
#300 = VERTEX_POINT ( 'NONE', #1075 ) ;
#301 = AXIS2_PLACEMENT_3D ( 'NONE', #1001, #267, #923 ) ;
#302 = VERTEX_POINT ( 'NONE', #573 ) ;
#303 = DIRECTION ( 'NONE',  ( -0.000000000000000000, 1.000000000000000000, -0.000000000000000000 ) ) ;
#304 = VECTOR ( 'NONE', #509, 1000.000000000000227 ) ;
#305 = ORIENTED_EDGE ( 'NONE', *, *, #865, .T. ) ;
#306 = VERTEX_POINT ( 'NONE', #544 ) ;
#307 = CARTESIAN_POINT ( 'NONE',  ( 37.15856945939841438, -0.5322093076213476603, -40.10345100974140564 ) ) ;
#308 = ORIENTED_EDGE ( 'NONE', *, *, #136, .F. ) ;
#309 = EDGE_LOOP ( 'NONE', ( #137, #1081, #1011, #166 ) ) ;
#310 = CARTESIAN_POINT ( 'NONE',  ( -20.00000000000000000, 0.000000000000000000, -20.00000000000000000 ) ) ;
#311 = CARTESIAN_POINT ( 'NONE',  ( 20.00000000000000000, 0.000000000000000000, 20.00000000000000000 ) ) ;
#312 = AXIS2_PLACEMENT_3D ( 'NONE', #365, #118, #289 ) ;
#313 = ADVANCED_FACE ( 'NONE', ( #794 ), #379, .T. ) ;
#314 = DIRECTION ( 'NONE',  ( 0.000000000000000000, 1.000000000000000000, -0.000000000000000000 ) ) ;
#315 = CARTESIAN_POINT ( 'NONE',  ( -43.00000000000000000, -3.000000000000000000, 43.00000000000000000 ) ) ;
#316 = DIRECTION ( 'NONE',  ( 1.000000000000000000, 0.000000000000000000, -0.000000000000000000 ) ) ;
#317 = AXIS2_PLACEMENT_3D ( 'NONE', #273, #345, #908 ) ;
#318 = DIRECTION ( 'NONE',  ( 0.000000000000000000, 0.1908089953765448599, 0.9816271834476639757 ) ) ;
#319 = CARTESIAN_POINT ( 'NONE',  ( -43.00000000000000000, -5.000000000000000000, 43.00000000000000000 ) ) ;
#320 = VERTEX_POINT ( 'NONE', #150 ) ;
#321 = DIRECTION ( 'NONE',  ( 0.000000000000000000, 1.000000000000000000, -0.000000000000000000 ) ) ;
#322 = CARTESIAN_POINT ( 'NONE',  ( 0.000000000000000000, 0.000000000000000000, 40.00000000000000000 ) ) ;
#323 = AXIS2_PLACEMENT_3D ( 'NONE', #897, #61, #1042 ) ;
#324 = DIRECTION ( 'NONE',  ( 1.000000000000000000, 0.000000000000000000, 0.000000000000000000 ) ) ;
#325 = DIRECTION ( 'NONE',  ( 0.1874275599918959201, -0.9642312064598242971, 0.1874275599918959201 ) ) ;
#326 = APPLICATION_PROTOCOL_DEFINITION ( 'draft international standard', 'automotive_design', 1998, #441 ) ;
#327 = VERTEX_POINT ( 'NONE', #662 ) ;
#328 = CYLINDRICAL_SURFACE ( 'NONE', #864, 16.49999999999999645 ) ;
#329 = DIRECTION ( 'NONE',  ( -0.000000000000000000, 1.000000000000000000, -0.000000000000000000 ) ) ;
#330 = AXIS2_PLACEMENT_3D ( 'NONE', #447, #5, #689 ) ;
#331 = AXIS2_PLACEMENT_3D ( 'NONE', #147, #647, #727 ) ;
#332 = EDGE_CURVE ( 'NONE', #723, #690, #193, .T. ) ;
#333 = EDGE_CURVE ( 'NONE', #811, #632, #294, .T. ) ;
#334 = EDGE_CURVE ( 'NONE', #521, #55, #123, .T. ) ;
#335 = FACE_OUTER_BOUND ( 'NONE', #471, .T. ) ;
#336 = CARTESIAN_POINT ( 'NONE',  ( -45.00000000000000000, 0.000000000000000000, 45.00000000000000000 ) ) ;
#337 = ADVANCED_FACE ( 'NONE', ( #706 ), #208, .T. ) ;
#338 = VERTEX_POINT ( 'NONE', #757 ) ;
#339 = DIRECTION ( 'NONE',  ( 0.000000000000000000, 0.000000000000000000, -1.000000000000000000 ) ) ;
#340 = DIRECTION ( 'NONE',  ( -1.000000000000000000, 0.000000000000000000, 0.000000000000000000 ) ) ;
#341 = ORIENTED_EDGE ( 'NONE', *, *, #36, .F. ) ;
#342 = DIRECTION ( 'NONE',  ( 0.000000000000000000, 0.000000000000000000, -1.000000000000000000 ) ) ;
#343 = ORIENTED_EDGE ( 'NONE', *, *, #1057, .T. ) ;
#344 = DIRECTION ( 'NONE',  ( 0.000000000000000000, 0.000000000000000000, 1.000000000000000000 ) ) ;
#345 = DIRECTION ( 'NONE',  ( 0.000000000000000000, -1.000000000000000000, 0.000000000000000000 ) ) ;
#346 = AXIS2_PLACEMENT_3D ( 'NONE', #762, #993, #421 ) ;
#347 = DIRECTION ( 'NONE',  ( 0.000000000000000000, 0.1908089953765449986, -0.9816271834476640867 ) ) ;
#348 = CARTESIAN_POINT ( 'NONE',  ( 43.00000000000000711, -3.000000000000000000, -43.00000000000000000 ) ) ;
#349 = ORIENTED_EDGE ( 'NONE', *, *, #837, .T. ) ;
#350 = CARTESIAN_POINT ( 'NONE',  ( -43.00000000000000000, -3.000000000000000000, 0.000000000000000000 ) ) ;
#351 = CARTESIAN_POINT ( 'NONE',  ( 40.00000000000000000, 0.000000000000000000, -37.05511844965700874 ) ) ;
#352 = CARTESIAN_POINT ( 'NONE',  ( 19.99999999999999289, 0.000000000000000000, -36.50000000000001421 ) ) ;
#353 = ADVANCED_FACE ( 'NONE', ( #768, #249 ), #1086, .F. ) ;
#354 = DIRECTION ( 'NONE',  ( 0.000000000000000000, 0.000000000000000000, 1.000000000000000000 ) ) ;
#355 = EDGE_CURVE ( 'NONE', #300, #327, #163, .T. ) ;
#356 = VECTOR ( 'NONE', #779, 1000.000000000000227 ) ;
#357 = ORIENTED_EDGE ( 'NONE', *, *, #332, .T. ) ;
#358 = DIRECTION ( 'NONE',  ( -0.000000000000000000, 1.000000000000000000, -0.000000000000000000 ) ) ;
#359 =( BOUNDED_CURVE ( )  B_SPLINE_CURVE ( 3, ( #681, #253, #1012, #495 ),
 .UNSPECIFIED., .F., .T. ) 
 B_SPLINE_CURVE_WITH_KNOTS ( ( 4, 4 ),
 ( 5.515995204261210816, 7.050375410097961648 ),
 .UNSPECIFIED. ) 
 CURVE ( )  GEOMETRIC_REPRESENTATION_ITEM ( )  RATIONAL_B_SPLINE_CURVE ( ( 1.000000000000000000, 0.8132426008497409819, 0.8132426008497409819, 1.000000000000000000 ) ) 
 REPRESENTATION_ITEM ( '' )  );
#360 = AXIS2_PLACEMENT_3D ( 'NONE', #959, #236, #883 ) ;
#361 = CYLINDRICAL_SURFACE ( 'NONE', #750, 16.50000000000000000 ) ;
#362 = CARTESIAN_POINT ( 'NONE',  ( -40.00000000000000000, 0.000000000000000000, 0.000000000000000000 ) ) ;
#363 = EDGE_CURVE ( 'NONE', #888, #881, #504, .T. ) ;
#364 = VERTEX_POINT ( 'NONE', #917 ) ;
#365 = CARTESIAN_POINT ( 'NONE',  ( 43.00000000000000711, -3.000000000000000000, 43.00000000000000000 ) ) ;
#366 = VECTOR ( 'NONE', #4, 1000.000000000000000 ) ;
#367 = CARTESIAN_POINT ( 'NONE',  ( 43.00000000000000711, -3.000000000000000000, 43.00000000000000000 ) ) ;
#368 = CARTESIAN_POINT ( 'NONE',  ( 20.00000000000000355, 5.000000000000000000, 3.500000000000003109 ) ) ;
#369 = VERTEX_POINT ( 'NONE', #518 ) ;
#370 = CARTESIAN_POINT ( 'NONE',  ( 43.00000000000000711, -3.000000000000000000, -45.00000000000000000 ) ) ;
#371 = CARTESIAN_POINT ( 'NONE',  ( -43.00000000000000000, -5.000000000000000000, -43.00000000000000000 ) ) ;
#372 = AXIS2_PLACEMENT_3D ( 'NONE', #362, #525, #776 ) ;
#373 = EDGE_CURVE ( 'NONE', #146, #785, #773, .T. ) ;
#374 = ORIENTED_EDGE ( 'NONE', *, *, #69, .T. ) ;
#375 = CYLINDRICAL_SURFACE ( 'NONE', #602, 16.50000000000000355 ) ;
#376 = DIRECTION ( 'NONE',  ( -0.000000000000000000, -0.000000000000000000, 1.000000000000000000 ) ) ;
#377 = EDGE_LOOP ( 'NONE', ( #970, #805 ) ) ;
#378 = CARTESIAN_POINT ( 'NONE',  ( -45.00000000000000000, 0.000000000000000000, 43.00000000000000000 ) ) ;
#379 = PLANE ( 'NONE',  #16 ) ;
#380 = ORIENTED_EDGE ( 'NONE', *, *, #534, .T. ) ;
#381 = ORIENTED_EDGE ( 'NONE', *, *, #231, .T. ) ;
#382 =( LENGTH_UNIT ( ) NAMED_UNIT ( * ) SI_UNIT ( .MILLI., .METRE. ) );
#383 = DIRECTION ( 'NONE',  ( 0.000000000000000000, 1.000000000000000000, -0.000000000000000000 ) ) ;
#384 = EDGE_CURVE ( 'NONE', #320, #404, #157, .T. ) ;
#385 = ORIENTED_EDGE ( 'NONE', *, *, #817, .T. ) ;
#386 = AXIS2_PLACEMENT_3D ( 'NONE', #315, #1009, #245 ) ;
#387 = ORIENTED_EDGE ( 'NONE', *, *, #533, .F. ) ;
#388 = AXIS2_PLACEMENT_3D ( 'NONE', #442, #1089, #174 ) ;
#389 = CARTESIAN_POINT ( 'NONE',  ( 36.08321690396842030, 5.000000000000000000, 39.02809845431140445 ) ) ;
#390 = ORIENTED_EDGE ( 'NONE', *, *, #39, .F. ) ;
#391 = EDGE_LOOP ( 'NONE', ( #884, #659, #459, #505 ) ) ;
#392 = CARTESIAN_POINT ( 'NONE',  ( -39.02809845431141156, 4.999999999999998224, 37.82104513169651483 ) ) ;
#393 = ORIENTED_EDGE ( 'NONE', *, *, #415, .F. ) ;
#394 = ORIENTED_EDGE ( 'NONE', *, *, #218, .T. ) ;
#395 = DIRECTION ( 'NONE',  ( 0.000000000000000000, 1.000000000000000000, -0.000000000000000000 ) ) ;
#396 = CIRCLE ( 'NONE', #1062, 2.000000000000001776 ) ;
#397 = CARTESIAN_POINT ( 'NONE',  ( -43.00000000000000000, -3.000000000000000000, -45.00000000000000000 ) ) ;
#398 = ORIENTED_EDGE ( 'NONE', *, *, #482, .T. ) ;
#399 = DIRECTION ( 'NONE',  ( 0.000000000000000000, 0.000000000000000000, 1.000000000000000000 ) ) ;
#400 = ORIENTED_EDGE ( 'NONE', *, *, #579, .T. ) ;
#401 = PLANE ( 'NONE',  #105 ) ;
#402 = DIRECTION ( 'NONE',  ( 0.000000000000000000, 1.000000000000000000, -0.000000000000000000 ) ) ;
#403 = AXIS2_PLACEMENT_3D ( 'NONE', #691, #829, #74 ) ;
#404 = VERTEX_POINT ( 'NONE', #836 ) ;
#405 = CARTESIAN_POINT ( 'NONE',  ( -43.00000000000000000, -5.000000000000000000, -45.00000000000000000 ) ) ;
#406 = ORIENTED_EDGE ( 'NONE', *, *, #654, .T. ) ;
#407 = LINE ( 'NONE', #894, #615 ) ;
#408 = VECTOR ( 'NONE', #290, 1000.000000000000000 ) ;
#409 = LINE ( 'NONE', #38, #408 ) ;
#410 = EDGE_LOOP ( 'NONE', ( #800, #552, #479, #484 ) ) ;
#411 = ORIENTED_EDGE ( 'NONE', *, *, #543, .F. ) ;
#412 = LINE ( 'NONE', #1018, #714 ) ;
#413 = VECTOR ( 'NONE', #995, 1000.000000000000000 ) ;
#414 = LINE ( 'NONE', #749, #787 ) ;
#415 = EDGE_CURVE ( 'NONE', #631, #723, #1024, .T. ) ;
#416 = EDGE_CURVE ( 'NONE', #930, #754, #671, .T. ) ;
#417 = LINE ( 'NONE', #499, #75 ) ;
#418 = LINE ( 'NONE', #405, #511 ) ;
#419 = SHAPE_DEFINITION_REPRESENTATION ( #114, #100 ) ;
#420 = EDGE_LOOP ( 'NONE', ( #708, #259, #971, #515 ) ) ;
#421 = DIRECTION ( 'NONE',  ( 0.000000000000000000, 0.000000000000000000, 1.000000000000000000 ) ) ;
#422 =( BOUNDED_CURVE ( )  B_SPLINE_CURVE ( 3, ( #464, #536, #1047, #547 ),
 .UNSPECIFIED., .F., .T. ) 
 B_SPLINE_CURVE_WITH_KNOTS ( ( 4, 4 ),
 ( 5.515995204261210816, 7.050375410097961648 ),
 .UNSPECIFIED. ) 
 CURVE ( )  GEOMETRIC_REPRESENTATION_ITEM ( )  RATIONAL_B_SPLINE_CURVE ( ( 1.000000000000000000, 0.8132426008497409819, 0.8132426008497409819, 1.000000000000000000 ) ) 
 REPRESENTATION_ITEM ( '' )  );
#423 = DIRECTION ( 'NONE',  ( -0.000000000000000000, 1.000000000000000000, -0.000000000000000000 ) ) ;
#424 = CIRCLE ( 'NONE', #330, 16.50000000000000355 ) ;
#425 = CARTESIAN_POINT ( 'NONE',  ( 43.00000000000000711, -5.000000000000000000, -45.00000000000000000 ) ) ;
#426 = VERTEX_POINT ( 'NONE', #351 ) ;
#427 = CARTESIAN_POINT ( 'NONE',  ( -40.00000000000000000, 0.000000000000000000, -37.05511844965700874 ) ) ;
#428 = FACE_OUTER_BOUND ( 'NONE', #6, .T. ) ;
#429 = ADVANCED_FACE ( 'NONE', ( #591 ), #155, .T. ) ;
#430 = CARTESIAN_POINT ( 'NONE',  ( 43.00000000000000711, -3.000000000000000000, -43.00000000000000000 ) ) ;
#431 = DIRECTION ( 'NONE',  ( 0.000000000000000000, 0.000000000000000000, 1.000000000000000000 ) ) ;
#432 = VERTEX_POINT ( 'NONE', #927 ) ;
#433 = CARTESIAN_POINT ( 'NONE',  ( 39.02809845431140445, 5.000000000000000000, -36.08321690396842030 ) ) ;
#434 = CARTESIAN_POINT ( 'NONE',  ( -43.00000000000000000, 0.000000000000000000, 43.00000000000000000 ) ) ;
#435 = AXIS2_PLACEMENT_3D ( 'NONE', #27, #951, #688 ) ;
#436 = ADVANCED_FACE ( 'NONE', ( #83 ), #763, .T. ) ;
#437 = ADVANCED_FACE ( 'NONE', ( #428 ), #601, .T. ) ;
#438 = ADVANCED_FACE ( 'NONE', ( #180 ), #856, .T. ) ;
#439 = DIRECTION ( 'NONE',  ( 1.000000000000000000, 0.000000000000000000, -0.000000000000000000 ) ) ;
#440 = EDGE_LOOP ( 'NONE', ( #826, #541, #685, #46, #645, #305, #230, #284 ) ) ;
#441 = APPLICATION_CONTEXT ( 'automotive_design' ) ;
#442 = CARTESIAN_POINT ( 'NONE',  ( 19.99999999999998934, 5.000000000000000000, -20.00000000000001066 ) ) ;
#443 = CYLINDRICAL_SURFACE ( 'NONE', #646, 16.50000000000000000 ) ;
#444 = VECTOR ( 'NONE', #925, 1000.000000000000000 ) ;
#445 = CIRCLE ( 'NONE', #388, 16.50000000000000000 ) ;
#446 = LINE ( 'NONE', #775, #765 ) ;
#447 = CARTESIAN_POINT ( 'NONE',  ( -20.00000000000000000, 0.000000000000000000, -20.00000000000000000 ) ) ;
#448 = ORIENTED_EDGE ( 'NONE', *, *, #916, .F. ) ;
#449 = CARTESIAN_POINT ( 'NONE',  ( 35.75340584961779200, 6.696730784170934037, 38.69828739996077616 ) ) ;
#450 = CARTESIAN_POINT ( 'NONE',  ( 0.000000000000000000, 5.000000000000000000, -39.02809845431140445 ) ) ;
#451 = FACE_OUTER_BOUND ( 'NONE', #391, .T. ) ;
#452 = EDGE_LOOP ( 'NONE', ( #508, #704, #191, #841 ) ) ;
#453 = CARTESIAN_POINT ( 'NONE',  ( 37.82104513169650062, 4.999999999999998224, -39.02809845431141156 ) ) ;
#454 = ADVANCED_FACE ( 'NONE', ( #99 ), #443, .F. ) ;
#455 = EDGE_CURVE ( 'NONE', #785, #25, #546, .T. ) ;
#456 = FACE_OUTER_BOUND ( 'NONE', #912, .T. ) ;
#457 = AXIS2_PLACEMENT_3D ( 'NONE', #350, #584, #913 ) ;
#458 =( NAMED_UNIT ( * ) SI_UNIT ( $, .STERADIAN. ) SOLID_ANGLE_UNIT ( ) );
#459 = ORIENTED_EDGE ( 'NONE', *, *, #612, .F. ) ;
#460 = CARTESIAN_POINT ( 'NONE',  ( 43.00000000000000711, -3.000000000000000000, -43.00000000000000000 ) ) ;
#461 = CARTESIAN_POINT ( 'NONE',  ( -40.00000000000000000, 0.000000000000000000, -37.05511844965700874 ) ) ;
#462 = ORIENTED_EDGE ( 'NONE', *, *, #151, .T. ) ;
#463 = CIRCLE ( 'NONE', #331, 16.50000000000000000 ) ;
#464 = CARTESIAN_POINT ( 'NONE',  ( -37.05511844965700874, 0.000000000000000000, 40.00000000000000000 ) ) ;
#465 = CARTESIAN_POINT ( 'NONE',  ( 0.000000000000000000, -5.000000000000000000, 0.000000000000000000 ) ) ;
#466 = AXIS2_PLACEMENT_3D ( 'NONE', #937, #682, #340 ) ;
#467 = VECTOR ( 'NONE', #152, 1000.000000000000000 ) ;
#468 = EDGE_LOOP ( 'NONE', ( #122, #643, #605, #1044 ) ) ;
#469 = LINE ( 'NONE', #202, #596 ) ;
#470 = DIRECTION ( 'NONE',  ( 0.000000000000000000, -0.1908089953765449986, -0.9816271834476640867 ) ) ;
#471 = EDGE_LOOP ( 'NONE', ( #140, #398 ) ) ;
#472 = LINE ( 'NONE', #307, #670 ) ;
#473 = EDGE_CURVE ( 'NONE', #432, #895, #414, .T. ) ;
#474 = ORIENTED_EDGE ( 'NONE', *, *, #969, .F. ) ;
#475 = AXIS2_PLACEMENT_3D ( 'NONE', #138, #833, #224 ) ;
#476 = ORIENTED_EDGE ( 'NONE', *, *, #235, .T. ) ;
#477 = AXIS2_PLACEMENT_3D ( 'NONE', #733, #226, #127 ) ;
#478 = DIRECTION ( 'NONE',  ( -1.000000000000000000, -0.000000000000000000, -0.000000000000000000 ) ) ;
#479 = ORIENTED_EDGE ( 'NONE', *, *, #1034, .T. ) ;
#480 = ORIENTED_EDGE ( 'NONE', *, *, #39, .T. ) ;
#481 = CARTESIAN_POINT ( 'NONE',  ( -45.00000000000000000, 0.000000000000000000, 45.00000000000000000 ) ) ;
#482 = EDGE_CURVE ( 'NONE', #302, #674, #820, .T. ) ;
#483 = ORIENTED_EDGE ( 'NONE', *, *, #278, .T. ) ;
#484 = ORIENTED_EDGE ( 'NONE', *, *, #37, .T. ) ;
#485 = LINE ( 'NONE', #902, #905 ) ;
#486 = DIRECTION ( 'NONE',  ( -0.000000000000000000, 1.000000000000000000, -0.000000000000000000 ) ) ;
#487 = ORIENTED_EDGE ( 'NONE', *, *, #215, .F. ) ;
#488 = FACE_OUTER_BOUND ( 'NONE', #1068, .T. ) ;
#489 = ORIENTED_EDGE ( 'NONE', *, *, #76, .T. ) ;
#490 = DIRECTION ( 'NONE',  ( -0.000000000000000000, 1.000000000000000000, -0.000000000000000000 ) ) ;
#491 = CARTESIAN_POINT ( 'NONE',  ( 37.82104513169651483, 4.999999999999998224, 39.02809845431141156 ) ) ;
#492 = CARTESIAN_POINT ( 'NONE',  ( -39.02809845431141156, 4.999999999999998224, -37.82104513169650062 ) ) ;
#493 = CARTESIAN_POINT ( 'NONE',  ( 43.00000000000000711, -3.000000000000000000, 43.00000000000000000 ) ) ;
#494 = EDGE_LOOP ( 'NONE', ( #821, #976, #747, #992 ) ) ;
#495 = CARTESIAN_POINT ( 'NONE',  ( 40.00000000000000000, 0.000000000000000000, -37.05511844965700874 ) ) ;
#496 = AXIS2_PLACEMENT_3D ( 'NONE', #434, #93, #168 ) ;
#497 = CARTESIAN_POINT ( 'NONE',  ( 19.99999999999998934, 0.000000000000000000, -20.00000000000001066 ) ) ;
#498 = EDGE_CURVE ( 'NONE', #690, #871, #469, .T. ) ;
#499 = CARTESIAN_POINT ( 'NONE',  ( 40.00000000000000000, 0.000000000000000000, 0.000000000000000000 ) ) ;
#500 =( LENGTH_UNIT ( ) NAMED_UNIT ( * ) SI_UNIT ( .MILLI., .METRE. ) );
#501 = VECTOR ( 'NONE', #1030, 1000.000000000000000 ) ;
#502 = ORIENTED_EDGE ( 'NONE', *, *, #743, .T. ) ;
#503 = PLANE ( 'NONE',  #725 ) ;
#504 = LINE ( 'NONE', #510, #636 ) ;
#505 = ORIENTED_EDGE ( 'NONE', *, *, #132, .F. ) ;
#506 = LINE ( 'NONE', #336, #444 ) ;
#507 = UNCERTAINTY_MEASURE_WITH_UNIT (LENGTH_MEASURE( 1.000000000000000082E-05 ), #382, 'distance_accuracy_value', 'NONE');
#508 = ORIENTED_EDGE ( 'NONE', *, *, #149, .T. ) ;
#509 = DIRECTION ( 'NONE',  ( -0.1874275599918959201, 0.9642312064598242971, 0.1874275599918959201 ) ) ;
#510 = CARTESIAN_POINT ( 'NONE',  ( 20.00000000000000000, 0.000000000000000000, 36.50000000000000000 ) ) ;
#511 = VECTOR ( 'NONE', #831, 1000.000000000000000 ) ;
#512 = AXIS2_PLACEMENT_3D ( 'NONE', #460, #285, #954 ) ;
#513 = DIRECTION ( 'NONE',  ( -0.000000000000000000, -1.000000000000000000, 0.000000000000000000 ) ) ;
#514 = FACE_OUTER_BOUND ( 'NONE', #813, .T. ) ;
#515 = ORIENTED_EDGE ( 'NONE', *, *, #667, .F. ) ;
#516 = DIRECTION ( 'NONE',  ( 0.000000000000000000, 0.000000000000000000, -1.000000000000000000 ) ) ;
#517 = EDGE_CURVE ( 'NONE', #557, #55, #194, .T. ) ;
#518 = CARTESIAN_POINT ( 'NONE',  ( 45.00000000000001421, -3.000000000000000000, 43.00000000000000000 ) ) ;
#519 = FACE_OUTER_BOUND ( 'NONE', #599, .T. ) ;
#520 = CYLINDRICAL_SURFACE ( 'NONE', #753, 2.000000000000001776 ) ;
#521 = VERTEX_POINT ( 'NONE', #26 ) ;
#522 = DIRECTION ( 'NONE',  ( 0.000000000000000000, 0.000000000000000000, -1.000000000000000000 ) ) ;
#523 = DIRECTION ( 'NONE',  ( -0.1874275599918959201, -0.9642312064598242971, -0.1874275599918959201 ) ) ;
#524 = CYLINDRICAL_SURFACE ( 'NONE', #1045, 2.999999999999997780 ) ;
#525 = DIRECTION ( 'NONE',  ( -0.9816271834476639757, 0.1908089953765448599, 0.000000000000000000 ) ) ;
#526 = VERTEX_POINT ( 'NONE', #370 ) ;
#527 = DIRECTION ( 'NONE',  ( 0.000000000000000000, 0.000000000000000000, 1.000000000000000000 ) ) ;
#528 = VECTOR ( 'NONE', #900, 1000.000000000000000 ) ;
#529 = AXIS2_PLACEMENT_3D ( 'NONE', #1069, #66, #221 ) ;
#530 = LINE ( 'NONE', #44, #128 ) ;
#531 = CARTESIAN_POINT ( 'NONE',  ( 43.00000000000000711, -3.000000000000000000, 43.00000000000000000 ) ) ;
#532 = ORIENTED_EDGE ( 'NONE', *, *, #641, .F. ) ;
#533 = EDGE_CURVE ( 'NONE', #91, #306, #843, .T. ) ;
#534 = EDGE_CURVE ( 'NONE', #1066, #930, #422, .T. ) ;
#535 = EDGE_CURVE ( 'NONE', #632, #320, #17, .T. ) ;
#536 = CARTESIAN_POINT ( 'NONE',  ( -38.79294667738510327, 0.000000000000000000, 39.99999999999999289 ) ) ;
#537 = ADVANCED_FACE ( 'NONE', ( #293 ), #697, .F. ) ;
#538 = DIRECTION ( 'NONE',  ( 1.000000000000000000, 0.000000000000000000, 0.000000000000000000 ) ) ;
#539 = ORIENTED_EDGE ( 'NONE', *, *, #232, .F. ) ;
#540 = FACE_OUTER_BOUND ( 'NONE', #1027, .T. ) ;
#541 = ORIENTED_EDGE ( 'NONE', *, *, #533, .T. ) ;
#542 = CYLINDRICAL_SURFACE ( 'NONE', #264, 2.000000000000001776 ) ;
#543 = EDGE_CURVE ( 'NONE', #754, #631, #957, .T. ) ;
#544 = CARTESIAN_POINT ( 'NONE',  ( 45.00000000000001421, 0.000000000000000000, 43.00000000000000000 ) ) ;
#545 = ORIENTED_EDGE ( 'NONE', *, *, #969, .T. ) ;
#546 = CIRCLE ( 'NONE', #403, 16.50000000000000000 ) ;
#547 = CARTESIAN_POINT ( 'NONE',  ( -40.00000000000000000, 0.000000000000000000, 37.05511844965700874 ) ) ;
#548 = EDGE_CURVE ( 'NONE', #834, #711, #238, .T. ) ;
#549 = ADVANCED_FACE ( 'NONE', ( #1029 ), #542, .T. ) ;
#550 = CARTESIAN_POINT ( 'NONE',  ( 35.75340584961778490, 6.124303798041298208, 35.75340584961778490 ) ) ;
#551 = CIRCLE ( 'NONE', #360, 16.50000000000000355 ) ;
#552 = ORIENTED_EDGE ( 'NONE', *, *, #1007, .T. ) ;
#553 = VERTEX_POINT ( 'NONE', #124 ) ;
#554 = DIRECTION ( 'NONE',  ( -0.000000000000000000, 1.000000000000000000, -0.000000000000000000 ) ) ;
#555 = ADVANCED_FACE ( 'NONE', ( #115 ), #877, .T. ) ;
#556 = VECTOR ( 'NONE', #107, 1000.000000000000000 ) ;
#557 = VERTEX_POINT ( 'NONE', #30 ) ;
#558 = EDGE_LOOP ( 'NONE', ( #847, #58, #966, #1083 ) ) ;
#559 = CARTESIAN_POINT ( 'NONE',  ( -39.02809845431140445, 5.000000000000000000, -36.08321690396841319 ) ) ;
#560 = ORIENTED_EDGE ( 'NONE', *, *, #76, .F. ) ;
#561 = AXIS2_PLACEMENT_3D ( 'NONE', #731, #745, #569 ) ;
#562 = ORIENTED_EDGE ( 'NONE', *, *, #802, .T. ) ;
#563 = CARTESIAN_POINT ( 'NONE',  ( -45.00000000000000000, -5.000000000000000000, 45.00000000000000000 ) ) ;
#564 = EDGE_CURVE ( 'NONE', #895, #881, #732, .T. ) ;
#565 = VERTEX_POINT ( 'NONE', #1053 ) ;
#566 = DIRECTION ( 'NONE',  ( -0.000000000000000000, -1.000000000000000000, 0.000000000000000000 ) ) ;
#567 = CARTESIAN_POINT ( 'NONE',  ( 37.05511844965700874, 0.000000000000000000, 40.00000000000000000 ) ) ;
#568 = ORIENTED_EDGE ( 'NONE', *, *, #37, .F. ) ;
#569 = DIRECTION ( 'NONE',  ( 0.000000000000000000, 0.000000000000000000, 1.000000000000000000 ) ) ;
#570 = AXIS2_PLACEMENT_3D ( 'NONE', #262, #597, #269 ) ;
#571 = ORIENTED_EDGE ( 'NONE', *, *, #1007, .F. ) ;
#572 = CARTESIAN_POINT ( 'NONE',  ( -39.02809845431140445, 5.000000000000000000, 36.08321690396842030 ) ) ;
#573 = CARTESIAN_POINT ( 'NONE',  ( -19.99999999999999289, 0.000000000000000000, 3.500000000000003109 ) ) ;
#574 = CARTESIAN_POINT ( 'NONE',  ( 19.99999999999998934, 0.000000000000000000, -3.500000000000010214 ) ) ;
#575 = AXIS2_PLACEMENT_3D ( 'NONE', #348, #183, #1021 ) ;
#576 = VERTEX_POINT ( 'NONE', #941 ) ;
#577 = DIRECTION ( 'NONE',  ( 0.000000000000000000, 0.000000000000000000, 1.000000000000000000 ) ) ;
#578 = AXIS2_PLACEMENT_3D ( 'NONE', #724, #395, #213 ) ;
#579 = EDGE_CURVE ( 'NONE', #225, #625, #106, .T. ) ;
#580 = DIRECTION ( 'NONE',  ( 0.000000000000000000, -0.000000000000000000, -1.000000000000000000 ) ) ;
#581 = ORIENTED_EDGE ( 'NONE', *, *, #218, .F. ) ;
#582 = CARTESIAN_POINT ( 'NONE',  ( -45.00000000000000000, 0.000000000000000000, -45.00000000000000000 ) ) ;
#583 = ORIENTED_EDGE ( 'NONE', *, *, #916, .T. ) ;
#584 = DIRECTION ( 'NONE',  ( 0.000000000000000000, 0.000000000000000000, 1.000000000000000000 ) ) ;
#585 = DIRECTION ( 'NONE',  ( 1.000000000000000000, 0.000000000000000000, -0.000000000000000000 ) ) ;
#586 = LINE ( 'NONE', #425, #746 ) ;
#587 = DIRECTION ( 'NONE',  ( 0.000000000000000000, 1.000000000000000000, -0.000000000000000000 ) ) ;
#588 = ORIENTED_EDGE ( 'NONE', *, *, #1046, .T. ) ;
#589 = CARTESIAN_POINT ( 'NONE',  ( -43.00000000000000000, -3.000000000000000000, -43.00000000000000000 ) ) ;
#590 = VECTOR ( 'NONE', #248, 1000.000000000000000 ) ;
#591 = FACE_OUTER_BOUND ( 'NONE', #726, .T. ) ;
#592 = CARTESIAN_POINT ( 'NONE',  ( 0.000000000000000000, 0.000000000000000000, -40.00000000000000000 ) ) ;
#593 = ORIENTED_EDGE ( 'NONE', *, *, #865, .F. ) ;
#594 = DIRECTION ( 'NONE',  ( 0.000000000000000000, -1.000000000000000000, 0.000000000000000000 ) ) ;
#595 = DIRECTION ( 'NONE',  ( 0.000000000000000000, 0.000000000000000000, 1.000000000000000000 ) ) ;
#596 = VECTOR ( 'NONE', #709, 1000.000000000000227 ) ;
#597 = DIRECTION ( 'NONE',  ( 0.000000000000000000, 1.000000000000000000, -0.000000000000000000 ) ) ;
#598 = DIRECTION ( 'NONE',  ( -1.000000000000000000, 0.000000000000000000, 0.000000000000000000 ) ) ;
#599 = EDGE_LOOP ( 'NONE', ( #640, #1004, #940, #532 ) ) ;
#600 = LINE ( 'NONE', #933, #304 ) ;
#601 = CYLINDRICAL_SURFACE ( 'NONE', #466, 2.000000000000001776 ) ;
#602 = AXIS2_PLACEMENT_3D ( 'NONE', #310, #891, #652 ) ;
#603 = LINE ( 'NONE', #450, #216 ) ;
#604 = CARTESIAN_POINT ( 'NONE',  ( 19.99999999999998934, 0.000000000000000000, -20.00000000000001066 ) ) ;
#605 = ORIENTED_EDGE ( 'NONE', *, *, #1049, .F. ) ;
#606 = CARTESIAN_POINT ( 'NONE',  ( -45.00000000000000000, -5.000000000000000000, 45.00000000000000000 ) ) ;
#607 = CARTESIAN_POINT ( 'NONE',  ( -19.99999999999999645, 0.000000000000000000, 20.00000000000000355 ) ) ;
#608 = DIRECTION ( 'NONE',  ( 0.000000000000000000, 0.000000000000000000, -1.000000000000000000 ) ) ;
#609 = AXIS2_PLACEMENT_3D ( 'NONE', #67, #988, #121 ) ;
#610 = ADVANCED_FACE ( 'NONE', ( #618 ), #280, .T. ) ;
#611 = ORIENTED_EDGE ( 'NONE', *, *, #169, .F. ) ;
#612 = EDGE_CURVE ( 'NONE', #72, #526, #62, .T. ) ;
#613 = DIRECTION ( 'NONE',  ( -0.000000000000000000, -1.000000000000000000, 0.000000000000000000 ) ) ;
#614 = PRODUCT_DEFINITION_FORMATION_WITH_SPECIFIED_SOURCE ( 'ANY', '', #195, .NOT_KNOWN. ) ;
#615 = VECTOR ( 'NONE', #806, 1000.000000000000000 ) ;
#616 = FACE_OUTER_BOUND ( 'NONE', #668, .T. ) ;
#617 = ORIENTED_EDGE ( 'NONE', *, *, #20, .T. ) ;
#618 = FACE_OUTER_BOUND ( 'NONE', #420, .T. ) ;
#619 = CARTESIAN_POINT ( 'NONE',  ( 35.75340584961778490, 6.124303798041298208, -35.75340584961778490 ) ) ;
#620 = ADVANCED_FACE ( 'NONE', ( #540 ), #375, .F. ) ;
#621 = ORIENTED_EDGE ( 'NONE', *, *, #915, .F. ) ;
#622 = EDGE_CURVE ( 'NONE', #576, #921, #463, .T. ) ;
#623 = CARTESIAN_POINT ( 'NONE',  ( -37.05511844965700874, 0.000000000000000000, -40.00000000000000000 ) ) ;
#624 = EDGE_CURVE ( 'NONE', #1092, #129, #997, .T. ) ;
#625 = VERTEX_POINT ( 'NONE', #389 ) ;
#626 = ADVANCED_FACE ( 'NONE', ( #968 ), #638, .F. ) ;
#627 =( NAMED_UNIT ( * ) PLANE_ANGLE_UNIT ( ) SI_UNIT ( $, .RADIAN. ) );
#628 = CARTESIAN_POINT ( 'NONE',  ( 43.00000000000000711, -5.000000000000000000, 43.00000000000000000 ) ) ;
#629 = AXIS2_PLACEMENT_3D ( 'NONE', #493, #145, #342 ) ;
#630 = DIRECTION ( 'NONE',  ( 0.000000000000000000, 1.000000000000000000, -0.000000000000000000 ) ) ;
#631 = VERTEX_POINT ( 'NONE', #559 ) ;
#632 = VERTEX_POINT ( 'NONE', #56 ) ;
#633 = SURFACE_SIDE_STYLE ('',( #297 ) ) ;
#634 = CARTESIAN_POINT ( 'NONE',  ( -37.05511844965700874, 0.000000000000000000, -40.00000000000000000 ) ) ;
#635 = PRODUCT_DEFINITION ( 'UNKNOWN', '', #614, #950 ) ;
#636 = VECTOR ( 'NONE', #329, 1000.000000000000000 ) ;
#637 = ORIENTED_EDGE ( 'NONE', *, *, #815, .T. ) ;
#638 = PLANE ( 'NONE',  #477 ) ;
#639 = STYLED_ITEM ( 'NONE', ( #212 ), #858 ) ;
#640 = ORIENTED_EDGE ( 'NONE', *, *, #548, .F. ) ;
#641 = EDGE_CURVE ( 'NONE', #711, #737, #472, .T. ) ;
#642 = ADVANCED_FACE ( 'NONE', ( #717 ), #801, .F. ) ;
#643 = ORIENTED_EDGE ( 'NONE', *, *, #169, .T. ) ;
#644 = DIRECTION ( 'NONE',  ( 0.1874275599918959201, -0.9642312064598242971, -0.1874275599918959201 ) ) ;
#645 = ORIENTED_EDGE ( 'NONE', *, *, #1034, .F. ) ;
#646 = AXIS2_PLACEMENT_3D ( 'NONE', #497, #358, #1090 ) ;
#647 = DIRECTION ( 'NONE',  ( 0.000000000000000000, 1.000000000000000000, -0.000000000000000000 ) ) ;
#648 = LINE ( 'NONE', #734, #853 ) ;
#649 = DIRECTION ( 'NONE',  ( 0.000000000000000000, 0.000000000000000000, 1.000000000000000000 ) ) ;
#650 = FACE_BOUND ( 'NONE', #906, .T. ) ;
#651 = VERTEX_POINT ( 'NONE', #217 ) ;
#652 = DIRECTION ( 'NONE',  ( 0.000000000000000000, 0.000000000000000000, 1.000000000000000000 ) ) ;
#653 = DIRECTION ( 'NONE',  ( 0.000000000000000000, 0.000000000000000000, -1.000000000000000000 ) ) ;
#654 = EDGE_CURVE ( 'NONE', #565, #12, #131, .T. ) ;
#655 = LINE ( 'NONE', #322, #889 ) ;
#656 = ORIENTED_EDGE ( 'NONE', *, *, #641, .T. ) ;
#657 = CYLINDRICAL_SURFACE ( 'NONE', #84, 2.000000000000001776 ) ;
#658 = EDGE_CURVE ( 'NONE', #45, #625, #407, .T. ) ;
#659 = ORIENTED_EDGE ( 'NONE', *, *, #133, .F. ) ;
#660 = CARTESIAN_POINT ( 'NONE',  ( 20.00000000000000000, 5.000000000000000000, 36.50000000000000000 ) ) ;
#661 = DIRECTION ( 'NONE',  ( 0.000000000000000000, 0.000000000000000000, 1.000000000000000000 ) ) ;
#662 = CARTESIAN_POINT ( 'NONE',  ( 43.00000000000000711, -3.000000000000000000, 45.00000000000000000 ) ) ;
#663 = AXIS2_PLACEMENT_3D ( 'NONE', #703, #955, #199 ) ;
#664 = CARTESIAN_POINT ( 'NONE',  ( -45.00000000000000000, -5.000000000000000000, -43.00000000000000000 ) ) ;
#665 = FACE_BOUND ( 'NONE', #924, .T. ) ;
#666 = CIRCLE ( 'NONE', #947, 2.000000000000001776 ) ;
#667 = EDGE_CURVE ( 'NONE', #404, #300, #982, .T. ) ;
#668 = EDGE_LOOP ( 'NONE', ( #81, #250, #617, #1036 ) ) ;
#669 = CARTESIAN_POINT ( 'NONE',  ( 20.00000000000000000, 0.000000000000000000, 20.00000000000000000 ) ) ;
#670 = VECTOR ( 'NONE', #644, 1000.000000000000227 ) ;
#671 = LINE ( 'NONE', #844, #68 ) ;
#672 = VERTEX_POINT ( 'NONE', #896 ) ;
#673 = CARTESIAN_POINT ( 'NONE',  ( -37.05511844965700874, 0.000000000000000000, 40.00000000000000000 ) ) ;
#674 = VERTEX_POINT ( 'NONE', #822 ) ;
#675 = FILL_AREA_STYLE_COLOUR ( '', #201 ) ;
#676 = DIRECTION ( 'NONE',  ( 0.000000000000000000, 1.000000000000000000, -0.000000000000000000 ) ) ;
#677 = ORIENTED_EDGE ( 'NONE', *, *, #1057, .F. ) ;
#678 = CARTESIAN_POINT ( 'NONE',  ( 43.00000000000000711, -5.000000000000000000, -43.00000000000000000 ) ) ;
#679 = ORIENTED_EDGE ( 'NONE', *, *, #373, .T. ) ;
#680 = EDGE_CURVE ( 'NONE', #754, #45, #43, .T. ) ;
#681 = CARTESIAN_POINT ( 'NONE',  ( 37.05511844965700874, 0.000000000000000000, -40.00000000000000000 ) ) ;
#682 = DIRECTION ( 'NONE',  ( 0.000000000000000000, 0.000000000000000000, -1.000000000000000000 ) ) ;
#683 = DIRECTION ( 'NONE',  ( -0.000000000000000000, 1.000000000000000000, -0.000000000000000000 ) ) ;
#684 = DIRECTION ( 'NONE',  ( 0.000000000000000000, 1.000000000000000000, -0.000000000000000000 ) ) ;
#685 = ORIENTED_EDGE ( 'NONE', *, *, #915, .T. ) ;
#686 = CARTESIAN_POINT ( 'NONE',  ( -39.02809845431140445, 5.000000000000000000, 36.08321690396842030 ) ) ;
#687 = CARTESIAN_POINT ( 'NONE',  ( 40.00000000000000000, 0.000000000000000000, 0.000000000000000000 ) ) ;
#688 = DIRECTION ( 'NONE',  ( -1.000000000000000000, 0.000000000000000000, 0.000000000000000000 ) ) ;
#689 = DIRECTION ( 'NONE',  ( 0.000000000000000000, 0.000000000000000000, 1.000000000000000000 ) ) ;
#690 = VERTEX_POINT ( 'NONE', #634 ) ;
#691 = CARTESIAN_POINT ( 'NONE',  ( 19.99999999999998934, 5.000000000000000000, -20.00000000000001066 ) ) ;
#692 = VECTOR ( 'NONE', #849, 1000.000000000000000 ) ;
#693 = DIRECTION ( 'NONE',  ( -1.000000000000000000, 0.000000000000000000, 0.000000000000000000 ) ) ;
#694 = LINE ( 'NONE', #1015, #978 ) ;
#695 = ORIENTED_EDGE ( 'NONE', *, *, #658, .T. ) ;
#696 = EDGE_CURVE ( 'NONE', #320, #364, #741, .T. ) ;
#697 = PLANE ( 'NONE',  #878 ) ;
#698 = CARTESIAN_POINT ( 'NONE',  ( -35.75340584961778490, 6.124303798041298208, -35.75340584961778490 ) ) ;
#699 = CARTESIAN_POINT ( 'NONE',  ( 45.00000000000001421, 0.000000000000000000, 45.00000000000000000 ) ) ;
#700 = ORIENTED_EDGE ( 'NONE', *, *, #612, .T. ) ;
#701 = CARTESIAN_POINT ( 'NONE',  ( -43.00000000000000000, -5.000000000000000000, 43.00000000000000000 ) ) ;
#702 = CIRCLE ( 'NONE', #629, 2.000000000000001776 ) ;
#703 = CARTESIAN_POINT ( 'NONE',  ( -19.99999999999999645, 0.000000000000000000, 20.00000000000000355 ) ) ;
#704 = ORIENTED_EDGE ( 'NONE', *, *, #743, .F. ) ;
#705 = DIRECTION ( 'NONE',  ( 0.000000000000000000, 1.000000000000000000, -0.000000000000000000 ) ) ;
#706 = FACE_OUTER_BOUND ( 'NONE', #1017, .T. ) ;
#707 = ADVANCED_FACE ( 'NONE', ( #814 ), #142, .T. ) ;
#708 = ORIENTED_EDGE ( 'NONE', *, *, #384, .F. ) ;
#709 = DIRECTION ( 'NONE',  ( 0.1874275599918959201, 0.9642312064598242971, 0.1874275599918959201 ) ) ;
#710 = CARTESIAN_POINT ( 'NONE',  ( 0.000000000000000000, 0.000000000000000000, 40.00000000000000000 ) ) ;
#711 = VERTEX_POINT ( 'NONE', #1064 ) ;
#712 = ORIENTED_EDGE ( 'NONE', *, *, #874, .F. ) ;
#713 = CIRCLE ( 'NONE', #575, 2.000000000000001776 ) ;
#714 = VECTOR ( 'NONE', #907, 1000.000000000000000 ) ;
#715 = EDGE_LOOP ( 'NONE', ( #489, #545, #677 ) ) ;
#716 = ORIENTED_EDGE ( 'NONE', *, *, #482, .F. ) ;
#717 = FACE_OUTER_BOUND ( 'NONE', #244, .T. ) ;
#718 = EDGE_CURVE ( 'NONE', #674, #921, #485, .T. ) ;
#719 = EDGE_CURVE ( 'NONE', #921, #576, #243, .T. ) ;
#720 = ADVANCED_FACE ( 'NONE', ( #60 ), #401, .T. ) ;
#721 = ADVANCED_FACE ( 'NONE', ( #986 ), #328, .F. ) ;
#722 = VERTEX_POINT ( 'NONE', #87 ) ;
#723 = VERTEX_POINT ( 'NONE', #427 ) ;
#724 = CARTESIAN_POINT ( 'NONE',  ( -20.00000000000000000, 0.000000000000000000, -20.00000000000000000 ) ) ;
#725 = AXIS2_PLACEMENT_3D ( 'NONE', #835, #82, #339 ) ;
#726 = EDGE_LOOP ( 'NONE', ( #480, #783, #233, #588 ) ) ;
#727 = DIRECTION ( 'NONE',  ( 0.000000000000000000, 0.000000000000000000, 1.000000000000000000 ) ) ;
#728 = LINE ( 'NONE', #148, #501 ) ;
#729 = LINE ( 'NONE', #1070, #1085 ) ;
#730 = EDGE_LOOP ( 'NONE', ( #1072, #277 ) ) ;
#731 = CARTESIAN_POINT ( 'NONE',  ( 19.99999999999998934, 0.000000000000000000, -20.00000000000001066 ) ) ;
#732 = CIRCLE ( 'NONE', #1071, 16.49999999999999645 ) ;
#733 = CARTESIAN_POINT ( 'NONE',  ( -45.00000000000000000, -5.000000000000000000, -45.00000000000000000 ) ) ;
#734 = CARTESIAN_POINT ( 'NONE',  ( 39.02809845431140445, 5.000000000000000000, 0.000000000000000000 ) ) ;
#735 = EDGE_CURVE ( 'NONE', #737, #426, #359, .T. ) ;
#736 = EDGE_CURVE ( 'NONE', #888, #432, #298, .T. ) ;
#737 = VERTEX_POINT ( 'NONE', #167 ) ;
#738 = CARTESIAN_POINT ( 'NONE',  ( 45.00000000000001421, 0.000000000000000000, -42.99999999999997158 ) ) ;
#739 = AXIS2_PLACEMENT_3D ( 'NONE', #550, #125, #470 ) ;
#740 = ORIENTED_EDGE ( 'NONE', *, *, #579, .F. ) ;
#741 = LINE ( 'NONE', #481, #756 ) ;
#742 = DIRECTION ( 'NONE',  ( 0.000000000000000000, 0.000000000000000000, 1.000000000000000000 ) ) ;
#743 = EDGE_CURVE ( 'NONE', #12, #164, #1000, .T. ) ;
#744 = CARTESIAN_POINT ( 'NONE',  ( -37.82104513169651483, 4.999999999999998224, -39.02809845431141156 ) ) ;
#745 = DIRECTION ( 'NONE',  ( 0.000000000000000000, 1.000000000000000000, -0.000000000000000000 ) ) ;
#746 = VECTOR ( 'NONE', #513, 1000.000000000000000 ) ;
#747 = ORIENTED_EDGE ( 'NONE', *, *, #777, .F. ) ;
#748 = CARTESIAN_POINT ( 'NONE',  ( 40.00000000000000000, 0.000000000000000000, 37.05511844965700874 ) ) ;
#749 = CARTESIAN_POINT ( 'NONE',  ( 20.00000000000000355, 0.000000000000000000, 3.500000000000003109 ) ) ;
#750 = AXIS2_PLACEMENT_3D ( 'NONE', #111, #683, #784 ) ;
#751 = CARTESIAN_POINT ( 'NONE',  ( -36.08321690396841319, 5.000000000000000000, 39.02809845431140445 ) ) ;
#752 = LINE ( 'NONE', #760, #296 ) ;
#753 = AXIS2_PLACEMENT_3D ( 'NONE', #282, #598, #782 ) ;
#754 = VERTEX_POINT ( 'NONE', #686 ) ;
#755 = FACE_OUTER_BOUND ( 'NONE', #861, .T. ) ;
#756 = VECTOR ( 'NONE', #52, 1000.000000000000000 ) ;
#757 = CARTESIAN_POINT ( 'NONE',  ( -43.00000000000000000, 0.000000000000000000, -45.00000000000000000 ) ) ;
#758 = EDGE_CURVE ( 'NONE', #25, #785, #445, .T. ) ;
#759 = ORIENTED_EDGE ( 'NONE', *, *, #736, .F. ) ;
#760 = CARTESIAN_POINT ( 'NONE',  ( -37.15856945939841438, -0.5322093076213476603, 40.10345100974140564 ) ) ;
#761 = ORIENTED_EDGE ( 'NONE', *, *, #936, .T. ) ;
#762 = CARTESIAN_POINT ( 'NONE',  ( -43.00000000000000000, -3.000000000000000000, 43.00000000000000000 ) ) ;
#763 = SPHERICAL_SURFACE ( 'NONE', #301, 2.000000000000000000 ) ;
#764 = DIRECTION ( 'NONE',  ( -1.000000000000000000, 0.000000000000000000, 0.000000000000000000 ) ) ;
#765 = VECTOR ( 'NONE', #281, 1000.000000000000000 ) ;
#766 = EDGE_LOOP ( 'NONE', ( #141, #679, #153, #1063 ) ) ;
#767 = FACE_OUTER_BOUND ( 'NONE', #452, .T. ) ;
#768 = FACE_OUTER_BOUND ( 'NONE', #440, .T. ) ;
#769 = CARTESIAN_POINT ( 'NONE',  ( 45.00000000000001421, -5.000000000000000000, -43.00000000000000000 ) ) ;
#770 = FACE_OUTER_BOUND ( 'NONE', #854, .T. ) ;
#771 = ORIENTED_EDGE ( 'NONE', *, *, #718, .F. ) ;
#772 = AXIS2_PLACEMENT_3D ( 'NONE', #96, #270, #354 ) ;
#773 = LINE ( 'NONE', #3, #692 ) ;
#774 = AXIS2_PLACEMENT_3D ( 'NONE', #47, #490, #885 ) ;
#775 = CARTESIAN_POINT ( 'NONE',  ( 43.00000000000000711, -5.000000000000000000, 45.00000000000000000 ) ) ;
#776 = DIRECTION ( 'NONE',  ( -0.1908089953765448599, -0.9816271834476639757, 0.000000000000000000 ) ) ;
#777 = EDGE_CURVE ( 'NONE', #930, #723, #412, .T. ) ;
#778 = ORIENTED_EDGE ( 'NONE', *, *, #214, .F. ) ;
#779 = DIRECTION ( 'NONE',  ( -0.1874275599918959201, 0.9642312064598242971, -0.1874275599918959201 ) ) ;
#780 = VECTOR ( 'NONE', #523, 1000.000000000000227 ) ;
#781 = CARTESIAN_POINT ( 'NONE',  ( 39.99999999999999289, 0.000000000000000000, 38.79294667738510327 ) ) ;
#782 = DIRECTION ( 'NONE',  ( 0.000000000000000000, 0.000000000000000000, 1.000000000000000000 ) ) ;
#783 = ORIENTED_EDGE ( 'NONE', *, *, #850, .T. ) ;
#784 = DIRECTION ( 'NONE',  ( 0.000000000000000000, 0.000000000000000000, 1.000000000000000000 ) ) ;
#785 = VERTEX_POINT ( 'NONE', #855 ) ;
#786 = DIRECTION ( 'NONE',  ( -0.000000000000000000, 1.000000000000000000, -0.000000000000000000 ) ) ;
#787 = VECTOR ( 'NONE', #423, 1000.000000000000000 ) ;
#788 = CARTESIAN_POINT ( 'NONE',  ( -39.99999999999999289, 0.000000000000000000, -38.79294667738510327 ) ) ;
#789 = CIRCLE ( 'NONE', #974, 2.000000000000001776 ) ;
#790 = VERTEX_POINT ( 'NONE', #748 ) ;
#791 = DIRECTION ( 'NONE',  ( 0.000000000000000000, 1.000000000000000000, -0.000000000000000000 ) ) ;
#792 = VECTOR ( 'NONE', #585, 1000.000000000000000 ) ;
#793 = VECTOR ( 'NONE', #70, 1000.000000000000000 ) ;
#794 = FACE_OUTER_BOUND ( 'NONE', #295, .T. ) ;
#795 = EDGE_LOOP ( 'NONE', ( #197, #385, #50 ) ) ;
#796 = CARTESIAN_POINT ( 'NONE',  ( 39.02809845431140445, 5.000000000000000000, -36.08321690396842030 ) ) ;
#797 = CARTESIAN_POINT ( 'NONE',  ( 39.02809845431140445, 5.000000000000000000, 36.08321690396841319 ) ) ;
#798 = EDGE_LOOP ( 'NONE', ( #343, #271, #387, #611 ) ) ;
#799 = AXIS2_PLACEMENT_3D ( 'NONE', #311, #402, #742 ) ;
#800 = ORIENTED_EDGE ( 'NONE', *, *, #133, .T. ) ;
#801 = CYLINDRICAL_SURFACE ( 'NONE', #949, 16.50000000000000000 ) ;
#802 = EDGE_CURVE ( 'NONE', #300, #12, #1055, .T. ) ;
#803 = VECTOR ( 'NONE', #522, 1000.000000000000000 ) ;
#804 = ORIENTED_EDGE ( 'NONE', *, *, #272, .T. ) ;
#805 = ORIENTED_EDGE ( 'NONE', *, *, #232, .T. ) ;
#806 = DIRECTION ( 'NONE',  ( 1.000000000000000000, -0.000000000000000000, -0.000000000000000000 ) ) ;
#807 = ORIENTED_EDGE ( 'NONE', *, *, #548, .T. ) ;
#808 = ORIENTED_EDGE ( 'NONE', *, *, #777, .T. ) ;
#809 = CARTESIAN_POINT ( 'NONE',  ( -36.08321690396841319, 5.000000000000000000, 39.02809845431140445 ) ) ;
#810 = DIRECTION ( 'NONE',  ( -0.000000000000000000, 1.000000000000000000, -0.000000000000000000 ) ) ;
#811 = VERTEX_POINT ( 'NONE', #1084 ) ;
#812 = DIRECTION ( 'NONE',  ( -0.000000000000000000, 1.000000000000000000, -0.000000000000000000 ) ) ;
#813 = EDGE_LOOP ( 'NONE', ( #868, #759, #890, #462 ) ) ;
#814 = FACE_OUTER_BOUND ( 'NONE', #901, .T. ) ;
#815 = EDGE_CURVE ( 'NONE', #55, #521, #958, .T. ) ;
#816 = CYLINDRICAL_SURFACE ( 'NONE', #323, 2.000000000000001776 ) ;
#817 = EDGE_CURVE ( 'NONE', #811, #222, #396, .T. ) ;
#818 = ORIENTED_EDGE ( 'NONE', *, *, #23, .T. ) ;
#819 = DIRECTION ( 'NONE',  ( -0.1874275599918959756, -0.9642312064598245192, 0.1874275599918959756 ) ) ;
#820 = CIRCLE ( 'NONE', #206, 16.50000000000000000 ) ;
#821 = ORIENTED_EDGE ( 'NONE', *, *, #543, .T. ) ;
#822 = CARTESIAN_POINT ( 'NONE',  ( -19.99999999999999645, 0.000000000000000000, 36.50000000000000711 ) ) ;
#823 = DIRECTION ( 'NONE',  ( -0.000000000000000000, -1.000000000000000000, -0.000000000000000000 ) ) ;
#824 = CARTESIAN_POINT ( 'NONE',  ( -39.02809845431140445, 5.000000000000000000, -36.08321690396841319 ) ) ;
#825 = VECTOR ( 'NONE', #376, 1000.000000000000000 ) ;
#826 = ORIENTED_EDGE ( 'NONE', *, *, #1049, .T. ) ;
#827 = ADVANCED_FACE ( 'NONE', ( #848 ), #240, .T. ) ;
#828 = CARTESIAN_POINT ( 'NONE',  ( -43.00000000000000000, -5.000000000000000000, -45.00000000000000000 ) ) ;
#829 = DIRECTION ( 'NONE',  ( 0.000000000000000000, 1.000000000000000000, -0.000000000000000000 ) ) ;
#830 = DIRECTION ( 'NONE',  ( 0.000000000000000000, 0.000000000000000000, -1.000000000000000000 ) ) ;
#831 = DIRECTION ( 'NONE',  ( 0.000000000000000000, 1.000000000000000000, -0.000000000000000000 ) ) ;
#832 = CIRCLE ( 'NONE', #274, 2.000000000000001776 ) ;
#833 = DIRECTION ( 'NONE',  ( 0.000000000000000000, 0.000000000000000000, 1.000000000000000000 ) ) ;
#834 = VERTEX_POINT ( 'NONE', #433 ) ;
#835 = CARTESIAN_POINT ( 'NONE',  ( 45.00000000000001421, -5.000000000000000000, 45.00000000000000000 ) ) ;
#836 = CARTESIAN_POINT ( 'NONE',  ( -43.00000000000000000, 0.000000000000000000, 45.00000000000000000 ) ) ;
#837 = EDGE_CURVE ( 'NONE', #72, #565, #98, .T. ) ;
#838 = ADVANCED_FACE ( 'NONE', ( #767 ), #7, .T. ) ;
#839 = EDGE_CURVE ( 'NONE', #526, #651, #162, .T. ) ;
#840 = EDGE_LOOP ( 'NONE', ( #126, #380, #808, #357, #960, #1040, #390, #109 ) ) ;
#841 = ORIENTED_EDGE ( 'NONE', *, *, #333, .F. ) ;
#842 = CARTESIAN_POINT ( 'NONE',  ( -43.00000000000000000, -5.000000000000000000, -43.00000000000000000 ) ) ;
#843 = CIRCLE ( 'NONE', #31, 2.000000000000001776 ) ;
#844 = CARTESIAN_POINT ( 'NONE',  ( -39.13154946405281720, 4.467790692378654782, 36.18666791370982594 ) ) ;
#845 = CARTESIAN_POINT ( 'NONE',  ( -19.99999999999999645, 0.000000000000000000, 20.00000000000000355 ) ) ;
#846 = PLANE ( 'NONE',  #11 ) ;
#847 = ORIENTED_EDGE ( 'NONE', *, *, #680, .F. ) ;
#848 = FACE_OUTER_BOUND ( 'NONE', #876, .T. ) ;
#849 = DIRECTION ( 'NONE',  ( -0.000000000000000000, 1.000000000000000000, -0.000000000000000000 ) ) ;
#850 = EDGE_CURVE ( 'NONE', #426, #834, #600, .T. ) ;
#851 = CARTESIAN_POINT ( 'NONE',  ( 42.99999999999998579, 0.000000000000000000, -45.00000000000000000 ) ) ;
#852 = CARTESIAN_POINT ( 'NONE',  ( -43.00000000000000000, -3.000000000000000000, -43.00000000000000000 ) ) ;
#853 = VECTOR ( 'NONE', #1080, 1000.000000000000000 ) ;
#854 = EDGE_LOOP ( 'NONE', ( #476, #200 ) ) ;
#855 = CARTESIAN_POINT ( 'NONE',  ( 19.99999999999999289, 5.000000000000000000, -36.50000000000001421 ) ) ;
#856 = PLANE ( 'NONE',  #931 ) ;
#857 = ADVANCED_FACE ( 'NONE', ( #755 ), #503, .T. ) ;
#858 = MANIFOLD_SOLID_BREP ( 'Cortar-Extruir1', #228 ) ;
#859 = DIRECTION ( 'NONE',  ( -0.1874275599918959756, -0.9642312064598245192, -0.1874275599918959756 ) ) ;
#860 = DIRECTION ( 'NONE',  ( 1.000000000000000000, 0.000000000000000000, 0.000000000000000000 ) ) ;
#861 = EDGE_LOOP ( 'NONE', ( #621, #381, #761, #483 ) ) ;
#862 = CIRCLE ( 'NONE', #772, 2.000000000000001776 ) ;
#863 = DIRECTION ( 'NONE',  ( 0.000000000000000000, 0.000000000000000000, -1.000000000000000000 ) ) ;
#864 = AXIS2_PLACEMENT_3D ( 'NONE', #1079, #179, #577 ) ;
#865 = EDGE_CURVE ( 'NONE', #338, #364, #1010, .T. ) ;
#866 = CARTESIAN_POINT ( 'NONE',  ( 36.08321690396842030, 5.000000000000000000, 39.02809845431140445 ) ) ;
#867 = CARTESIAN_POINT ( 'NONE',  ( -19.99999999999999645, 5.000000000000000000, 36.50000000000000711 ) ) ;
#868 = ORIENTED_EDGE ( 'NONE', *, *, #473, .F. ) ;
#869 = CARTESIAN_POINT ( 'NONE',  ( 36.08321690396841319, 5.000000000000000000, -39.02809845431140445 ) ) ;
#870 = DIRECTION ( 'NONE',  ( 0.000000000000000000, 1.000000000000000000, 0.000000000000000000 ) ) ;
#871 = VERTEX_POINT ( 'NONE', #987 ) ;
#872 = DIRECTION ( 'NONE',  ( 0.000000000000000000, 0.000000000000000000, -1.000000000000000000 ) ) ;
#873 =( GEOMETRIC_REPRESENTATION_CONTEXT ( 3 ) GLOBAL_UNCERTAINTY_ASSIGNED_CONTEXT ( ( #507 ) ) GLOBAL_UNIT_ASSIGNED_CONTEXT ( ( #382, #627, #458 ) ) REPRESENTATION_CONTEXT ( 'NONE', 'WORKASPACE' ) );
#874 = EDGE_CURVE ( 'NONE', #690, #737, #728, .T. ) ;
#875 = SPHERICAL_SURFACE ( 'NONE', #94, 2.000000000000000000 ) ;
#876 = EDGE_LOOP ( 'NONE', ( #65, #341, #593, #571 ) ) ;
#877 = SPHERICAL_SURFACE ( 'NONE', #312, 2.000000000000000000 ) ;
#878 = AXIS2_PLACEMENT_3D ( 'NONE', #606, #186, #863 ) ;
#879 = CARTESIAN_POINT ( 'NONE',  ( -38.79294667738510327, 0.000000000000000000, -39.99999999999999289 ) ) ;
#880 = ORIENTED_EDGE ( 'NONE', *, *, #658, .F. ) ;
#881 = VERTEX_POINT ( 'NONE', #660 ) ;
#882 = CARTESIAN_POINT ( 'NONE',  ( -39.02809845431140445, 5.000000000000000000, 0.000000000000000000 ) ) ;
#883 = DIRECTION ( 'NONE',  ( 0.000000000000000000, 0.000000000000000000, 1.000000000000000000 ) ) ;
#884 = ORIENTED_EDGE ( 'NONE', *, *, #911, .T. ) ;
#885 = DIRECTION ( 'NONE',  ( 4.163336342344333240E-14, 0.000000000000000000, -1.000000000000000000 ) ) ;
#886 = AXIS2_PLACEMENT_3D ( 'NONE', #845, #314, #649 ) ;
#887 = ADVANCED_FACE ( 'NONE', ( #1005 ), #14, .T. ) ;
#888 = VERTEX_POINT ( 'NONE', #102 ) ;
#889 = VECTOR ( 'NONE', #983, 1000.000000000000000 ) ;
#890 = ORIENTED_EDGE ( 'NONE', *, *, #363, .T. ) ;
#891 = DIRECTION ( 'NONE',  ( -0.000000000000000000, 1.000000000000000000, -0.000000000000000000 ) ) ;
#892 = VECTOR ( 'NONE', #325, 1000.000000000000227 ) ;
#893 = ORIENTED_EDGE ( 'NONE', *, *, #517, .F. ) ;
#894 = CARTESIAN_POINT ( 'NONE',  ( 0.000000000000000000, 5.000000000000000000, 39.02809845431140445 ) ) ;
#895 = VERTEX_POINT ( 'NONE', #368 ) ;
#896 = CARTESIAN_POINT ( 'NONE',  ( 19.99999999999998934, 0.000000000000000000, -3.500000000000010214 ) ) ;
#897 = CARTESIAN_POINT ( 'NONE',  ( -45.00000000000000000, -3.000000000000000000, 43.00000000000000000 ) ) ;
#898 = CIRCLE ( 'NONE', #570, 16.49999999999999645 ) ;
#899 = ORIENTED_EDGE ( 'NONE', *, *, #334, .F. ) ;
#900 = DIRECTION ( 'NONE',  ( 1.000000000000000000, 0.000000000000000000, 0.000000000000000000 ) ) ;
#901 = EDGE_LOOP ( 'NONE', ( #804, #583 ) ) ;
#902 = CARTESIAN_POINT ( 'NONE',  ( -19.99999999999999645, 0.000000000000000000, 36.50000000000000711 ) ) ;
#903 = DIRECTION ( 'NONE',  ( 0.000000000000000000, -0.9816271834476639757, 0.1908089953765448599 ) ) ;
#904 = DIRECTION ( 'NONE',  ( 0.000000000000000000, 0.000000000000000000, 1.000000000000000000 ) ) ;
#905 = VECTOR ( 'NONE', #554, 1000.000000000000000 ) ;
#906 = EDGE_LOOP ( 'NONE', ( #946, #1022 ) ) ;
#907 = DIRECTION ( 'NONE',  ( 0.000000000000000000, 0.000000000000000000, -1.000000000000000000 ) ) ;
#908 = DIRECTION ( 'NONE',  ( 0.000000000000000000, -0.000000000000000000, -1.000000000000000000 ) ) ;
#909 = DIRECTION ( 'NONE',  ( 0.000000000000000000, 0.9816271834476639757, 0.1908089953765448599 ) ) ;
#910 = FACE_OUTER_BOUND ( 'NONE', #1052, .T. ) ;
#911 = EDGE_CURVE ( 'NONE', #164, #222, #862, .T. ) ;
#912 = EDGE_LOOP ( 'NONE', ( #1061, #778, #160, #287 ) ) ;
#913 = DIRECTION ( 'NONE',  ( 1.000000000000000000, 0.000000000000000000, 0.000000000000000000 ) ) ;
#914 = ADVANCED_FACE ( 'NONE', ( #770 ), #846, .T. ) ;
#915 = EDGE_CURVE ( 'NONE', #306, #1092, #10, .T. ) ;
#916 = EDGE_CURVE ( 'NONE', #557, #722, #424, .T. ) ;
#917 = CARTESIAN_POINT ( 'NONE',  ( -45.00000000000000000, 0.000000000000000000, -42.99999999999997158 ) ) ;
#918 = AXIS2_PLACEMENT_3D ( 'NONE', #2, #321, #344 ) ;
#919 = PLANE ( 'NONE',  #886 ) ;
#920 = CARTESIAN_POINT ( 'NONE',  ( 0.000000000000000000, 5.000000000000000000, 0.000000000000000000 ) ) ;
#921 = VERTEX_POINT ( 'NONE', #867 ) ;
#922 = DIRECTION ( 'NONE',  ( 0.000000000000000000, 1.000000000000000000, -0.000000000000000000 ) ) ;
#923 = DIRECTION ( 'NONE',  ( 0.000000000000000000, 0.000000000000000000, 1.000000000000000000 ) ) ;
#924 = EDGE_LOOP ( 'NONE', ( #899, #54 ) ) ;
#925 = DIRECTION ( 'NONE',  ( 1.000000000000000000, 0.000000000000000000, 0.000000000000000000 ) ) ;
#926 = ORIENTED_EDGE ( 'NONE', *, *, #517, .T. ) ;
#927 = CARTESIAN_POINT ( 'NONE',  ( 20.00000000000000355, 0.000000000000000000, 3.500000000000003109 ) ) ;
#928 = CARTESIAN_POINT ( 'NONE',  ( 42.99999999999998579, 0.000000000000000000, 45.00000000000000000 ) ) ;
#929 = CYLINDRICAL_SURFACE ( 'NONE', #994, 16.49999999999999645 ) ;
#930 = VERTEX_POINT ( 'NONE', #1032 ) ;
#931 = AXIS2_PLACEMENT_3D ( 'NONE', #261, #676, #595 ) ;
#932 = AXIS2_PLACEMENT_3D ( 'NONE', #592, #257, #909 ) ;
#933 = CARTESIAN_POINT ( 'NONE',  ( 39.13154946405281720, 4.467790692378654782, -36.18666791370982594 ) ) ;
#934 = EDGE_CURVE ( 'NONE', #72, #651, #713, .T. ) ;
#935 = ADVANCED_FACE ( 'NONE', ( #177 ), #1026, .T. ) ;
#936 = EDGE_CURVE ( 'NONE', #369, #651, #694, .T. ) ;
#937 = CARTESIAN_POINT ( 'NONE',  ( 43.00000000000000711, -3.000000000000000000, 45.00000000000000000 ) ) ;
#938 = CARTESIAN_POINT ( 'NONE',  ( 38.79294667738510327, 0.000000000000000000, 39.99999999999999289 ) ) ;
#939 = CYLINDRICAL_SURFACE ( 'NONE', #242, 16.50000000000000355 ) ;
#940 = ORIENTED_EDGE ( 'NONE', *, *, #735, .F. ) ;
#941 = CARTESIAN_POINT ( 'NONE',  ( -19.99999999999999289, 5.000000000000000000, 3.500000000000003109 ) ) ;
#942 = CIRCLE ( 'NONE', #663, 16.50000000000000000 ) ;
#943 = CARTESIAN_POINT ( 'NONE',  ( 37.05511844965700874, 0.000000000000000000, 40.00000000000000000 ) ) ;
#944 = CARTESIAN_POINT ( 'NONE',  ( -20.00000000000000000, 0.000000000000000000, -20.00000000000000000 ) ) ;
#945 =( BOUNDED_CURVE ( )  B_SPLINE_CURVE ( 3, ( #1008, #744, #492, #824 ),
 .UNSPECIFIED., .F., .T. ) 
 B_SPLINE_CURVE_WITH_KNOTS ( ( 4, 4 ),
 ( 5.515995204261211704, 7.050375410097963425 ),
 .UNSPECIFIED. ) 
 CURVE ( )  GEOMETRIC_REPRESENTATION_ITEM ( )  RATIONAL_B_SPLINE_CURVE ( ( 1.000000000000000000, 0.8132426008497406489, 0.8132426008497406489, 1.000000000000000000 ) ) 
 REPRESENTATION_ITEM ( '' )  );
#946 = ORIENTED_EDGE ( 'NONE', *, *, #758, .F. ) ;
#947 = AXIS2_PLACEMENT_3D ( 'NONE', #531, #108, #860 ) ;
#948 = DIRECTION ( 'NONE',  ( 0.000000000000000000, 0.000000000000000000, 1.000000000000000000 ) ) ;
#949 = AXIS2_PLACEMENT_3D ( 'NONE', #1059, #303, #972 ) ;
#950 = PRODUCT_DEFINITION_CONTEXT ( 'detailed design', #187, 'design' ) ;
#951 = DIRECTION ( 'NONE',  ( 0.000000000000000000, 0.000000000000000000, 1.000000000000000000 ) ) ;
#952 = ORIENTED_EDGE ( 'NONE', *, *, #69, .F. ) ;
#953 = ADVANCED_FACE ( 'NONE', ( #24 ), #939, .F. ) ;
#954 = DIRECTION ( 'NONE',  ( 0.000000000000000000, 0.000000000000000000, -1.000000000000000000 ) ) ;
#955 = DIRECTION ( 'NONE',  ( 0.000000000000000000, 1.000000000000000000, -0.000000000000000000 ) ) ;
#956 = ORIENTED_EDGE ( 'NONE', *, *, #278, .F. ) ;
#957 = LINE ( 'NONE', #882, #1019 ) ;
#958 = CIRCLE ( 'NONE', #918, 16.50000000000000355 ) ;
#959 = CARTESIAN_POINT ( 'NONE',  ( -20.00000000000000000, 0.000000000000000000, -20.00000000000000000 ) ) ;
#960 = ORIENTED_EDGE ( 'NONE', *, *, #874, .T. ) ;
#961 = FILL_AREA_STYLE ('',( #675 ) ) ;
#962 = CARTESIAN_POINT ( 'NONE',  ( -19.99999999999999645, 0.000000000000000000, -36.50000000000000711 ) ) ;
#963 = CIRCLE ( 'NONE', #386, 2.000000000000001776 ) ;
#964 = DIRECTION ( 'NONE',  ( 0.000000000000000000, 0.000000000000000000, 1.000000000000000000 ) ) ;
#965 = ORIENTED_EDGE ( 'NONE', *, *, #363, .F. ) ;
#966 = ORIENTED_EDGE ( 'NONE', *, *, #534, .F. ) ;
#967 = SURFACE_STYLE_USAGE ( .BOTH. , #633 ) ;
#968 = FACE_OUTER_BOUND ( 'NONE', #410, .T. ) ;
#969 = EDGE_CURVE ( 'NONE', #565, #369, #666, .T. ) ;
#970 = ORIENTED_EDGE ( 'NONE', *, *, #736, .T. ) ;
#971 = ORIENTED_EDGE ( 'NONE', *, *, #1035, .F. ) ;
#972 = DIRECTION ( 'NONE',  ( 0.000000000000000000, 0.000000000000000000, 1.000000000000000000 ) ) ;
#973 = ADVANCED_FACE ( 'NONE', ( #451 ), #520, .T. ) ;
#974 = AXIS2_PLACEMENT_3D ( 'NONE', #89, #904, #324 ) ;
#975 = EDGE_LOOP ( 'NONE', ( #893, #85, #394, #51 ) ) ;
#976 = ORIENTED_EDGE ( 'NONE', *, *, #415, .T. ) ;
#977 = CARTESIAN_POINT ( 'NONE',  ( -37.82104513169650062, 4.999999999999998224, 39.02809845431141156 ) ) ;
#978 = VECTOR ( 'NONE', #608, 1000.000000000000000 ) ;
#979 = AXIS2_PLACEMENT_3D ( 'NONE', #701, #613, #1038 ) ;
#980 = ORIENTED_EDGE ( 'NONE', *, *, #1035, .T. ) ;
#981 = ORIENTED_EDGE ( 'NONE', *, *, #498, .F. ) ;
#982 = LINE ( 'NONE', #234, #135 ) ;
#983 = DIRECTION ( 'NONE',  ( 1.000000000000000000, -0.000000000000000000, 0.000000000000000000 ) ) ;
#984 = PLANE ( 'NONE',  #932 ) ;
#985 = DIRECTION ( 'NONE',  ( 0.000000000000000000, 0.000000000000000000, 1.000000000000000000 ) ) ;
#986 = FACE_OUTER_BOUND ( 'NONE', #139, .T. ) ;
#987 = CARTESIAN_POINT ( 'NONE',  ( -36.08321690396842030, 5.000000000000000000, -39.02809845431140445 ) ) ;
#988 = DIRECTION ( 'NONE',  ( 0.000000000000000000, 1.000000000000000000, -0.000000000000000000 ) ) ;
#989 = CIRCLE ( 'NONE', #435, 2.000000000000001776 ) ;
#990 = LINE ( 'NONE', #237, #793 ) ;
#991 =( NAMED_UNIT ( * ) PLANE_ANGLE_UNIT ( ) SI_UNIT ( $, .RADIAN. ) );
#992 = ORIENTED_EDGE ( 'NONE', *, *, #416, .T. ) ;
#993 = DIRECTION ( 'NONE',  ( 1.000000000000000000, -0.000000000000000000, -0.000000000000000000 ) ) ;
#994 = AXIS2_PLACEMENT_3D ( 'NONE', #1077, #812, #399 ) ;
#995 = DIRECTION ( 'NONE',  ( -0.000000000000000000, -1.000000000000000000, -0.000000000000000000 ) ) ;
#996 = PLANE ( 'NONE',  #48 ) ;
#997 = CIRCLE ( 'NONE', #774, 2.000000000000001776 ) ;
#998 = ADVANCED_FACE ( 'NONE', ( #514 ), #929, .F. ) ;
#999 = ORIENTED_EDGE ( 'NONE', *, *, #934, .T. ) ;
#1000 = LINE ( 'NONE', #828, #803 ) ;
#1001 = CARTESIAN_POINT ( 'NONE',  ( -43.00000000000000000, -3.000000000000000000, 43.00000000000000000 ) ) ;
#1002 = LINE ( 'NONE', #574, #467 ) ;
#1003 = FACE_BOUND ( 'NONE', #40, .T. ) ;
#1004 = ORIENTED_EDGE ( 'NONE', *, *, #850, .F. ) ;
#1005 = FACE_OUTER_BOUND ( 'NONE', #795, .T. ) ;
#1006 = CARTESIAN_POINT ( 'NONE',  ( -19.99999999999999645, 0.000000000000000000, 20.00000000000000355 ) ) ;
#1007 = EDGE_CURVE ( 'NONE', #222, #338, #418, .T. ) ;
#1008 = CARTESIAN_POINT ( 'NONE',  ( -36.08321690396842030, 5.000000000000000000, -39.02809845431140445 ) ) ;
#1009 = DIRECTION ( 'NONE',  ( 0.000000000000000000, -1.000000000000000000, 0.000000000000000000 ) ) ;
#1010 = CIRCLE ( 'NONE', #21, 2.000000000000001776 ) ;
#1011 = ORIENTED_EDGE ( 'NONE', *, *, #696, .T. ) ;
#1012 = CARTESIAN_POINT ( 'NONE',  ( 39.99999999999999289, 0.000000000000000000, -38.79294667738510327 ) ) ;
#1013 = CARTESIAN_POINT ( 'NONE',  ( -38.69828739996077616, 6.696730784170931372, -35.75340584961777779 ) ) ;
#1014 = LINE ( 'NONE', #769, #366 ) ;
#1015 = CARTESIAN_POINT ( 'NONE',  ( 45.00000000000001421, -3.000000000000000000, 45.00000000000000000 ) ) ;
#1016 = EDGE_CURVE ( 'NONE', #146, #672, #283, .T. ) ;
#1017 = EDGE_LOOP ( 'NONE', ( #487, #740, #308, #1058 ) ) ;
#1018 = CARTESIAN_POINT ( 'NONE',  ( -40.00000000000000000, 0.000000000000000000, -0.000000000000000000 ) ) ;
#1019 = VECTOR ( 'NONE', #1041, 1000.000000000000000 ) ;
#1020 = CYLINDRICAL_SURFACE ( 'NONE', #1028, 16.50000000000000000 ) ;
#1021 = DIRECTION ( 'NONE',  ( -1.000000000000000000, 0.000000000000000000, 0.000000000000000000 ) ) ;
#1022 = ORIENTED_EDGE ( 'NONE', *, *, #455, .F. ) ;
#1023 = AXIS2_PLACEMENT_3D ( 'NONE', #203, #630, #964 ) ;
#1024 = LINE ( 'NONE', #1013, #780 ) ;
#1025 = DIRECTION ( 'NONE',  ( 0.000000000000000000, 0.1908089953765449986, -0.9816271834476640867 ) ) ;
#1026 = PLANE ( 'NONE',  #372 ) ;
#1027 = EDGE_LOOP ( 'NONE', ( #448, #926, #637, #581 ) ) ;
#1028 = AXIS2_PLACEMENT_3D ( 'NONE', #607, #182, #101 ) ;
#1029 = FACE_OUTER_BOUND ( 'NONE', #798, .T. ) ;
#1030 = DIRECTION ( 'NONE',  ( 1.000000000000000000, -0.000000000000000000, 0.000000000000000000 ) ) ;
#1031 = CARTESIAN_POINT ( 'NONE',  ( 40.00000000000000000, 0.000000000000000000, 37.05511844965700874 ) ) ;
#1032 = CARTESIAN_POINT ( 'NONE',  ( -40.00000000000000000, 0.000000000000000000, 37.05511844965700874 ) ) ;
#1033 = EDGE_CURVE ( 'NONE', #45, #1066, #752, .T. ) ;
#1034 = EDGE_CURVE ( 'NONE', #338, #129, #1073, .T. ) ;
#1035 = EDGE_CURVE ( 'NONE', #300, #632, #963, .T. ) ;
#1036 = ORIENTED_EDGE ( 'NONE', *, *, #758, .T. ) ;
#1037 = AXIS2_PLACEMENT_3D ( 'NONE', #852, #90, #764 ) ;
#1038 = DIRECTION ( 'NONE',  ( 0.000000000000000000, 0.000000000000000000, -1.000000000000000000 ) ) ;
#1039 = LINE ( 'NONE', #286, #556 ) ;
#1040 = ORIENTED_EDGE ( 'NONE', *, *, #735, .T. ) ;
#1041 = DIRECTION ( 'NONE',  ( 0.000000000000000000, 0.000000000000000000, -1.000000000000000000 ) ) ;
#1042 = DIRECTION ( 'NONE',  ( 0.000000000000000000, 0.000000000000000000, -1.000000000000000000 ) ) ;
#1043 = CARTESIAN_POINT ( 'NONE',  ( -43.00000000000000000, 0.000000000000000000, -43.00000000000000000 ) ) ;
#1044 = ORIENTED_EDGE ( 'NONE', *, *, #667, .T. ) ;
#1045 = AXIS2_PLACEMENT_3D ( 'NONE', #619, #189, #347 ) ;
#1046 = EDGE_CURVE ( 'NONE', #553, #790, #59, .T. ) ;
#1047 = CARTESIAN_POINT ( 'NONE',  ( -39.99999999999999289, 0.000000000000000000, 38.79294667738510327 ) ) ;
#1048 = PLANE ( 'NONE',  #268 ) ;
#1049 = EDGE_CURVE ( 'NONE', #404, #91, #506, .T. ) ;
#1050 = ORIENTED_EDGE ( 'NONE', *, *, #1033, .T. ) ;
#1051 = ADVANCED_FACE ( 'NONE', ( #488 ), #657, .T. ) ;
#1052 = EDGE_LOOP ( 'NONE', ( #952, #818, #411, #252, #695, #15, #41, #807 ) ) ;
#1053 = CARTESIAN_POINT ( 'NONE',  ( 43.00000000000000711, -5.000000000000000000, 43.00000000000000000 ) ) ;
#1054 = VECTOR ( 'NONE', #276, 1000.000000000000000 ) ;
#1055 = CIRCLE ( 'NONE', #346, 2.000000000000001776 ) ;
#1056 = ORIENTED_EDGE ( 'NONE', *, *, #223, .T. ) ;
#1057 = EDGE_CURVE ( 'NONE', #327, #369, #702, .T. ) ;
#1058 = ORIENTED_EDGE ( 'NONE', *, *, #1046, .F. ) ;
#1059 = CARTESIAN_POINT ( 'NONE',  ( -19.99999999999999645, 0.000000000000000000, 20.00000000000000355 ) ) ;
#1060 =( BOUNDED_CURVE ( )  B_SPLINE_CURVE ( 3, ( #1031, #781, #938, #943 ),
 .UNSPECIFIED., .F., .T. ) 
 B_SPLINE_CURVE_WITH_KNOTS ( ( 4, 4 ),
 ( 5.515995204261210816, 7.050375410097961648 ),
 .UNSPECIFIED. ) 
 CURVE ( )  GEOMETRIC_REPRESENTATION_ITEM ( )  RATIONAL_B_SPLINE_CURVE ( ( 1.000000000000000000, 0.8132426008497409819, 0.8132426008497409819, 1.000000000000000000 ) ) 
 REPRESENTATION_ITEM ( '' )  );
#1061 = ORIENTED_EDGE ( 'NONE', *, *, #18, .F. ) ;
#1062 = AXIS2_PLACEMENT_3D ( 'NONE', #589, #92, #516 ) ;
#1063 = ORIENTED_EDGE ( 'NONE', *, *, #20, .F. ) ;
#1064 = CARTESIAN_POINT ( 'NONE',  ( 36.08321690396841319, 5.000000000000000000, -39.02809845431140445 ) ) ;
#1065 = AXIS2_PLACEMENT_3D ( 'NONE', #842, #922, #260 ) ;
#1066 = VERTEX_POINT ( 'NONE', #673 ) ;
#1067 = ADVANCED_FACE ( 'NONE', ( #650, #665, #1003, #251, #910 ), #996, .T. ) ;
#1068 = EDGE_LOOP ( 'NONE', ( #265, #956, #247, #568 ) ) ;
#1069 = CARTESIAN_POINT ( 'NONE',  ( -19.99999999999999645, 5.000000000000000000, 20.00000000000000355 ) ) ;
#1070 = CARTESIAN_POINT ( 'NONE',  ( 45.00000000000001421, -5.000000000000000000, 43.00000000000000000 ) ) ;
#1071 = AXIS2_PLACEMENT_3D ( 'NONE', #42, #383, #527 ) ;
#1072 = ORIENTED_EDGE ( 'NONE', *, *, #151, .F. ) ;
#1073 = LINE ( 'NONE', #582, #528 ) ;
#1074 = DIRECTION ( 'NONE',  ( 0.000000000000000000, 0.000000000000000000, 1.000000000000000000 ) ) ;
#1075 = CARTESIAN_POINT ( 'NONE',  ( -43.00000000000000000, -3.000000000000000000, 45.00000000000000000 ) ) ;
#1076 = ORIENTED_EDGE ( 'NONE', *, *, #498, .T. ) ;
#1077 = CARTESIAN_POINT ( 'NONE',  ( 20.00000000000000000, 0.000000000000000000, 20.00000000000000000 ) ) ;
#1078 = ORIENTED_EDGE ( 'NONE', *, *, #622, .T. ) ;
#1079 = CARTESIAN_POINT ( 'NONE',  ( 20.00000000000000000, 0.000000000000000000, 20.00000000000000000 ) ) ;
#1080 = DIRECTION ( 'NONE',  ( 0.000000000000000000, -0.000000000000000000, -1.000000000000000000 ) ) ;
#1081 = ORIENTED_EDGE ( 'NONE', *, *, #535, .T. ) ;
#1082 = ADVANCED_FACE ( 'NONE', ( #165 ), #171, .T. ) ;
#1083 = ORIENTED_EDGE ( 'NONE', *, *, #1033, .F. ) ;
#1084 = CARTESIAN_POINT ( 'NONE',  ( -45.00000000000000000, -3.000000000000000000, -43.00000000000000000 ) ) ;
#1085 = VECTOR ( 'NONE', #823, 1000.000000000000000 ) ;
#1086 = PLANE ( 'NONE',  #317 ) ;
#1087 = CARTESIAN_POINT ( 'NONE',  ( 38.69828739996077616, 6.696730784170931372, 35.75340584961777779 ) ) ;
#1088 = ORIENTED_EDGE ( 'NONE', *, *, #473, .T. ) ;
#1089 = DIRECTION ( 'NONE',  ( 0.000000000000000000, 1.000000000000000000, -0.000000000000000000 ) ) ;
#1090 = DIRECTION ( 'NONE',  ( 0.000000000000000000, 0.000000000000000000, 1.000000000000000000 ) ) ;
#1091 = PRODUCT_RELATED_PRODUCT_CATEGORY ( 'part', '', ( #195 ) ) ;
#1092 = VERTEX_POINT ( 'NONE', #738 ) ;
#1093 = DIRECTION ( 'NONE',  ( -0.1874275599918959201, -0.9642312064598242971, 0.1874275599918959201 ) ) ;
ENDSEC;
END-ISO-10303-21;
