ISO-10303-21;
HEADER;
/* Generated by software containing ST-Developer
 * from STEP Tools, Inc. (www.steptools.com) 
 */
/* OPTION: using custom renumber hook */

FILE_DESCRIPTION(
/* description */ ('STEP AP242 Edition 2',
'CAx-IF Rec.Pracs.---Representation and Presentation of Product Manufa
cturing Information (PMI)---4.0---2014-10-13',
'CAx-IF Rec.Pracs.---3D Tessellated Geometry---0.4---2014-09-14','2;1',
'CAx-IF Rec.Pracs.---User Defined Attributes---1.5---2016-08-15'),
/* implementation_level */ '2;1');

FILE_NAME(
/* name */ 'Tray - Cake TopTray',
/* time_stamp */ '2026-05-28T14:01:53Z',
/* author */ (''),
/* organization */ (''),
/* preprocessor_version */ 'ST-DEVELOPER v20',
/* originating_system */ 'ONSHAPE BY PTC INC, 1.215',
/* authorisation */ '  ');

FILE_SCHEMA (('AP242_MANAGED_MODEL_BASED_3D_ENGINEERING_MIM_LF { 1 0 10303 442 3 1 4 }'));
ENDSEC;

DATA;
#10=SHAPE_REPRESENTATION_RELATIONSHIP('','',#1088,#11);
#11=ADVANCED_BREP_SHAPE_REPRESENTATION('',(#1086),#1919);
#12=CONICAL_SURFACE('',#1201,0.0076,0.785398163397452);
#13=CONICAL_SURFACE('',#1205,0.0076,0.785398163397435);
#14=CONICAL_SURFACE('',#1207,0.0076,0.785398163397454);
#15=CONICAL_SURFACE('',#1211,0.0076,0.785398163397454);
#16=CONICAL_SURFACE('',#1251,0.003225,0.785398163397457);
#17=CONICAL_SURFACE('',#1252,0.003225,0.785398163397457);
#18=CONICAL_SURFACE('',#1253,0.003225,0.785398163397457);
#19=CONICAL_SURFACE('',#1254,0.003225,0.785398163397457);
#20=CONICAL_SURFACE('',#1255,0.003225,0.785398163397457);
#21=LINE('',#1698,#55);
#22=LINE('',#1701,#56);
#23=LINE('',#1703,#57);
#24=LINE('',#1705,#58);
#25=LINE('',#1717,#59);
#26=LINE('',#1719,#60);
#27=LINE('',#1721,#61);
#28=LINE('',#1723,#62);
#29=LINE('',#1725,#63);
#30=LINE('',#1727,#64);
#31=LINE('',#1729,#65);
#32=LINE('',#1732,#66);
#33=LINE('',#1734,#67);
#34=LINE('',#1736,#68);
#35=LINE('',#1738,#69);
#36=LINE('',#1741,#70);
#37=LINE('',#1745,#71);
#38=LINE('',#1749,#72);
#39=LINE('',#1754,#73);
#40=LINE('',#1756,#74);
#41=LINE('',#1758,#75);
#42=LINE('',#1762,#76);
#43=LINE('',#1836,#77);
#44=LINE('',#1837,#78);
#45=LINE('',#1839,#79);
#46=LINE('',#1841,#80);
#47=LINE('',#1843,#81);
#48=LINE('',#1845,#82);
#49=LINE('',#1848,#83);
#50=LINE('',#1849,#84);
#51=LINE('',#1851,#85);
#52=LINE('',#1853,#86);
#53=LINE('',#1855,#87);
#54=LINE('',#1857,#88);
#55=VECTOR('',#1356,1.);
#56=VECTOR('',#1357,1.);
#57=VECTOR('',#1358,1.);
#58=VECTOR('',#1359,1.);
#59=VECTOR('',#1372,1.);
#60=VECTOR('',#1373,1.);
#61=VECTOR('',#1374,1.);
#62=VECTOR('',#1377,1.);
#63=VECTOR('',#1378,1.);
#64=VECTOR('',#1379,1.);
#65=VECTOR('',#1382,1.);
#66=VECTOR('',#1383,1.);
#67=VECTOR('',#1384,1.);
#68=VECTOR('',#1385,1.);
#69=VECTOR('',#1388,1.);
#70=VECTOR('',#1389,1.);
#71=VECTOR('',#1392,1.);
#72=VECTOR('',#1395,1.);
#73=VECTOR('',#1400,1.);
#74=VECTOR('',#1401,1.);
#75=VECTOR('',#1402,1.);
#76=VECTOR('',#1405,1.);
#77=VECTOR('',#1504,1.);
#78=VECTOR('',#1505,1.);
#79=VECTOR('',#1508,1.);
#80=VECTOR('',#1511,1.);
#81=VECTOR('',#1514,1.);
#82=VECTOR('',#1517,1.);
#83=VECTOR('',#1522,1.);
#84=VECTOR('',#1523,1.);
#85=VECTOR('',#1526,1.);
#86=VECTOR('',#1529,1.);
#87=VECTOR('',#1532,1.);
#88=VECTOR('',#1535,1.);
#89=PLANE('',#1093);
#90=PLANE('',#1097);
#91=PLANE('',#1101);
#92=PLANE('',#1105);
#93=PLANE('',#1109);
#94=PLANE('',#1113);
#95=PLANE('',#1117);
#96=PLANE('',#1121);
#97=PLANE('',#1125);
#98=PLANE('',#1129);
#99=PLANE('',#1133);
#100=PLANE('',#1137);
#101=PLANE('',#1138);
#102=PLANE('',#1139);
#103=PLANE('',#1145);
#104=PLANE('',#1146);
#105=PLANE('',#1147);
#106=PLANE('',#1150);
#107=PLANE('',#1170);
#108=PLANE('',#1173);
#109=PLANE('',#1178);
#110=PLANE('',#1181);
#111=PLANE('',#1184);
#112=PLANE('',#1190);
#113=PLANE('',#1193);
#114=PLANE('',#1196);
#115=PLANE('',#1200);
#116=PLANE('',#1202);
#117=PLANE('',#1203);
#118=PLANE('',#1204);
#119=PLANE('',#1206);
#120=PLANE('',#1208);
#121=PLANE('',#1209);
#122=PLANE('',#1210);
#123=PLANE('',#1212);
#124=PLANE('',#1215);
#125=PLANE('',#1218);
#126=PLANE('',#1221);
#127=PLANE('',#1224);
#128=PLANE('',#1227);
#129=PLANE('',#1230);
#130=PLANE('',#1234);
#131=PLANE('',#1238);
#132=PLANE('',#1242);
#133=PLANE('',#1246);
#134=PLANE('',#1250);
#135=ORIENTED_EDGE('',*,*,#357,.F.);
#136=ORIENTED_EDGE('',*,*,#358,.T.);
#137=ORIENTED_EDGE('',*,*,#357,.T.);
#138=ORIENTED_EDGE('',*,*,#359,.F.);
#139=ORIENTED_EDGE('',*,*,#360,.T.);
#140=ORIENTED_EDGE('',*,*,#359,.T.);
#141=ORIENTED_EDGE('',*,*,#361,.F.);
#142=ORIENTED_EDGE('',*,*,#362,.T.);
#143=ORIENTED_EDGE('',*,*,#361,.T.);
#144=ORIENTED_EDGE('',*,*,#363,.F.);
#145=ORIENTED_EDGE('',*,*,#364,.T.);
#146=ORIENTED_EDGE('',*,*,#363,.T.);
#147=ORIENTED_EDGE('',*,*,#365,.F.);
#148=ORIENTED_EDGE('',*,*,#366,.T.);
#149=ORIENTED_EDGE('',*,*,#365,.T.);
#150=ORIENTED_EDGE('',*,*,#367,.F.);
#151=ORIENTED_EDGE('',*,*,#368,.T.);
#152=ORIENTED_EDGE('',*,*,#367,.T.);
#153=ORIENTED_EDGE('',*,*,#369,.F.);
#154=ORIENTED_EDGE('',*,*,#370,.T.);
#155=ORIENTED_EDGE('',*,*,#369,.T.);
#156=ORIENTED_EDGE('',*,*,#371,.F.);
#157=ORIENTED_EDGE('',*,*,#372,.T.);
#158=ORIENTED_EDGE('',*,*,#371,.T.);
#159=ORIENTED_EDGE('',*,*,#373,.F.);
#160=ORIENTED_EDGE('',*,*,#374,.T.);
#161=ORIENTED_EDGE('',*,*,#373,.T.);
#162=ORIENTED_EDGE('',*,*,#375,.F.);
#163=ORIENTED_EDGE('',*,*,#376,.T.);
#164=ORIENTED_EDGE('',*,*,#375,.T.);
#165=ORIENTED_EDGE('',*,*,#377,.F.);
#166=ORIENTED_EDGE('',*,*,#378,.T.);
#167=ORIENTED_EDGE('',*,*,#377,.T.);
#168=ORIENTED_EDGE('',*,*,#379,.F.);
#169=ORIENTED_EDGE('',*,*,#380,.T.);
#170=ORIENTED_EDGE('',*,*,#379,.T.);
#171=ORIENTED_EDGE('',*,*,#381,.T.);
#172=ORIENTED_EDGE('',*,*,#382,.T.);
#173=ORIENTED_EDGE('',*,*,#383,.T.);
#174=ORIENTED_EDGE('',*,*,#384,.T.);
#175=ORIENTED_EDGE('',*,*,#385,.T.);
#176=ORIENTED_EDGE('',*,*,#386,.T.);
#177=ORIENTED_EDGE('',*,*,#387,.T.);
#178=ORIENTED_EDGE('',*,*,#388,.T.);
#179=ORIENTED_EDGE('',*,*,#389,.T.);
#180=ORIENTED_EDGE('',*,*,#383,.F.);
#181=ORIENTED_EDGE('',*,*,#390,.T.);
#182=ORIENTED_EDGE('',*,*,#391,.T.);
#183=ORIENTED_EDGE('',*,*,#392,.T.);
#184=ORIENTED_EDGE('',*,*,#391,.F.);
#185=ORIENTED_EDGE('',*,*,#393,.T.);
#186=ORIENTED_EDGE('',*,*,#394,.T.);
#187=ORIENTED_EDGE('',*,*,#395,.T.);
#188=ORIENTED_EDGE('',*,*,#396,.T.);
#189=ORIENTED_EDGE('',*,*,#397,.T.);
#190=ORIENTED_EDGE('',*,*,#398,.T.);
#191=ORIENTED_EDGE('',*,*,#399,.T.);
#192=ORIENTED_EDGE('',*,*,#400,.T.);
#193=ORIENTED_EDGE('',*,*,#401,.T.);
#194=ORIENTED_EDGE('',*,*,#402,.T.);
#195=ORIENTED_EDGE('',*,*,#403,.T.);
#196=ORIENTED_EDGE('',*,*,#404,.T.);
#197=ORIENTED_EDGE('',*,*,#405,.T.);
#198=ORIENTED_EDGE('',*,*,#406,.T.);
#199=ORIENTED_EDGE('',*,*,#407,.T.);
#200=ORIENTED_EDGE('',*,*,#408,.T.);
#201=ORIENTED_EDGE('',*,*,#409,.T.);
#202=ORIENTED_EDGE('',*,*,#410,.T.);
#203=ORIENTED_EDGE('',*,*,#411,.T.);
#204=ORIENTED_EDGE('',*,*,#412,.F.);
#205=ORIENTED_EDGE('',*,*,#413,.F.);
#206=ORIENTED_EDGE('',*,*,#414,.F.);
#207=ORIENTED_EDGE('',*,*,#415,.F.);
#208=ORIENTED_EDGE('',*,*,#416,.F.);
#209=ORIENTED_EDGE('',*,*,#417,.F.);
#210=ORIENTED_EDGE('',*,*,#418,.F.);
#211=ORIENTED_EDGE('',*,*,#419,.F.);
#212=ORIENTED_EDGE('',*,*,#420,.F.);
#213=ORIENTED_EDGE('',*,*,#398,.F.);
#214=ORIENTED_EDGE('',*,*,#421,.T.);
#215=ORIENTED_EDGE('',*,*,#381,.F.);
#216=ORIENTED_EDGE('',*,*,#422,.T.);
#217=ORIENTED_EDGE('',*,*,#394,.F.);
#218=ORIENTED_EDGE('',*,*,#423,.T.);
#219=ORIENTED_EDGE('',*,*,#396,.F.);
#220=ORIENTED_EDGE('',*,*,#424,.T.);
#221=ORIENTED_EDGE('',*,*,#425,.F.);
#222=ORIENTED_EDGE('',*,*,#420,.T.);
#223=ORIENTED_EDGE('',*,*,#358,.F.);
#224=ORIENTED_EDGE('',*,*,#425,.T.);
#225=ORIENTED_EDGE('',*,*,#426,.F.);
#226=ORIENTED_EDGE('',*,*,#419,.T.);
#227=ORIENTED_EDGE('',*,*,#427,.F.);
#228=ORIENTED_EDGE('',*,*,#428,.F.);
#229=ORIENTED_EDGE('',*,*,#426,.T.);
#230=ORIENTED_EDGE('',*,*,#429,.F.);
#231=ORIENTED_EDGE('',*,*,#418,.T.);
#232=ORIENTED_EDGE('',*,*,#360,.F.);
#233=ORIENTED_EDGE('',*,*,#362,.F.);
#234=ORIENTED_EDGE('',*,*,#364,.F.);
#235=ORIENTED_EDGE('',*,*,#429,.T.);
#236=ORIENTED_EDGE('',*,*,#430,.F.);
#237=ORIENTED_EDGE('',*,*,#417,.T.);
#238=ORIENTED_EDGE('',*,*,#372,.F.);
#239=ORIENTED_EDGE('',*,*,#374,.F.);
#240=ORIENTED_EDGE('',*,*,#376,.F.);
#241=ORIENTED_EDGE('',*,*,#430,.T.);
#242=ORIENTED_EDGE('',*,*,#431,.F.);
#243=ORIENTED_EDGE('',*,*,#416,.T.);
#244=ORIENTED_EDGE('',*,*,#432,.F.);
#245=ORIENTED_EDGE('',*,*,#433,.F.);
#246=ORIENTED_EDGE('',*,*,#434,.F.);
#247=ORIENTED_EDGE('',*,*,#431,.T.);
#248=ORIENTED_EDGE('',*,*,#435,.F.);
#249=ORIENTED_EDGE('',*,*,#415,.T.);
#250=ORIENTED_EDGE('',*,*,#380,.F.);
#251=ORIENTED_EDGE('',*,*,#378,.F.);
#252=ORIENTED_EDGE('',*,*,#435,.T.);
#253=ORIENTED_EDGE('',*,*,#436,.F.);
#254=ORIENTED_EDGE('',*,*,#414,.T.);
#255=ORIENTED_EDGE('',*,*,#368,.F.);
#256=ORIENTED_EDGE('',*,*,#366,.F.);
#257=ORIENTED_EDGE('',*,*,#436,.T.);
#258=ORIENTED_EDGE('',*,*,#437,.F.);
#259=ORIENTED_EDGE('',*,*,#413,.T.);
#260=ORIENTED_EDGE('',*,*,#438,.F.);
#261=ORIENTED_EDGE('',*,*,#437,.T.);
#262=ORIENTED_EDGE('',*,*,#439,.F.);
#263=ORIENTED_EDGE('',*,*,#412,.T.);
#264=ORIENTED_EDGE('',*,*,#370,.F.);
#265=ORIENTED_EDGE('',*,*,#439,.T.);
#266=ORIENTED_EDGE('',*,*,#440,.F.);
#267=ORIENTED_EDGE('',*,*,#422,.F.);
#268=ORIENTED_EDGE('',*,*,#441,.F.);
#269=ORIENTED_EDGE('',*,*,#404,.F.);
#270=ORIENTED_EDGE('',*,*,#441,.T.);
#271=ORIENTED_EDGE('',*,*,#384,.F.);
#272=ORIENTED_EDGE('',*,*,#442,.F.);
#273=ORIENTED_EDGE('',*,*,#405,.F.);
#274=ORIENTED_EDGE('',*,*,#440,.T.);
#275=ORIENTED_EDGE('',*,*,#403,.F.);
#276=ORIENTED_EDGE('',*,*,#443,.F.);
#277=ORIENTED_EDGE('',*,*,#399,.F.);
#278=ORIENTED_EDGE('',*,*,#442,.T.);
#279=ORIENTED_EDGE('',*,*,#392,.F.);
#280=ORIENTED_EDGE('',*,*,#444,.F.);
#281=ORIENTED_EDGE('',*,*,#400,.F.);
#282=ORIENTED_EDGE('',*,*,#443,.T.);
#283=ORIENTED_EDGE('',*,*,#402,.F.);
#284=ORIENTED_EDGE('',*,*,#445,.F.);
#285=ORIENTED_EDGE('',*,*,#424,.F.);
#286=ORIENTED_EDGE('',*,*,#444,.T.);
#287=ORIENTED_EDGE('',*,*,#395,.F.);
#288=ORIENTED_EDGE('',*,*,#445,.T.);
#289=ORIENTED_EDGE('',*,*,#401,.F.);
#290=ORIENTED_EDGE('',*,*,#446,.F.);
#291=ORIENTED_EDGE('',*,*,#410,.F.);
#292=ORIENTED_EDGE('',*,*,#447,.F.);
#293=ORIENTED_EDGE('',*,*,#421,.F.);
#294=ORIENTED_EDGE('',*,*,#447,.T.);
#295=ORIENTED_EDGE('',*,*,#409,.F.);
#296=ORIENTED_EDGE('',*,*,#448,.F.);
#297=ORIENTED_EDGE('',*,*,#382,.F.);
#298=ORIENTED_EDGE('',*,*,#446,.T.);
#299=ORIENTED_EDGE('',*,*,#397,.F.);
#300=ORIENTED_EDGE('',*,*,#449,.F.);
#301=ORIENTED_EDGE('',*,*,#411,.F.);
#302=ORIENTED_EDGE('',*,*,#448,.T.);
#303=ORIENTED_EDGE('',*,*,#408,.F.);
#304=ORIENTED_EDGE('',*,*,#450,.F.);
#305=ORIENTED_EDGE('',*,*,#390,.F.);
#306=ORIENTED_EDGE('',*,*,#449,.T.);
#307=ORIENTED_EDGE('',*,*,#423,.F.);
#308=ORIENTED_EDGE('',*,*,#451,.F.);
#309=ORIENTED_EDGE('',*,*,#406,.F.);
#310=ORIENTED_EDGE('',*,*,#450,.T.);
#311=ORIENTED_EDGE('',*,*,#407,.F.);
#312=ORIENTED_EDGE('',*,*,#451,.T.);
#313=ORIENTED_EDGE('',*,*,#393,.F.);
#314=ORIENTED_EDGE('',*,*,#452,.F.);
#315=ORIENTED_EDGE('',*,*,#438,.T.);
#316=ORIENTED_EDGE('',*,*,#452,.T.);
#317=ORIENTED_EDGE('',*,*,#453,.F.);
#318=ORIENTED_EDGE('',*,*,#434,.T.);
#319=ORIENTED_EDGE('',*,*,#453,.T.);
#320=ORIENTED_EDGE('',*,*,#454,.F.);
#321=ORIENTED_EDGE('',*,*,#433,.T.);
#322=ORIENTED_EDGE('',*,*,#454,.T.);
#323=ORIENTED_EDGE('',*,*,#455,.F.);
#324=ORIENTED_EDGE('',*,*,#432,.T.);
#325=ORIENTED_EDGE('',*,*,#455,.T.);
#326=ORIENTED_EDGE('',*,*,#456,.F.);
#327=ORIENTED_EDGE('',*,*,#428,.T.);
#328=ORIENTED_EDGE('',*,*,#456,.T.);
#329=ORIENTED_EDGE('',*,*,#457,.F.);
#330=ORIENTED_EDGE('',*,*,#427,.T.);
#331=ORIENTED_EDGE('',*,*,#457,.T.);
#332=ORIENTED_EDGE('',*,*,#458,.T.);
#333=ORIENTED_EDGE('',*,*,#459,.T.);
#334=ORIENTED_EDGE('',*,*,#459,.F.);
#335=ORIENTED_EDGE('',*,*,#460,.T.);
#336=ORIENTED_EDGE('',*,*,#461,.T.);
#337=ORIENTED_EDGE('',*,*,#461,.F.);
#338=ORIENTED_EDGE('',*,*,#462,.T.);
#339=ORIENTED_EDGE('',*,*,#463,.T.);
#340=ORIENTED_EDGE('',*,*,#463,.F.);
#341=ORIENTED_EDGE('',*,*,#464,.T.);
#342=ORIENTED_EDGE('',*,*,#465,.T.);
#343=ORIENTED_EDGE('',*,*,#465,.F.);
#344=ORIENTED_EDGE('',*,*,#466,.T.);
#345=ORIENTED_EDGE('',*,*,#467,.T.);
#346=ORIENTED_EDGE('',*,*,#467,.F.);
#347=ORIENTED_EDGE('',*,*,#458,.F.);
#348=ORIENTED_EDGE('',*,*,#385,.F.);
#349=ORIENTED_EDGE('',*,*,#460,.F.);
#350=ORIENTED_EDGE('',*,*,#386,.F.);
#351=ORIENTED_EDGE('',*,*,#462,.F.);
#352=ORIENTED_EDGE('',*,*,#387,.F.);
#353=ORIENTED_EDGE('',*,*,#464,.F.);
#354=ORIENTED_EDGE('',*,*,#388,.F.);
#355=ORIENTED_EDGE('',*,*,#466,.F.);
#356=ORIENTED_EDGE('',*,*,#389,.F.);
#357=EDGE_CURVE('',#468,#468,#561,.T.);
#358=EDGE_CURVE('',#469,#469,#562,.T.);
#359=EDGE_CURVE('',#470,#470,#563,.T.);
#360=EDGE_CURVE('',#471,#471,#564,.T.);
#361=EDGE_CURVE('',#472,#472,#565,.T.);
#362=EDGE_CURVE('',#473,#473,#566,.T.);
#363=EDGE_CURVE('',#474,#474,#567,.T.);
#364=EDGE_CURVE('',#475,#475,#568,.T.);
#365=EDGE_CURVE('',#476,#476,#569,.T.);
#366=EDGE_CURVE('',#477,#477,#570,.T.);
#367=EDGE_CURVE('',#478,#478,#571,.T.);
#368=EDGE_CURVE('',#479,#479,#572,.T.);
#369=EDGE_CURVE('',#480,#480,#573,.T.);
#370=EDGE_CURVE('',#481,#481,#574,.T.);
#371=EDGE_CURVE('',#482,#482,#575,.T.);
#372=EDGE_CURVE('',#483,#483,#576,.T.);
#373=EDGE_CURVE('',#484,#484,#577,.T.);
#374=EDGE_CURVE('',#485,#485,#578,.T.);
#375=EDGE_CURVE('',#486,#486,#579,.T.);
#376=EDGE_CURVE('',#487,#487,#580,.T.);
#377=EDGE_CURVE('',#488,#488,#581,.T.);
#378=EDGE_CURVE('',#489,#489,#582,.T.);
#379=EDGE_CURVE('',#490,#490,#583,.T.);
#380=EDGE_CURVE('',#491,#491,#584,.T.);
#381=EDGE_CURVE('',#492,#493,#21,.F.);
#382=EDGE_CURVE('',#493,#494,#22,.T.);
#383=EDGE_CURVE('',#494,#495,#23,.T.);
#384=EDGE_CURVE('',#495,#492,#24,.T.);
#385=EDGE_CURVE('',#496,#496,#585,.T.);
#386=EDGE_CURVE('',#497,#497,#586,.T.);
#387=EDGE_CURVE('',#498,#498,#587,.T.);
#388=EDGE_CURVE('',#499,#499,#588,.T.);
#389=EDGE_CURVE('',#500,#500,#589,.T.);
#390=EDGE_CURVE('',#494,#501,#25,.T.);
#391=EDGE_CURVE('',#501,#502,#26,.T.);
#392=EDGE_CURVE('',#502,#495,#27,.T.);
#393=EDGE_CURVE('',#501,#503,#28,.T.);
#394=EDGE_CURVE('',#503,#504,#29,.T.);
#395=EDGE_CURVE('',#504,#502,#30,.T.);
#396=EDGE_CURVE('',#505,#506,#31,.F.);
#397=EDGE_CURVE('',#506,#507,#32,.T.);
#398=EDGE_CURVE('',#507,#508,#33,.T.);
#399=EDGE_CURVE('',#508,#505,#34,.T.);
#400=EDGE_CURVE('',#509,#510,#35,.T.);
#401=EDGE_CURVE('',#510,#511,#36,.T.);
#402=EDGE_CURVE('',#511,#512,#590,.T.);
#403=EDGE_CURVE('',#512,#513,#37,.T.);
#404=EDGE_CURVE('',#513,#514,#591,.T.);
#405=EDGE_CURVE('',#514,#509,#38,.T.);
#406=EDGE_CURVE('',#515,#516,#592,.T.);
#407=EDGE_CURVE('',#516,#517,#39,.T.);
#408=EDGE_CURVE('',#517,#518,#40,.T.);
#409=EDGE_CURVE('',#518,#519,#41,.T.);
#410=EDGE_CURVE('',#519,#520,#593,.T.);
#411=EDGE_CURVE('',#520,#515,#42,.T.);
#412=EDGE_CURVE('',#521,#521,#594,.T.);
#413=EDGE_CURVE('',#522,#522,#595,.T.);
#414=EDGE_CURVE('',#523,#523,#596,.T.);
#415=EDGE_CURVE('',#524,#524,#597,.T.);
#416=EDGE_CURVE('',#525,#525,#598,.T.);
#417=EDGE_CURVE('',#526,#526,#599,.T.);
#418=EDGE_CURVE('',#527,#527,#600,.T.);
#419=EDGE_CURVE('',#528,#528,#601,.T.);
#420=EDGE_CURVE('',#529,#529,#602,.T.);
#421=EDGE_CURVE('',#507,#493,#603,.F.);
#422=EDGE_CURVE('',#492,#508,#604,.F.);
#423=EDGE_CURVE('',#503,#506,#605,.F.);
#424=EDGE_CURVE('',#505,#504,#606,.F.);
#425=EDGE_CURVE('',#530,#530,#607,.T.);
#426=EDGE_CURVE('',#531,#531,#608,.T.);
#427=EDGE_CURVE('',#532,#532,#609,.T.);
#428=EDGE_CURVE('',#533,#533,#610,.T.);
#429=EDGE_CURVE('',#534,#534,#611,.T.);
#430=EDGE_CURVE('',#535,#535,#612,.T.);
#431=EDGE_CURVE('',#536,#536,#613,.T.);
#432=EDGE_CURVE('',#537,#537,#614,.T.);
#433=EDGE_CURVE('',#538,#538,#615,.T.);
#434=EDGE_CURVE('',#539,#539,#616,.T.);
#435=EDGE_CURVE('',#540,#540,#617,.T.);
#436=EDGE_CURVE('',#541,#541,#618,.T.);
#437=EDGE_CURVE('',#542,#542,#619,.T.);
#438=EDGE_CURVE('',#543,#543,#620,.T.);
#439=EDGE_CURVE('',#544,#544,#621,.T.);
#440=EDGE_CURVE('',#508,#513,#43,.T.);
#441=EDGE_CURVE('',#514,#492,#44,.T.);
#442=EDGE_CURVE('',#509,#495,#45,.T.);
#443=EDGE_CURVE('',#505,#512,#46,.T.);
#444=EDGE_CURVE('',#510,#502,#47,.T.);
#445=EDGE_CURVE('',#504,#511,#48,.T.);
#446=EDGE_CURVE('',#520,#507,#49,.T.);
#447=EDGE_CURVE('',#493,#519,#50,.T.);
#448=EDGE_CURVE('',#494,#518,#51,.T.);
#449=EDGE_CURVE('',#515,#506,#52,.T.);
#450=EDGE_CURVE('',#501,#517,#53,.T.);
#451=EDGE_CURVE('',#516,#503,#54,.T.);
#452=EDGE_CURVE('',#545,#545,#622,.T.);
#453=EDGE_CURVE('',#546,#546,#623,.T.);
#454=EDGE_CURVE('',#547,#547,#624,.T.);
#455=EDGE_CURVE('',#548,#548,#625,.T.);
#456=EDGE_CURVE('',#549,#549,#626,.T.);
#457=EDGE_CURVE('',#550,#550,#627,.T.);
#458=EDGE_CURVE('',#551,#551,#628,.F.);
#459=EDGE_CURVE('',#552,#552,#629,.T.);
#460=EDGE_CURVE('',#553,#553,#630,.F.);
#461=EDGE_CURVE('',#554,#554,#631,.T.);
#462=EDGE_CURVE('',#555,#555,#632,.F.);
#463=EDGE_CURVE('',#556,#556,#633,.T.);
#464=EDGE_CURVE('',#557,#557,#634,.F.);
#465=EDGE_CURVE('',#558,#558,#635,.T.);
#466=EDGE_CURVE('',#559,#559,#636,.F.);
#467=EDGE_CURVE('',#560,#560,#637,.T.);
#468=VERTEX_POINT('',#1627);
#469=VERTEX_POINT('',#1629);
#470=VERTEX_POINT('',#1633);
#471=VERTEX_POINT('',#1635);
#472=VERTEX_POINT('',#1639);
#473=VERTEX_POINT('',#1641);
#474=VERTEX_POINT('',#1645);
#475=VERTEX_POINT('',#1647);
#476=VERTEX_POINT('',#1651);
#477=VERTEX_POINT('',#1653);
#478=VERTEX_POINT('',#1657);
#479=VERTEX_POINT('',#1659);
#480=VERTEX_POINT('',#1663);
#481=VERTEX_POINT('',#1665);
#482=VERTEX_POINT('',#1669);
#483=VERTEX_POINT('',#1671);
#484=VERTEX_POINT('',#1675);
#485=VERTEX_POINT('',#1677);
#486=VERTEX_POINT('',#1681);
#487=VERTEX_POINT('',#1683);
#488=VERTEX_POINT('',#1687);
#489=VERTEX_POINT('',#1689);
#490=VERTEX_POINT('',#1693);
#491=VERTEX_POINT('',#1695);
#492=VERTEX_POINT('',#1699);
#493=VERTEX_POINT('',#1700);
#494=VERTEX_POINT('',#1702);
#495=VERTEX_POINT('',#1704);
#496=VERTEX_POINT('',#1708);
#497=VERTEX_POINT('',#1710);
#498=VERTEX_POINT('',#1712);
#499=VERTEX_POINT('',#1714);
#500=VERTEX_POINT('',#1716);
#501=VERTEX_POINT('',#1718);
#502=VERTEX_POINT('',#1720);
#503=VERTEX_POINT('',#1724);
#504=VERTEX_POINT('',#1726);
#505=VERTEX_POINT('',#1730);
#506=VERTEX_POINT('',#1731);
#507=VERTEX_POINT('',#1733);
#508=VERTEX_POINT('',#1735);
#509=VERTEX_POINT('',#1739);
#510=VERTEX_POINT('',#1740);
#511=VERTEX_POINT('',#1742);
#512=VERTEX_POINT('',#1744);
#513=VERTEX_POINT('',#1746);
#514=VERTEX_POINT('',#1748);
#515=VERTEX_POINT('',#1752);
#516=VERTEX_POINT('',#1753);
#517=VERTEX_POINT('',#1755);
#518=VERTEX_POINT('',#1757);
#519=VERTEX_POINT('',#1759);
#520=VERTEX_POINT('',#1761);
#521=VERTEX_POINT('',#1764);
#522=VERTEX_POINT('',#1766);
#523=VERTEX_POINT('',#1768);
#524=VERTEX_POINT('',#1770);
#525=VERTEX_POINT('',#1772);
#526=VERTEX_POINT('',#1774);
#527=VERTEX_POINT('',#1776);
#528=VERTEX_POINT('',#1778);
#529=VERTEX_POINT('',#1780);
#530=VERTEX_POINT('',#1789);
#531=VERTEX_POINT('',#1793);
#532=VERTEX_POINT('',#1796);
#533=VERTEX_POINT('',#1798);
#534=VERTEX_POINT('',#1801);
#535=VERTEX_POINT('',#1805);
#536=VERTEX_POINT('',#1809);
#537=VERTEX_POINT('',#1812);
#538=VERTEX_POINT('',#1814);
#539=VERTEX_POINT('',#1816);
#540=VERTEX_POINT('',#1819);
#541=VERTEX_POINT('',#1823);
#542=VERTEX_POINT('',#1827);
#543=VERTEX_POINT('',#1830);
#544=VERTEX_POINT('',#1833);
#545=VERTEX_POINT('',#1861);
#546=VERTEX_POINT('',#1865);
#547=VERTEX_POINT('',#1869);
#548=VERTEX_POINT('',#1873);
#549=VERTEX_POINT('',#1877);
#550=VERTEX_POINT('',#1881);
#551=VERTEX_POINT('',#1885);
#552=VERTEX_POINT('',#1887);
#553=VERTEX_POINT('',#1891);
#554=VERTEX_POINT('',#1893);
#555=VERTEX_POINT('',#1897);
#556=VERTEX_POINT('',#1899);
#557=VERTEX_POINT('',#1903);
#558=VERTEX_POINT('',#1905);
#559=VERTEX_POINT('',#1909);
#560=VERTEX_POINT('',#1911);
#561=CIRCLE('',#1091,0.0015);
#562=CIRCLE('',#1092,0.0015);
#563=CIRCLE('',#1095,0.0015);
#564=CIRCLE('',#1096,0.0015);
#565=CIRCLE('',#1099,0.0015);
#566=CIRCLE('',#1100,0.0015);
#567=CIRCLE('',#1103,0.0015);
#568=CIRCLE('',#1104,0.0015);
#569=CIRCLE('',#1107,0.0015);
#570=CIRCLE('',#1108,0.0015);
#571=CIRCLE('',#1111,0.0015);
#572=CIRCLE('',#1112,0.0015);
#573=CIRCLE('',#1115,0.0015);
#574=CIRCLE('',#1116,0.0015);
#575=CIRCLE('',#1119,0.0015);
#576=CIRCLE('',#1120,0.0015);
#577=CIRCLE('',#1123,0.0015);
#578=CIRCLE('',#1124,0.0015);
#579=CIRCLE('',#1127,0.0015);
#580=CIRCLE('',#1128,0.0015);
#581=CIRCLE('',#1131,0.0015);
#582=CIRCLE('',#1132,0.0015);
#583=CIRCLE('',#1135,0.0015);
#584=CIRCLE('',#1136,0.0015);
#585=CIRCLE('',#1140,0.003225);
#586=CIRCLE('',#1141,0.003225);
#587=CIRCLE('',#1142,0.003225);
#588=CIRCLE('',#1143,0.003225);
#589=CIRCLE('',#1144,0.003225);
#590=CIRCLE('',#1148,0.0076);
#591=CIRCLE('',#1149,0.0076);
#592=CIRCLE('',#1151,0.0076);
#593=CIRCLE('',#1152,0.0076);
#594=CIRCLE('',#1153,0.0135);
#595=CIRCLE('',#1154,0.0135);
#596=CIRCLE('',#1155,0.0135);
#597=CIRCLE('',#1156,0.0135);
#598=CIRCLE('',#1157,0.0135);
#599=CIRCLE('',#1158,0.0135);
#600=CIRCLE('',#1159,0.0135);
#601=CIRCLE('',#1160,0.0135);
#602=CIRCLE('',#1161,0.0135);
#603=CIRCLE('',#1163,0.008);
#604=CIRCLE('',#1164,0.008);
#605=CIRCLE('',#1166,0.008);
#606=CIRCLE('',#1167,0.008);
#607=CIRCLE('',#1169,0.0135);
#608=CIRCLE('',#1172,0.0135);
#609=CIRCLE('',#1174,0.0015);
#610=CIRCLE('',#1175,0.0015);
#611=CIRCLE('',#1177,0.0135);
#612=CIRCLE('',#1180,0.0135);
#613=CIRCLE('',#1183,0.0135);
#614=CIRCLE('',#1185,0.0015);
#615=CIRCLE('',#1186,0.0015);
#616=CIRCLE('',#1187,0.0015);
#617=CIRCLE('',#1189,0.0135);
#618=CIRCLE('',#1192,0.0135);
#619=CIRCLE('',#1195,0.0135);
#620=CIRCLE('',#1197,0.0015);
#621=CIRCLE('',#1199,0.0135);
#622=CIRCLE('',#1214,0.0015);
#623=CIRCLE('',#1217,0.0015);
#624=CIRCLE('',#1220,0.0015);
#625=CIRCLE('',#1223,0.0015);
#626=CIRCLE('',#1226,0.0015);
#627=CIRCLE('',#1229,0.0015);
#628=CIRCLE('',#1232,0.003075);
#629=CIRCLE('',#1233,0.003075);
#630=CIRCLE('',#1236,0.003075);
#631=CIRCLE('',#1237,0.003075);
#632=CIRCLE('',#1240,0.003075);
#633=CIRCLE('',#1241,0.003075);
#634=CIRCLE('',#1244,0.003075);
#635=CIRCLE('',#1245,0.003075);
#636=CIRCLE('',#1248,0.003075);
#637=CIRCLE('',#1249,0.003075);
#638=EDGE_LOOP('',(#135));
#639=EDGE_LOOP('',(#136));
#640=EDGE_LOOP('',(#137));
#641=EDGE_LOOP('',(#138));
#642=EDGE_LOOP('',(#139));
#643=EDGE_LOOP('',(#140));
#644=EDGE_LOOP('',(#141));
#645=EDGE_LOOP('',(#142));
#646=EDGE_LOOP('',(#143));
#647=EDGE_LOOP('',(#144));
#648=EDGE_LOOP('',(#145));
#649=EDGE_LOOP('',(#146));
#650=EDGE_LOOP('',(#147));
#651=EDGE_LOOP('',(#148));
#652=EDGE_LOOP('',(#149));
#653=EDGE_LOOP('',(#150));
#654=EDGE_LOOP('',(#151));
#655=EDGE_LOOP('',(#152));
#656=EDGE_LOOP('',(#153));
#657=EDGE_LOOP('',(#154));
#658=EDGE_LOOP('',(#155));
#659=EDGE_LOOP('',(#156));
#660=EDGE_LOOP('',(#157));
#661=EDGE_LOOP('',(#158));
#662=EDGE_LOOP('',(#159));
#663=EDGE_LOOP('',(#160));
#664=EDGE_LOOP('',(#161));
#665=EDGE_LOOP('',(#162));
#666=EDGE_LOOP('',(#163));
#667=EDGE_LOOP('',(#164));
#668=EDGE_LOOP('',(#165));
#669=EDGE_LOOP('',(#166));
#670=EDGE_LOOP('',(#167));
#671=EDGE_LOOP('',(#168));
#672=EDGE_LOOP('',(#169));
#673=EDGE_LOOP('',(#170));
#674=EDGE_LOOP('',(#171,#172,#173,#174));
#675=EDGE_LOOP('',(#175));
#676=EDGE_LOOP('',(#176));
#677=EDGE_LOOP('',(#177));
#678=EDGE_LOOP('',(#178));
#679=EDGE_LOOP('',(#179));
#680=EDGE_LOOP('',(#180,#181,#182,#183));
#681=EDGE_LOOP('',(#184,#185,#186,#187));
#682=EDGE_LOOP('',(#188,#189,#190,#191));
#683=EDGE_LOOP('',(#192,#193,#194,#195,#196,#197));
#684=EDGE_LOOP('',(#198,#199,#200,#201,#202,#203));
#685=EDGE_LOOP('',(#204));
#686=EDGE_LOOP('',(#205));
#687=EDGE_LOOP('',(#206));
#688=EDGE_LOOP('',(#207));
#689=EDGE_LOOP('',(#208));
#690=EDGE_LOOP('',(#209));
#691=EDGE_LOOP('',(#210));
#692=EDGE_LOOP('',(#211));
#693=EDGE_LOOP('',(#212));
#694=EDGE_LOOP('',(#213,#214,#215,#216));
#695=EDGE_LOOP('',(#217,#218,#219,#220));
#696=EDGE_LOOP('',(#221));
#697=EDGE_LOOP('',(#222));
#698=EDGE_LOOP('',(#223));
#699=EDGE_LOOP('',(#224));
#700=EDGE_LOOP('',(#225));
#701=EDGE_LOOP('',(#226));
#702=EDGE_LOOP('',(#227));
#703=EDGE_LOOP('',(#228));
#704=EDGE_LOOP('',(#229));
#705=EDGE_LOOP('',(#230));
#706=EDGE_LOOP('',(#231));
#707=EDGE_LOOP('',(#232));
#708=EDGE_LOOP('',(#233));
#709=EDGE_LOOP('',(#234));
#710=EDGE_LOOP('',(#235));
#711=EDGE_LOOP('',(#236));
#712=EDGE_LOOP('',(#237));
#713=EDGE_LOOP('',(#238));
#714=EDGE_LOOP('',(#239));
#715=EDGE_LOOP('',(#240));
#716=EDGE_LOOP('',(#241));
#717=EDGE_LOOP('',(#242));
#718=EDGE_LOOP('',(#243));
#719=EDGE_LOOP('',(#244));
#720=EDGE_LOOP('',(#245));
#721=EDGE_LOOP('',(#246));
#722=EDGE_LOOP('',(#247));
#723=EDGE_LOOP('',(#248));
#724=EDGE_LOOP('',(#249));
#725=EDGE_LOOP('',(#250));
#726=EDGE_LOOP('',(#251));
#727=EDGE_LOOP('',(#252));
#728=EDGE_LOOP('',(#253));
#729=EDGE_LOOP('',(#254));
#730=EDGE_LOOP('',(#255));
#731=EDGE_LOOP('',(#256));
#732=EDGE_LOOP('',(#257));
#733=EDGE_LOOP('',(#258));
#734=EDGE_LOOP('',(#259));
#735=EDGE_LOOP('',(#260));
#736=EDGE_LOOP('',(#261));
#737=EDGE_LOOP('',(#262));
#738=EDGE_LOOP('',(#263));
#739=EDGE_LOOP('',(#264));
#740=EDGE_LOOP('',(#265));
#741=EDGE_LOOP('',(#266,#267,#268,#269));
#742=EDGE_LOOP('',(#270,#271,#272,#273));
#743=EDGE_LOOP('',(#274,#275,#276,#277));
#744=EDGE_LOOP('',(#278,#279,#280,#281));
#745=EDGE_LOOP('',(#282,#283,#284,#285));
#746=EDGE_LOOP('',(#286,#287,#288,#289));
#747=EDGE_LOOP('',(#290,#291,#292,#293));
#748=EDGE_LOOP('',(#294,#295,#296,#297));
#749=EDGE_LOOP('',(#298,#299,#300,#301));
#750=EDGE_LOOP('',(#302,#303,#304,#305));
#751=EDGE_LOOP('',(#306,#307,#308,#309));
#752=EDGE_LOOP('',(#310,#311,#312,#313));
#753=EDGE_LOOP('',(#314));
#754=EDGE_LOOP('',(#315));
#755=EDGE_LOOP('',(#316));
#756=EDGE_LOOP('',(#317));
#757=EDGE_LOOP('',(#318));
#758=EDGE_LOOP('',(#319));
#759=EDGE_LOOP('',(#320));
#760=EDGE_LOOP('',(#321));
#761=EDGE_LOOP('',(#322));
#762=EDGE_LOOP('',(#323));
#763=EDGE_LOOP('',(#324));
#764=EDGE_LOOP('',(#325));
#765=EDGE_LOOP('',(#326));
#766=EDGE_LOOP('',(#327));
#767=EDGE_LOOP('',(#328));
#768=EDGE_LOOP('',(#329));
#769=EDGE_LOOP('',(#330));
#770=EDGE_LOOP('',(#331));
#771=EDGE_LOOP('',(#332));
#772=EDGE_LOOP('',(#333));
#773=EDGE_LOOP('',(#334));
#774=EDGE_LOOP('',(#335));
#775=EDGE_LOOP('',(#336));
#776=EDGE_LOOP('',(#337));
#777=EDGE_LOOP('',(#338));
#778=EDGE_LOOP('',(#339));
#779=EDGE_LOOP('',(#340));
#780=EDGE_LOOP('',(#341));
#781=EDGE_LOOP('',(#342));
#782=EDGE_LOOP('',(#343));
#783=EDGE_LOOP('',(#344));
#784=EDGE_LOOP('',(#345));
#785=EDGE_LOOP('',(#346));
#786=EDGE_LOOP('',(#347));
#787=EDGE_LOOP('',(#348));
#788=EDGE_LOOP('',(#349));
#789=EDGE_LOOP('',(#350));
#790=EDGE_LOOP('',(#351));
#791=EDGE_LOOP('',(#352));
#792=EDGE_LOOP('',(#353));
#793=EDGE_LOOP('',(#354));
#794=EDGE_LOOP('',(#355));
#795=EDGE_LOOP('',(#356));
#796=FACE_BOUND('',#638,.T.);
#797=FACE_BOUND('',#639,.T.);
#798=FACE_BOUND('',#640,.T.);
#799=FACE_BOUND('',#641,.T.);
#800=FACE_BOUND('',#642,.T.);
#801=FACE_BOUND('',#643,.T.);
#802=FACE_BOUND('',#644,.T.);
#803=FACE_BOUND('',#645,.T.);
#804=FACE_BOUND('',#646,.T.);
#805=FACE_BOUND('',#647,.T.);
#806=FACE_BOUND('',#648,.T.);
#807=FACE_BOUND('',#649,.T.);
#808=FACE_BOUND('',#650,.T.);
#809=FACE_BOUND('',#651,.T.);
#810=FACE_BOUND('',#652,.T.);
#811=FACE_BOUND('',#653,.T.);
#812=FACE_BOUND('',#654,.T.);
#813=FACE_BOUND('',#655,.T.);
#814=FACE_BOUND('',#656,.T.);
#815=FACE_BOUND('',#657,.T.);
#816=FACE_BOUND('',#658,.T.);
#817=FACE_BOUND('',#659,.T.);
#818=FACE_BOUND('',#660,.T.);
#819=FACE_BOUND('',#661,.T.);
#820=FACE_BOUND('',#662,.T.);
#821=FACE_BOUND('',#663,.T.);
#822=FACE_BOUND('',#664,.T.);
#823=FACE_BOUND('',#665,.T.);
#824=FACE_BOUND('',#666,.T.);
#825=FACE_BOUND('',#667,.T.);
#826=FACE_BOUND('',#668,.T.);
#827=FACE_BOUND('',#669,.T.);
#828=FACE_BOUND('',#670,.T.);
#829=FACE_BOUND('',#671,.T.);
#830=FACE_BOUND('',#672,.T.);
#831=FACE_BOUND('',#673,.T.);
#832=FACE_BOUND('',#674,.T.);
#833=FACE_BOUND('',#675,.T.);
#834=FACE_BOUND('',#676,.T.);
#835=FACE_BOUND('',#677,.T.);
#836=FACE_BOUND('',#678,.T.);
#837=FACE_BOUND('',#679,.T.);
#838=FACE_BOUND('',#680,.T.);
#839=FACE_BOUND('',#681,.T.);
#840=FACE_BOUND('',#682,.T.);
#841=FACE_BOUND('',#683,.T.);
#842=FACE_BOUND('',#684,.T.);
#843=FACE_BOUND('',#685,.T.);
#844=FACE_BOUND('',#686,.T.);
#845=FACE_BOUND('',#687,.T.);
#846=FACE_BOUND('',#688,.T.);
#847=FACE_BOUND('',#689,.T.);
#848=FACE_BOUND('',#690,.T.);
#849=FACE_BOUND('',#691,.T.);
#850=FACE_BOUND('',#692,.T.);
#851=FACE_BOUND('',#693,.T.);
#852=FACE_BOUND('',#694,.T.);
#853=FACE_BOUND('',#695,.T.);
#854=FACE_BOUND('',#696,.T.);
#855=FACE_BOUND('',#697,.T.);
#856=FACE_BOUND('',#698,.T.);
#857=FACE_BOUND('',#699,.T.);
#858=FACE_BOUND('',#700,.T.);
#859=FACE_BOUND('',#701,.T.);
#860=FACE_BOUND('',#702,.T.);
#861=FACE_BOUND('',#703,.T.);
#862=FACE_BOUND('',#704,.T.);
#863=FACE_BOUND('',#705,.T.);
#864=FACE_BOUND('',#706,.T.);
#865=FACE_BOUND('',#707,.T.);
#866=FACE_BOUND('',#708,.T.);
#867=FACE_BOUND('',#709,.T.);
#868=FACE_BOUND('',#710,.T.);
#869=FACE_BOUND('',#711,.T.);
#870=FACE_BOUND('',#712,.T.);
#871=FACE_BOUND('',#713,.T.);
#872=FACE_BOUND('',#714,.T.);
#873=FACE_BOUND('',#715,.T.);
#874=FACE_BOUND('',#716,.T.);
#875=FACE_BOUND('',#717,.T.);
#876=FACE_BOUND('',#718,.T.);
#877=FACE_BOUND('',#719,.T.);
#878=FACE_BOUND('',#720,.T.);
#879=FACE_BOUND('',#721,.T.);
#880=FACE_BOUND('',#722,.T.);
#881=FACE_BOUND('',#723,.T.);
#882=FACE_BOUND('',#724,.T.);
#883=FACE_BOUND('',#725,.T.);
#884=FACE_BOUND('',#726,.T.);
#885=FACE_BOUND('',#727,.T.);
#886=FACE_BOUND('',#728,.T.);
#887=FACE_BOUND('',#729,.T.);
#888=FACE_BOUND('',#730,.T.);
#889=FACE_BOUND('',#731,.T.);
#890=FACE_BOUND('',#732,.T.);
#891=FACE_BOUND('',#733,.T.);
#892=FACE_BOUND('',#734,.T.);
#893=FACE_BOUND('',#735,.T.);
#894=FACE_BOUND('',#736,.T.);
#895=FACE_BOUND('',#737,.T.);
#896=FACE_BOUND('',#738,.T.);
#897=FACE_BOUND('',#739,.T.);
#898=FACE_BOUND('',#740,.T.);
#899=FACE_BOUND('',#741,.T.);
#900=FACE_BOUND('',#742,.T.);
#901=FACE_BOUND('',#743,.T.);
#902=FACE_BOUND('',#744,.T.);
#903=FACE_BOUND('',#745,.T.);
#904=FACE_BOUND('',#746,.T.);
#905=FACE_BOUND('',#747,.T.);
#906=FACE_BOUND('',#748,.T.);
#907=FACE_BOUND('',#749,.T.);
#908=FACE_BOUND('',#750,.T.);
#909=FACE_BOUND('',#751,.T.);
#910=FACE_BOUND('',#752,.T.);
#911=FACE_BOUND('',#753,.T.);
#912=FACE_BOUND('',#754,.T.);
#913=FACE_BOUND('',#755,.T.);
#914=FACE_BOUND('',#756,.T.);
#915=FACE_BOUND('',#757,.T.);
#916=FACE_BOUND('',#758,.T.);
#917=FACE_BOUND('',#759,.T.);
#918=FACE_BOUND('',#760,.T.);
#919=FACE_BOUND('',#761,.T.);
#920=FACE_BOUND('',#762,.T.);
#921=FACE_BOUND('',#763,.T.);
#922=FACE_BOUND('',#764,.T.);
#923=FACE_BOUND('',#765,.T.);
#924=FACE_BOUND('',#766,.T.);
#925=FACE_BOUND('',#767,.T.);
#926=FACE_BOUND('',#768,.T.);
#927=FACE_BOUND('',#769,.T.);
#928=FACE_BOUND('',#770,.T.);
#929=FACE_BOUND('',#771,.T.);
#930=FACE_BOUND('',#772,.T.);
#931=FACE_BOUND('',#773,.T.);
#932=FACE_BOUND('',#774,.T.);
#933=FACE_BOUND('',#775,.T.);
#934=FACE_BOUND('',#776,.T.);
#935=FACE_BOUND('',#777,.T.);
#936=FACE_BOUND('',#778,.T.);
#937=FACE_BOUND('',#779,.T.);
#938=FACE_BOUND('',#780,.T.);
#939=FACE_BOUND('',#781,.T.);
#940=FACE_BOUND('',#782,.T.);
#941=FACE_BOUND('',#783,.T.);
#942=FACE_BOUND('',#784,.T.);
#943=FACE_BOUND('',#785,.T.);
#944=FACE_BOUND('',#786,.T.);
#945=FACE_BOUND('',#787,.T.);
#946=FACE_BOUND('',#788,.T.);
#947=FACE_BOUND('',#789,.T.);
#948=FACE_BOUND('',#790,.T.);
#949=FACE_BOUND('',#791,.T.);
#950=FACE_BOUND('',#792,.T.);
#951=FACE_BOUND('',#793,.T.);
#952=FACE_BOUND('',#794,.T.);
#953=FACE_BOUND('',#795,.T.);
#954=CYLINDRICAL_SURFACE('',#1090,0.0015);
#955=CYLINDRICAL_SURFACE('',#1094,0.0015);
#956=CYLINDRICAL_SURFACE('',#1098,0.0015);
#957=CYLINDRICAL_SURFACE('',#1102,0.0015);
#958=CYLINDRICAL_SURFACE('',#1106,0.0015);
#959=CYLINDRICAL_SURFACE('',#1110,0.0015);
#960=CYLINDRICAL_SURFACE('',#1114,0.0015);
#961=CYLINDRICAL_SURFACE('',#1118,0.0015);
#962=CYLINDRICAL_SURFACE('',#1122,0.0015);
#963=CYLINDRICAL_SURFACE('',#1126,0.0015);
#964=CYLINDRICAL_SURFACE('',#1130,0.0015);
#965=CYLINDRICAL_SURFACE('',#1134,0.0015);
#966=CYLINDRICAL_SURFACE('',#1162,0.008);
#967=CYLINDRICAL_SURFACE('',#1165,0.008);
#968=CYLINDRICAL_SURFACE('',#1168,0.0135);
#969=CYLINDRICAL_SURFACE('',#1171,0.0135);
#970=CYLINDRICAL_SURFACE('',#1176,0.0135);
#971=CYLINDRICAL_SURFACE('',#1179,0.0135);
#972=CYLINDRICAL_SURFACE('',#1182,0.0135);
#973=CYLINDRICAL_SURFACE('',#1188,0.0135);
#974=CYLINDRICAL_SURFACE('',#1191,0.0135);
#975=CYLINDRICAL_SURFACE('',#1194,0.0135);
#976=CYLINDRICAL_SURFACE('',#1198,0.0135);
#977=CYLINDRICAL_SURFACE('',#1213,0.0015);
#978=CYLINDRICAL_SURFACE('',#1216,0.0015);
#979=CYLINDRICAL_SURFACE('',#1219,0.0015);
#980=CYLINDRICAL_SURFACE('',#1222,0.0015);
#981=CYLINDRICAL_SURFACE('',#1225,0.0015);
#982=CYLINDRICAL_SURFACE('',#1228,0.0015);
#983=CYLINDRICAL_SURFACE('',#1231,0.003075);
#984=CYLINDRICAL_SURFACE('',#1235,0.003075);
#985=CYLINDRICAL_SURFACE('',#1239,0.003075);
#986=CYLINDRICAL_SURFACE('',#1243,0.003075);
#987=CYLINDRICAL_SURFACE('',#1247,0.003075);
#988=ADVANCED_FACE('',(#796,#797),#954,.F.);
#989=ADVANCED_FACE('',(#798),#89,.T.);
#990=ADVANCED_FACE('',(#799,#800),#955,.F.);
#991=ADVANCED_FACE('',(#801),#90,.T.);
#992=ADVANCED_FACE('',(#802,#803),#956,.F.);
#993=ADVANCED_FACE('',(#804),#91,.T.);
#994=ADVANCED_FACE('',(#805,#806),#957,.F.);
#995=ADVANCED_FACE('',(#807),#92,.T.);
#996=ADVANCED_FACE('',(#808,#809),#958,.F.);
#997=ADVANCED_FACE('',(#810),#93,.T.);
#998=ADVANCED_FACE('',(#811,#812),#959,.F.);
#999=ADVANCED_FACE('',(#813),#94,.T.);
#1000=ADVANCED_FACE('',(#814,#815),#960,.F.);
#1001=ADVANCED_FACE('',(#816),#95,.T.);
#1002=ADVANCED_FACE('',(#817,#818),#961,.F.);
#1003=ADVANCED_FACE('',(#819),#96,.T.);
#1004=ADVANCED_FACE('',(#820,#821),#962,.F.);
#1005=ADVANCED_FACE('',(#822),#97,.T.);
#1006=ADVANCED_FACE('',(#823,#824),#963,.F.);
#1007=ADVANCED_FACE('',(#825),#98,.T.);
#1008=ADVANCED_FACE('',(#826,#827),#964,.F.);
#1009=ADVANCED_FACE('',(#828),#99,.T.);
#1010=ADVANCED_FACE('',(#829,#830),#965,.F.);
#1011=ADVANCED_FACE('',(#831),#100,.T.);
#1012=ADVANCED_FACE('',(#832),#101,.F.);
#1013=ADVANCED_FACE('',(#833,#834,#835,#836,#837,#838),#102,.F.);
#1014=ADVANCED_FACE('',(#839),#103,.T.);
#1015=ADVANCED_FACE('',(#840),#104,.F.);
#1016=ADVANCED_FACE('',(#841),#105,.T.);
#1017=ADVANCED_FACE('',(#842,#843,#844,#845,#846,#847,#848,#849,#850,#851),
#106,.T.);
#1018=ADVANCED_FACE('',(#852),#966,.T.);
#1019=ADVANCED_FACE('',(#853),#967,.T.);
#1020=ADVANCED_FACE('',(#854,#855),#968,.F.);
#1021=ADVANCED_FACE('',(#856,#857),#107,.T.);
#1022=ADVANCED_FACE('',(#858,#859),#969,.F.);
#1023=ADVANCED_FACE('',(#860,#861,#862),#108,.T.);
#1024=ADVANCED_FACE('',(#863,#864),#970,.F.);
#1025=ADVANCED_FACE('',(#865,#866,#867,#868),#109,.T.);
#1026=ADVANCED_FACE('',(#869,#870),#971,.F.);
#1027=ADVANCED_FACE('',(#871,#872,#873,#874),#110,.T.);
#1028=ADVANCED_FACE('',(#875,#876),#972,.F.);
#1029=ADVANCED_FACE('',(#877,#878,#879,#880),#111,.T.);
#1030=ADVANCED_FACE('',(#881,#882),#973,.F.);
#1031=ADVANCED_FACE('',(#883,#884,#885),#112,.T.);
#1032=ADVANCED_FACE('',(#886,#887),#974,.F.);
#1033=ADVANCED_FACE('',(#888,#889,#890),#113,.T.);
#1034=ADVANCED_FACE('',(#891,#892),#975,.F.);
#1035=ADVANCED_FACE('',(#893,#894),#114,.T.);
#1036=ADVANCED_FACE('',(#895,#896),#976,.F.);
#1037=ADVANCED_FACE('',(#897,#898),#115,.T.);
#1038=ADVANCED_FACE('',(#899),#12,.T.);
#1039=ADVANCED_FACE('',(#900),#116,.T.);
#1040=ADVANCED_FACE('',(#901),#117,.T.);
#1041=ADVANCED_FACE('',(#902),#118,.T.);
#1042=ADVANCED_FACE('',(#903),#13,.T.);
#1043=ADVANCED_FACE('',(#904),#119,.F.);
#1044=ADVANCED_FACE('',(#905),#14,.T.);
#1045=ADVANCED_FACE('',(#906),#120,.T.);
#1046=ADVANCED_FACE('',(#907),#121,.T.);
#1047=ADVANCED_FACE('',(#908),#122,.T.);
#1048=ADVANCED_FACE('',(#909),#15,.T.);
#1049=ADVANCED_FACE('',(#910),#123,.F.);
#1050=ADVANCED_FACE('',(#911,#912),#977,.F.);
#1051=ADVANCED_FACE('',(#913),#124,.T.);
#1052=ADVANCED_FACE('',(#914,#915),#978,.F.);
#1053=ADVANCED_FACE('',(#916),#125,.T.);
#1054=ADVANCED_FACE('',(#917,#918),#979,.F.);
#1055=ADVANCED_FACE('',(#919),#126,.T.);
#1056=ADVANCED_FACE('',(#920,#921),#980,.F.);
#1057=ADVANCED_FACE('',(#922),#127,.T.);
#1058=ADVANCED_FACE('',(#923,#924),#981,.F.);
#1059=ADVANCED_FACE('',(#925),#128,.T.);
#1060=ADVANCED_FACE('',(#926,#927),#982,.F.);
#1061=ADVANCED_FACE('',(#928),#129,.T.);
#1062=ADVANCED_FACE('',(#929,#930),#983,.F.);
#1063=ADVANCED_FACE('',(#931),#130,.F.);
#1064=ADVANCED_FACE('',(#932,#933),#984,.F.);
#1065=ADVANCED_FACE('',(#934),#131,.F.);
#1066=ADVANCED_FACE('',(#935,#936),#985,.F.);
#1067=ADVANCED_FACE('',(#937),#132,.F.);
#1068=ADVANCED_FACE('',(#938,#939),#986,.F.);
#1069=ADVANCED_FACE('',(#940),#133,.F.);
#1070=ADVANCED_FACE('',(#941,#942),#987,.F.);
#1071=ADVANCED_FACE('',(#943),#134,.F.);
#1072=ADVANCED_FACE('',(#944,#945),#16,.F.);
#1073=ADVANCED_FACE('',(#946,#947),#17,.F.);
#1074=ADVANCED_FACE('',(#948,#949),#18,.F.);
#1075=ADVANCED_FACE('',(#950,#951),#19,.F.);
#1076=ADVANCED_FACE('',(#952,#953),#20,.F.);
#1077=CLOSED_SHELL('',(#988,#989,#990,#991,#992,#993,#994,#995,#996,#997,
#998,#999,#1000,#1001,#1002,#1003,#1004,#1005,#1006,#1007,#1008,#1009,#1010,
#1011,#1012,#1013,#1014,#1015,#1016,#1017,#1018,#1019,#1020,#1021,#1022,
#1023,#1024,#1025,#1026,#1027,#1028,#1029,#1030,#1031,#1032,#1033,#1034,
#1035,#1036,#1037,#1038,#1039,#1040,#1041,#1042,#1043,#1044,#1045,#1046,
#1047,#1048,#1049,#1050,#1051,#1052,#1053,#1054,#1055,#1056,#1057,#1058,
#1059,#1060,#1061,#1062,#1063,#1064,#1065,#1066,#1067,#1068,#1069,#1070,
#1071,#1072,#1073,#1074,#1075,#1076));
#1078=STYLED_ITEM('',(#1079),#1086);
#1079=PRESENTATION_STYLE_ASSIGNMENT((#1080));
#1080=SURFACE_STYLE_USAGE(.BOTH.,#1081);
#1081=SURFACE_SIDE_STYLE('',(#1082));
#1082=SURFACE_STYLE_FILL_AREA(#1083);
#1083=FILL_AREA_STYLE('',(#1084));
#1084=FILL_AREA_STYLE_COLOUR('',#1085);
#1085=COLOUR_RGB('',0.647058823529412,0.647058823529412,0.647058823529412);
#1086=MANIFOLD_SOLID_BREP('Cake TopTray',#1077);
#1087=SHAPE_DEFINITION_REPRESENTATION(#1924,#1088);
#1088=SHAPE_REPRESENTATION('Cake TopTray',(#1089),#1919);
#1089=AXIS2_PLACEMENT_3D('',#1624,#1256,#1257);
#1090=AXIS2_PLACEMENT_3D('',#1625,#1258,#1259);
#1091=AXIS2_PLACEMENT_3D('',#1626,#1260,#1261);
#1092=AXIS2_PLACEMENT_3D('',#1628,#1262,#1263);
#1093=AXIS2_PLACEMENT_3D('',#1630,#1264,#1265);
#1094=AXIS2_PLACEMENT_3D('',#1631,#1266,#1267);
#1095=AXIS2_PLACEMENT_3D('',#1632,#1268,#1269);
#1096=AXIS2_PLACEMENT_3D('',#1634,#1270,#1271);
#1097=AXIS2_PLACEMENT_3D('',#1636,#1272,#1273);
#1098=AXIS2_PLACEMENT_3D('',#1637,#1274,#1275);
#1099=AXIS2_PLACEMENT_3D('',#1638,#1276,#1277);
#1100=AXIS2_PLACEMENT_3D('',#1640,#1278,#1279);
#1101=AXIS2_PLACEMENT_3D('',#1642,#1280,#1281);
#1102=AXIS2_PLACEMENT_3D('',#1643,#1282,#1283);
#1103=AXIS2_PLACEMENT_3D('',#1644,#1284,#1285);
#1104=AXIS2_PLACEMENT_3D('',#1646,#1286,#1287);
#1105=AXIS2_PLACEMENT_3D('',#1648,#1288,#1289);
#1106=AXIS2_PLACEMENT_3D('',#1649,#1290,#1291);
#1107=AXIS2_PLACEMENT_3D('',#1650,#1292,#1293);
#1108=AXIS2_PLACEMENT_3D('',#1652,#1294,#1295);
#1109=AXIS2_PLACEMENT_3D('',#1654,#1296,#1297);
#1110=AXIS2_PLACEMENT_3D('',#1655,#1298,#1299);
#1111=AXIS2_PLACEMENT_3D('',#1656,#1300,#1301);
#1112=AXIS2_PLACEMENT_3D('',#1658,#1302,#1303);
#1113=AXIS2_PLACEMENT_3D('',#1660,#1304,#1305);
#1114=AXIS2_PLACEMENT_3D('',#1661,#1306,#1307);
#1115=AXIS2_PLACEMENT_3D('',#1662,#1308,#1309);
#1116=AXIS2_PLACEMENT_3D('',#1664,#1310,#1311);
#1117=AXIS2_PLACEMENT_3D('',#1666,#1312,#1313);
#1118=AXIS2_PLACEMENT_3D('',#1667,#1314,#1315);
#1119=AXIS2_PLACEMENT_3D('',#1668,#1316,#1317);
#1120=AXIS2_PLACEMENT_3D('',#1670,#1318,#1319);
#1121=AXIS2_PLACEMENT_3D('',#1672,#1320,#1321);
#1122=AXIS2_PLACEMENT_3D('',#1673,#1322,#1323);
#1123=AXIS2_PLACEMENT_3D('',#1674,#1324,#1325);
#1124=AXIS2_PLACEMENT_3D('',#1676,#1326,#1327);
#1125=AXIS2_PLACEMENT_3D('',#1678,#1328,#1329);
#1126=AXIS2_PLACEMENT_3D('',#1679,#1330,#1331);
#1127=AXIS2_PLACEMENT_3D('',#1680,#1332,#1333);
#1128=AXIS2_PLACEMENT_3D('',#1682,#1334,#1335);
#1129=AXIS2_PLACEMENT_3D('',#1684,#1336,#1337);
#1130=AXIS2_PLACEMENT_3D('',#1685,#1338,#1339);
#1131=AXIS2_PLACEMENT_3D('',#1686,#1340,#1341);
#1132=AXIS2_PLACEMENT_3D('',#1688,#1342,#1343);
#1133=AXIS2_PLACEMENT_3D('',#1690,#1344,#1345);
#1134=AXIS2_PLACEMENT_3D('',#1691,#1346,#1347);
#1135=AXIS2_PLACEMENT_3D('',#1692,#1348,#1349);
#1136=AXIS2_PLACEMENT_3D('',#1694,#1350,#1351);
#1137=AXIS2_PLACEMENT_3D('',#1696,#1352,#1353);
#1138=AXIS2_PLACEMENT_3D('',#1697,#1354,#1355);
#1139=AXIS2_PLACEMENT_3D('',#1706,#1360,#1361);
#1140=AXIS2_PLACEMENT_3D('',#1707,#1362,#1363);
#1141=AXIS2_PLACEMENT_3D('',#1709,#1364,#1365);
#1142=AXIS2_PLACEMENT_3D('',#1711,#1366,#1367);
#1143=AXIS2_PLACEMENT_3D('',#1713,#1368,#1369);
#1144=AXIS2_PLACEMENT_3D('',#1715,#1370,#1371);
#1145=AXIS2_PLACEMENT_3D('',#1722,#1375,#1376);
#1146=AXIS2_PLACEMENT_3D('',#1728,#1380,#1381);
#1147=AXIS2_PLACEMENT_3D('',#1737,#1386,#1387);
#1148=AXIS2_PLACEMENT_3D('',#1743,#1390,#1391);
#1149=AXIS2_PLACEMENT_3D('',#1747,#1393,#1394);
#1150=AXIS2_PLACEMENT_3D('',#1750,#1396,#1397);
#1151=AXIS2_PLACEMENT_3D('',#1751,#1398,#1399);
#1152=AXIS2_PLACEMENT_3D('',#1760,#1403,#1404);
#1153=AXIS2_PLACEMENT_3D('',#1763,#1406,#1407);
#1154=AXIS2_PLACEMENT_3D('',#1765,#1408,#1409);
#1155=AXIS2_PLACEMENT_3D('',#1767,#1410,#1411);
#1156=AXIS2_PLACEMENT_3D('',#1769,#1412,#1413);
#1157=AXIS2_PLACEMENT_3D('',#1771,#1414,#1415);
#1158=AXIS2_PLACEMENT_3D('',#1773,#1416,#1417);
#1159=AXIS2_PLACEMENT_3D('',#1775,#1418,#1419);
#1160=AXIS2_PLACEMENT_3D('',#1777,#1420,#1421);
#1161=AXIS2_PLACEMENT_3D('',#1779,#1422,#1423);
#1162=AXIS2_PLACEMENT_3D('',#1781,#1424,#1425);
#1163=AXIS2_PLACEMENT_3D('',#1782,#1426,#1427);
#1164=AXIS2_PLACEMENT_3D('',#1783,#1428,#1429);
#1165=AXIS2_PLACEMENT_3D('',#1784,#1430,#1431);
#1166=AXIS2_PLACEMENT_3D('',#1785,#1432,#1433);
#1167=AXIS2_PLACEMENT_3D('',#1786,#1434,#1435);
#1168=AXIS2_PLACEMENT_3D('',#1787,#1436,#1437);
#1169=AXIS2_PLACEMENT_3D('',#1788,#1438,#1439);
#1170=AXIS2_PLACEMENT_3D('',#1790,#1440,#1441);
#1171=AXIS2_PLACEMENT_3D('',#1791,#1442,#1443);
#1172=AXIS2_PLACEMENT_3D('',#1792,#1444,#1445);
#1173=AXIS2_PLACEMENT_3D('',#1794,#1446,#1447);
#1174=AXIS2_PLACEMENT_3D('',#1795,#1448,#1449);
#1175=AXIS2_PLACEMENT_3D('',#1797,#1450,#1451);
#1176=AXIS2_PLACEMENT_3D('',#1799,#1452,#1453);
#1177=AXIS2_PLACEMENT_3D('',#1800,#1454,#1455);
#1178=AXIS2_PLACEMENT_3D('',#1802,#1456,#1457);
#1179=AXIS2_PLACEMENT_3D('',#1803,#1458,#1459);
#1180=AXIS2_PLACEMENT_3D('',#1804,#1460,#1461);
#1181=AXIS2_PLACEMENT_3D('',#1806,#1462,#1463);
#1182=AXIS2_PLACEMENT_3D('',#1807,#1464,#1465);
#1183=AXIS2_PLACEMENT_3D('',#1808,#1466,#1467);
#1184=AXIS2_PLACEMENT_3D('',#1810,#1468,#1469);
#1185=AXIS2_PLACEMENT_3D('',#1811,#1470,#1471);
#1186=AXIS2_PLACEMENT_3D('',#1813,#1472,#1473);
#1187=AXIS2_PLACEMENT_3D('',#1815,#1474,#1475);
#1188=AXIS2_PLACEMENT_3D('',#1817,#1476,#1477);
#1189=AXIS2_PLACEMENT_3D('',#1818,#1478,#1479);
#1190=AXIS2_PLACEMENT_3D('',#1820,#1480,#1481);
#1191=AXIS2_PLACEMENT_3D('',#1821,#1482,#1483);
#1192=AXIS2_PLACEMENT_3D('',#1822,#1484,#1485);
#1193=AXIS2_PLACEMENT_3D('',#1824,#1486,#1487);
#1194=AXIS2_PLACEMENT_3D('',#1825,#1488,#1489);
#1195=AXIS2_PLACEMENT_3D('',#1826,#1490,#1491);
#1196=AXIS2_PLACEMENT_3D('',#1828,#1492,#1493);
#1197=AXIS2_PLACEMENT_3D('',#1829,#1494,#1495);
#1198=AXIS2_PLACEMENT_3D('',#1831,#1496,#1497);
#1199=AXIS2_PLACEMENT_3D('',#1832,#1498,#1499);
#1200=AXIS2_PLACEMENT_3D('',#1834,#1500,#1501);
#1201=AXIS2_PLACEMENT_3D('',#1835,#1502,#1503);
#1202=AXIS2_PLACEMENT_3D('',#1838,#1506,#1507);
#1203=AXIS2_PLACEMENT_3D('',#1840,#1509,#1510);
#1204=AXIS2_PLACEMENT_3D('',#1842,#1512,#1513);
#1205=AXIS2_PLACEMENT_3D('',#1844,#1515,#1516);
#1206=AXIS2_PLACEMENT_3D('',#1846,#1518,#1519);
#1207=AXIS2_PLACEMENT_3D('',#1847,#1520,#1521);
#1208=AXIS2_PLACEMENT_3D('',#1850,#1524,#1525);
#1209=AXIS2_PLACEMENT_3D('',#1852,#1527,#1528);
#1210=AXIS2_PLACEMENT_3D('',#1854,#1530,#1531);
#1211=AXIS2_PLACEMENT_3D('',#1856,#1533,#1534);
#1212=AXIS2_PLACEMENT_3D('',#1858,#1536,#1537);
#1213=AXIS2_PLACEMENT_3D('',#1859,#1538,#1539);
#1214=AXIS2_PLACEMENT_3D('',#1860,#1540,#1541);
#1215=AXIS2_PLACEMENT_3D('',#1862,#1542,#1543);
#1216=AXIS2_PLACEMENT_3D('',#1863,#1544,#1545);
#1217=AXIS2_PLACEMENT_3D('',#1864,#1546,#1547);
#1218=AXIS2_PLACEMENT_3D('',#1866,#1548,#1549);
#1219=AXIS2_PLACEMENT_3D('',#1867,#1550,#1551);
#1220=AXIS2_PLACEMENT_3D('',#1868,#1552,#1553);
#1221=AXIS2_PLACEMENT_3D('',#1870,#1554,#1555);
#1222=AXIS2_PLACEMENT_3D('',#1871,#1556,#1557);
#1223=AXIS2_PLACEMENT_3D('',#1872,#1558,#1559);
#1224=AXIS2_PLACEMENT_3D('',#1874,#1560,#1561);
#1225=AXIS2_PLACEMENT_3D('',#1875,#1562,#1563);
#1226=AXIS2_PLACEMENT_3D('',#1876,#1564,#1565);
#1227=AXIS2_PLACEMENT_3D('',#1878,#1566,#1567);
#1228=AXIS2_PLACEMENT_3D('',#1879,#1568,#1569);
#1229=AXIS2_PLACEMENT_3D('',#1880,#1570,#1571);
#1230=AXIS2_PLACEMENT_3D('',#1882,#1572,#1573);
#1231=AXIS2_PLACEMENT_3D('',#1883,#1574,#1575);
#1232=AXIS2_PLACEMENT_3D('',#1884,#1576,#1577);
#1233=AXIS2_PLACEMENT_3D('',#1886,#1578,#1579);
#1234=AXIS2_PLACEMENT_3D('',#1888,#1580,#1581);
#1235=AXIS2_PLACEMENT_3D('',#1889,#1582,#1583);
#1236=AXIS2_PLACEMENT_3D('',#1890,#1584,#1585);
#1237=AXIS2_PLACEMENT_3D('',#1892,#1586,#1587);
#1238=AXIS2_PLACEMENT_3D('',#1894,#1588,#1589);
#1239=AXIS2_PLACEMENT_3D('',#1895,#1590,#1591);
#1240=AXIS2_PLACEMENT_3D('',#1896,#1592,#1593);
#1241=AXIS2_PLACEMENT_3D('',#1898,#1594,#1595);
#1242=AXIS2_PLACEMENT_3D('',#1900,#1596,#1597);
#1243=AXIS2_PLACEMENT_3D('',#1901,#1598,#1599);
#1244=AXIS2_PLACEMENT_3D('',#1902,#1600,#1601);
#1245=AXIS2_PLACEMENT_3D('',#1904,#1602,#1603);
#1246=AXIS2_PLACEMENT_3D('',#1906,#1604,#1605);
#1247=AXIS2_PLACEMENT_3D('',#1907,#1606,#1607);
#1248=AXIS2_PLACEMENT_3D('',#1908,#1608,#1609);
#1249=AXIS2_PLACEMENT_3D('',#1910,#1610,#1611);
#1250=AXIS2_PLACEMENT_3D('',#1912,#1612,#1613);
#1251=AXIS2_PLACEMENT_3D('',#1913,#1614,#1615);
#1252=AXIS2_PLACEMENT_3D('',#1914,#1616,#1617);
#1253=AXIS2_PLACEMENT_3D('',#1915,#1618,#1619);
#1254=AXIS2_PLACEMENT_3D('',#1916,#1620,#1621);
#1255=AXIS2_PLACEMENT_3D('',#1917,#1622,#1623);
#1256=DIRECTION('',(0.,0.,1.));
#1257=DIRECTION('',(1.,0.,0.));
#1258=DIRECTION('',(0.,1.,0.));
#1259=DIRECTION('',(1.,0.,0.));
#1260=DIRECTION('',(0.,1.,0.));
#1261=DIRECTION('',(1.,0.,0.));
#1262=DIRECTION('',(0.,1.,0.));
#1263=DIRECTION('',(1.,0.,0.));
#1264=DIRECTION('',(0.,1.,0.));
#1265=DIRECTION('',(1.,0.,0.));
#1266=DIRECTION('',(0.,1.,0.));
#1267=DIRECTION('',(1.,0.,0.));
#1268=DIRECTION('',(0.,1.,0.));
#1269=DIRECTION('',(1.,0.,0.));
#1270=DIRECTION('',(0.,1.,0.));
#1271=DIRECTION('',(1.,0.,0.));
#1272=DIRECTION('',(0.,1.,0.));
#1273=DIRECTION('',(1.,0.,0.));
#1274=DIRECTION('',(0.,1.,0.));
#1275=DIRECTION('',(1.,0.,0.));
#1276=DIRECTION('',(0.,1.,0.));
#1277=DIRECTION('',(1.,0.,0.));
#1278=DIRECTION('',(0.,1.,0.));
#1279=DIRECTION('',(1.,0.,0.));
#1280=DIRECTION('',(0.,1.,0.));
#1281=DIRECTION('',(1.,0.,0.));
#1282=DIRECTION('',(0.,1.,0.));
#1283=DIRECTION('',(1.,0.,0.));
#1284=DIRECTION('',(0.,1.,0.));
#1285=DIRECTION('',(1.,0.,0.));
#1286=DIRECTION('',(0.,1.,0.));
#1287=DIRECTION('',(1.,0.,0.));
#1288=DIRECTION('',(0.,1.,0.));
#1289=DIRECTION('',(1.,0.,0.));
#1290=DIRECTION('',(0.,1.,0.));
#1291=DIRECTION('',(1.,0.,0.));
#1292=DIRECTION('',(0.,1.,0.));
#1293=DIRECTION('',(1.,0.,0.));
#1294=DIRECTION('',(0.,1.,0.));
#1295=DIRECTION('',(1.,0.,0.));
#1296=DIRECTION('',(0.,1.,0.));
#1297=DIRECTION('',(1.,0.,0.));
#1298=DIRECTION('',(0.,1.,0.));
#1299=DIRECTION('',(1.,0.,0.));
#1300=DIRECTION('',(0.,1.,0.));
#1301=DIRECTION('',(1.,0.,0.));
#1302=DIRECTION('',(0.,1.,0.));
#1303=DIRECTION('',(1.,0.,0.));
#1304=DIRECTION('',(0.,1.,0.));
#1305=DIRECTION('',(1.,0.,0.));
#1306=DIRECTION('',(0.,1.,0.));
#1307=DIRECTION('',(1.,0.,0.));
#1308=DIRECTION('',(0.,1.,0.));
#1309=DIRECTION('',(1.,0.,0.));
#1310=DIRECTION('',(0.,1.,0.));
#1311=DIRECTION('',(1.,0.,0.));
#1312=DIRECTION('',(0.,1.,0.));
#1313=DIRECTION('',(1.,0.,0.));
#1314=DIRECTION('',(0.,1.,0.));
#1315=DIRECTION('',(1.,0.,0.));
#1316=DIRECTION('',(0.,1.,0.));
#1317=DIRECTION('',(1.,0.,0.));
#1318=DIRECTION('',(0.,1.,0.));
#1319=DIRECTION('',(1.,0.,0.));
#1320=DIRECTION('',(0.,1.,0.));
#1321=DIRECTION('',(1.,0.,0.));
#1322=DIRECTION('',(0.,1.,0.));
#1323=DIRECTION('',(1.,0.,0.));
#1324=DIRECTION('',(0.,1.,0.));
#1325=DIRECTION('',(1.,0.,0.));
#1326=DIRECTION('',(0.,1.,0.));
#1327=DIRECTION('',(1.,0.,0.));
#1328=DIRECTION('',(0.,1.,0.));
#1329=DIRECTION('',(1.,0.,0.));
#1330=DIRECTION('',(0.,1.,0.));
#1331=DIRECTION('',(1.,0.,0.));
#1332=DIRECTION('',(0.,1.,0.));
#1333=DIRECTION('',(1.,0.,0.));
#1334=DIRECTION('',(0.,1.,0.));
#1335=DIRECTION('',(1.,0.,0.));
#1336=DIRECTION('',(0.,1.,0.));
#1337=DIRECTION('',(1.,0.,0.));
#1338=DIRECTION('',(0.,1.,0.));
#1339=DIRECTION('',(1.,0.,0.));
#1340=DIRECTION('',(0.,1.,0.));
#1341=DIRECTION('',(1.,0.,0.));
#1342=DIRECTION('',(0.,1.,0.));
#1343=DIRECTION('',(1.,0.,0.));
#1344=DIRECTION('',(0.,1.,0.));
#1345=DIRECTION('',(1.,0.,0.));
#1346=DIRECTION('',(0.,1.,0.));
#1347=DIRECTION('',(1.,0.,0.));
#1348=DIRECTION('',(0.,1.,0.));
#1349=DIRECTION('',(1.,0.,0.));
#1350=DIRECTION('',(0.,1.,0.));
#1351=DIRECTION('',(1.,0.,0.));
#1352=DIRECTION('',(0.,1.,0.));
#1353=DIRECTION('',(1.,0.,0.));
#1354=DIRECTION('',(1.,0.,0.));
#1355=DIRECTION('',(0.,-1.,0.));
#1356=DIRECTION('',(0.,-1.,0.));
#1357=DIRECTION('',(0.,0.,-1.));
#1358=DIRECTION('',(0.,-1.,0.));
#1359=DIRECTION('',(0.,0.,1.));
#1360=DIRECTION('',(0.,0.,1.));
#1361=DIRECTION('',(0.,-1.,0.));
#1362=DIRECTION('',(0.,0.,1.));
#1363=DIRECTION('',(0.,-1.,0.));
#1364=DIRECTION('',(0.,0.,1.));
#1365=DIRECTION('',(0.,-1.,0.));
#1366=DIRECTION('',(0.,0.,1.));
#1367=DIRECTION('',(0.,-1.,0.));
#1368=DIRECTION('',(0.,0.,1.));
#1369=DIRECTION('',(0.,-1.,0.));
#1370=DIRECTION('',(0.,0.,1.));
#1371=DIRECTION('',(0.,-1.,0.));
#1372=DIRECTION('',(1.,0.,0.));
#1373=DIRECTION('',(0.,-1.,0.));
#1374=DIRECTION('',(-1.,0.,0.));
#1375=DIRECTION('',(1.,0.,0.));
#1376=DIRECTION('',(0.,-1.,0.));
#1377=DIRECTION('',(0.,0.,1.));
#1378=DIRECTION('',(0.,-1.,0.));
#1379=DIRECTION('',(0.,0.,-1.));
#1380=DIRECTION('',(0.,0.,-1.));
#1381=DIRECTION('',(0.,1.,0.));
#1382=DIRECTION('',(0.,-1.,0.));
#1383=DIRECTION('',(-1.,0.,0.));
#1384=DIRECTION('',(0.,-1.,0.));
#1385=DIRECTION('',(1.,0.,0.));
#1386=DIRECTION('',(0.,-1.,0.));
#1387=DIRECTION('',(1.,0.,0.));
#1388=DIRECTION('',(1.,0.,0.));
#1389=DIRECTION('',(0.,0.,1.));
#1390=DIRECTION('',(0.,-1.,0.));
#1391=DIRECTION('',(-1.,0.,0.));
#1392=DIRECTION('',(-1.,0.,0.));
#1393=DIRECTION('',(0.,-1.,0.));
#1394=DIRECTION('',(-1.,0.,0.));
#1395=DIRECTION('',(0.,0.,-1.));
#1396=DIRECTION('',(0.,1.,0.));
#1397=DIRECTION('',(1.,0.,0.));
#1398=DIRECTION('',(0.,1.,0.));
#1399=DIRECTION('',(1.,0.,0.));
#1400=DIRECTION('',(0.,0.,-1.));
#1401=DIRECTION('',(-1.,0.,0.));
#1402=DIRECTION('',(0.,0.,1.));
#1403=DIRECTION('',(0.,1.,0.));
#1404=DIRECTION('',(1.,0.,0.));
#1405=DIRECTION('',(1.,0.,0.));
#1406=DIRECTION('',(0.,1.,0.));
#1407=DIRECTION('',(1.,0.,0.));
#1408=DIRECTION('',(0.,1.,0.));
#1409=DIRECTION('',(1.,0.,0.));
#1410=DIRECTION('',(0.,1.,0.));
#1411=DIRECTION('',(1.,0.,0.));
#1412=DIRECTION('',(0.,1.,0.));
#1413=DIRECTION('',(1.,0.,0.));
#1414=DIRECTION('',(0.,1.,0.));
#1415=DIRECTION('',(1.,0.,0.));
#1416=DIRECTION('',(0.,1.,0.));
#1417=DIRECTION('',(1.,0.,0.));
#1418=DIRECTION('',(0.,1.,0.));
#1419=DIRECTION('',(1.,0.,0.));
#1420=DIRECTION('',(0.,1.,0.));
#1421=DIRECTION('',(1.,0.,0.));
#1422=DIRECTION('',(0.,1.,0.));
#1423=DIRECTION('',(1.,0.,0.));
#1424=DIRECTION('',(0.,-1.,0.));
#1425=DIRECTION('',(-1.,0.,0.));
#1426=DIRECTION('',(0.,1.,0.));
#1427=DIRECTION('',(1.,0.,0.));
#1428=DIRECTION('',(0.,-1.,0.));
#1429=DIRECTION('',(-1.,0.,0.));
#1430=DIRECTION('',(0.,1.,0.));
#1431=DIRECTION('',(1.,0.,0.));
#1432=DIRECTION('',(0.,1.,0.));
#1433=DIRECTION('',(1.,0.,0.));
#1434=DIRECTION('',(0.,-1.,0.));
#1435=DIRECTION('',(-1.,0.,0.));
#1436=DIRECTION('',(0.,1.,0.));
#1437=DIRECTION('',(1.,0.,0.));
#1438=DIRECTION('',(0.,1.,0.));
#1439=DIRECTION('',(1.,0.,0.));
#1440=DIRECTION('',(0.,1.,0.));
#1441=DIRECTION('',(1.,0.,0.));
#1442=DIRECTION('',(0.,1.,0.));
#1443=DIRECTION('',(1.,0.,0.));
#1444=DIRECTION('',(0.,1.,0.));
#1445=DIRECTION('',(1.,0.,0.));
#1446=DIRECTION('',(0.,1.,0.));
#1447=DIRECTION('',(1.,0.,0.));
#1448=DIRECTION('',(0.,1.,0.));
#1449=DIRECTION('',(1.,0.,0.));
#1450=DIRECTION('',(0.,1.,0.));
#1451=DIRECTION('',(1.,0.,0.));
#1452=DIRECTION('',(0.,1.,0.));
#1453=DIRECTION('',(1.,0.,0.));
#1454=DIRECTION('',(0.,1.,0.));
#1455=DIRECTION('',(1.,0.,0.));
#1456=DIRECTION('',(0.,1.,0.));
#1457=DIRECTION('',(1.,0.,0.));
#1458=DIRECTION('',(0.,1.,0.));
#1459=DIRECTION('',(1.,0.,0.));
#1460=DIRECTION('',(0.,1.,0.));
#1461=DIRECTION('',(1.,0.,0.));
#1462=DIRECTION('',(0.,1.,0.));
#1463=DIRECTION('',(1.,0.,0.));
#1464=DIRECTION('',(0.,1.,0.));
#1465=DIRECTION('',(1.,0.,0.));
#1466=DIRECTION('',(0.,1.,0.));
#1467=DIRECTION('',(1.,0.,0.));
#1468=DIRECTION('',(0.,1.,0.));
#1469=DIRECTION('',(1.,0.,0.));
#1470=DIRECTION('',(0.,1.,0.));
#1471=DIRECTION('',(1.,0.,0.));
#1472=DIRECTION('',(0.,1.,0.));
#1473=DIRECTION('',(1.,0.,0.));
#1474=DIRECTION('',(0.,1.,0.));
#1475=DIRECTION('',(1.,0.,0.));
#1476=DIRECTION('',(0.,1.,0.));
#1477=DIRECTION('',(1.,0.,0.));
#1478=DIRECTION('',(0.,1.,0.));
#1479=DIRECTION('',(1.,0.,0.));
#1480=DIRECTION('',(0.,1.,0.));
#1481=DIRECTION('',(1.,0.,0.));
#1482=DIRECTION('',(0.,1.,0.));
#1483=DIRECTION('',(1.,0.,0.));
#1484=DIRECTION('',(0.,1.,0.));
#1485=DIRECTION('',(1.,0.,0.));
#1486=DIRECTION('',(0.,1.,0.));
#1487=DIRECTION('',(1.,0.,0.));
#1488=DIRECTION('',(0.,1.,0.));
#1489=DIRECTION('',(1.,0.,0.));
#1490=DIRECTION('',(0.,1.,0.));
#1491=DIRECTION('',(1.,0.,0.));
#1492=DIRECTION('',(0.,1.,0.));
#1493=DIRECTION('',(1.,0.,0.));
#1494=DIRECTION('',(0.,1.,0.));
#1495=DIRECTION('',(1.,0.,0.));
#1496=DIRECTION('',(0.,1.,0.));
#1497=DIRECTION('',(1.,0.,0.));
#1498=DIRECTION('',(0.,1.,0.));
#1499=DIRECTION('',(1.,0.,0.));
#1500=DIRECTION('',(0.,1.,0.));
#1501=DIRECTION('',(1.,0.,0.));
#1502=DIRECTION('',(0.,1.,0.));
#1503=DIRECTION('',(1.,0.,0.));
#1504=DIRECTION('',(0.,-0.707106781186538,-0.707106781186557));
#1505=DIRECTION('',(-0.707106781186557,0.707106781186538,0.));
#1506=DIRECTION('',(-0.707106781186551,-0.707106781186545,0.));
#1507=DIRECTION('',(0.,0.,-1.));
#1508=DIRECTION('',(-0.577350269189624,0.577350269189629,-0.577350269189624));
#1509=DIRECTION('',(0.,-0.707106781186557,0.707106781186538));
#1510=DIRECTION('',(-1.,0.,0.));
#1511=DIRECTION('',(0.,-0.707106781186538,-0.707106781186557));
#1512=DIRECTION('',(0.,-0.707106781186545,-0.707106781186551));
#1513=DIRECTION('',(1.,0.,0.));
#1514=DIRECTION('',(0.577350269189624,0.577350269189629,-0.577350269189624));
#1515=DIRECTION('',(0.,1.,0.));
#1516=DIRECTION('',(1.,0.,0.));
#1517=DIRECTION('',(-0.707106781186532,-0.707106781186563,0.));
#1518=DIRECTION('',(-0.707106781186551,0.707106781186545,0.));
#1519=DIRECTION('',(0.,0.,1.));
#1520=DIRECTION('',(0.,-1.,0.));
#1521=DIRECTION('',(-1.,0.,0.));
#1522=DIRECTION('',(0.,-0.707106781186538,0.707106781186558));
#1523=DIRECTION('',(0.707106781186545,0.70710678118655,0.));
#1524=DIRECTION('',(-0.70710678118655,0.707106781186545,0.));
#1525=DIRECTION('',(0.,0.,-1.));
#1526=DIRECTION('',(0.577350269189625,0.577350269189628,0.577350269189625));
#1527=DIRECTION('',(0.,0.707106781186558,0.707106781186538));
#1528=DIRECTION('',(-1.,0.,0.));
#1529=DIRECTION('',(0.,-0.707106781186538,0.707106781186558));
#1530=DIRECTION('',(0.,0.707106781186545,-0.70710678118655));
#1531=DIRECTION('',(1.,0.,0.));
#1532=DIRECTION('',(-0.577350269189625,0.577350269189628,0.577350269189625));
#1533=DIRECTION('',(0.,-1.,0.));
#1534=DIRECTION('',(-1.,0.,0.));
#1535=DIRECTION('',(0.707106781186558,-0.707106781186538,0.));
#1536=DIRECTION('',(-0.70710678118655,-0.707106781186545,0.));
#1537=DIRECTION('',(0.,0.,1.));
#1538=DIRECTION('',(0.,1.,0.));
#1539=DIRECTION('',(1.,0.,0.));
#1540=DIRECTION('',(0.,1.,0.));
#1541=DIRECTION('',(1.,0.,0.));
#1542=DIRECTION('',(0.,1.,0.));
#1543=DIRECTION('',(1.,0.,0.));
#1544=DIRECTION('',(0.,1.,0.));
#1545=DIRECTION('',(1.,0.,0.));
#1546=DIRECTION('',(0.,1.,0.));
#1547=DIRECTION('',(1.,0.,0.));
#1548=DIRECTION('',(0.,1.,0.));
#1549=DIRECTION('',(1.,0.,0.));
#1550=DIRECTION('',(0.,1.,0.));
#1551=DIRECTION('',(1.,0.,0.));
#1552=DIRECTION('',(0.,1.,0.));
#1553=DIRECTION('',(1.,0.,0.));
#1554=DIRECTION('',(0.,1.,0.));
#1555=DIRECTION('',(1.,0.,0.));
#1556=DIRECTION('',(0.,1.,0.));
#1557=DIRECTION('',(1.,0.,0.));
#1558=DIRECTION('',(0.,1.,0.));
#1559=DIRECTION('',(1.,0.,0.));
#1560=DIRECTION('',(0.,1.,0.));
#1561=DIRECTION('',(1.,0.,0.));
#1562=DIRECTION('',(0.,1.,0.));
#1563=DIRECTION('',(1.,0.,0.));
#1564=DIRECTION('',(0.,1.,0.));
#1565=DIRECTION('',(1.,0.,0.));
#1566=DIRECTION('',(0.,1.,0.));
#1567=DIRECTION('',(1.,0.,0.));
#1568=DIRECTION('',(0.,1.,0.));
#1569=DIRECTION('',(1.,0.,0.));
#1570=DIRECTION('',(0.,1.,0.));
#1571=DIRECTION('',(1.,0.,0.));
#1572=DIRECTION('',(0.,1.,0.));
#1573=DIRECTION('',(1.,0.,0.));
#1574=DIRECTION('',(0.,0.,-1.));
#1575=DIRECTION('',(0.,1.,0.));
#1576=DIRECTION('',(0.,0.,1.));
#1577=DIRECTION('',(0.,-1.,0.));
#1578=DIRECTION('',(0.,0.,1.));
#1579=DIRECTION('',(0.,-1.,0.));
#1580=DIRECTION('',(0.,0.,1.));
#1581=DIRECTION('',(1.,0.,0.));
#1582=DIRECTION('',(0.,0.,-1.));
#1583=DIRECTION('',(0.,1.,0.));
#1584=DIRECTION('',(0.,0.,1.));
#1585=DIRECTION('',(0.,-1.,0.));
#1586=DIRECTION('',(0.,0.,1.));
#1587=DIRECTION('',(0.,-1.,0.));
#1588=DIRECTION('',(0.,0.,1.));
#1589=DIRECTION('',(1.,0.,0.));
#1590=DIRECTION('',(0.,0.,-1.));
#1591=DIRECTION('',(0.,1.,0.));
#1592=DIRECTION('',(0.,0.,1.));
#1593=DIRECTION('',(0.,-1.,0.));
#1594=DIRECTION('',(0.,0.,1.));
#1595=DIRECTION('',(0.,-1.,0.));
#1596=DIRECTION('',(0.,0.,1.));
#1597=DIRECTION('',(1.,0.,0.));
#1598=DIRECTION('',(0.,0.,-1.));
#1599=DIRECTION('',(0.,1.,0.));
#1600=DIRECTION('',(0.,0.,1.));
#1601=DIRECTION('',(0.,-1.,0.));
#1602=DIRECTION('',(0.,0.,1.));
#1603=DIRECTION('',(0.,-1.,0.));
#1604=DIRECTION('',(0.,0.,1.));
#1605=DIRECTION('',(1.,0.,0.));
#1606=DIRECTION('',(0.,0.,-1.));
#1607=DIRECTION('',(0.,1.,0.));
#1608=DIRECTION('',(0.,0.,1.));
#1609=DIRECTION('',(0.,-1.,0.));
#1610=DIRECTION('',(0.,0.,1.));
#1611=DIRECTION('',(0.,-1.,0.));
#1612=DIRECTION('',(0.,0.,1.));
#1613=DIRECTION('',(1.,0.,0.));
#1614=DIRECTION('',(0.,0.,-1.));
#1615=DIRECTION('',(0.,1.,0.));
#1616=DIRECTION('',(0.,0.,-1.));
#1617=DIRECTION('',(0.,1.,0.));
#1618=DIRECTION('',(0.,0.,-1.));
#1619=DIRECTION('',(0.,1.,0.));
#1620=DIRECTION('',(0.,0.,-1.));
#1621=DIRECTION('',(0.,1.,0.));
#1622=DIRECTION('',(0.,0.,-1.));
#1623=DIRECTION('',(0.,1.,0.));
#1624=CARTESIAN_POINT('',(0.,0.,0.));
#1625=CARTESIAN_POINT('',(-0.05,0.0028,0.1));
#1626=CARTESIAN_POINT('',(-0.05,0.0028,0.1));
#1627=CARTESIAN_POINT('',(-0.0485,0.0028,0.1));
#1628=CARTESIAN_POINT('',(-0.05,0.0038,0.1));
#1629=CARTESIAN_POINT('',(-0.0485,0.0038,0.1));
#1630=CARTESIAN_POINT('',(-0.005,0.0028,0.1));
#1631=CARTESIAN_POINT('',(0.05175,0.0028,0.0969689110867545));
#1632=CARTESIAN_POINT('',(0.05175,0.0028,0.0969689110867545));
#1633=CARTESIAN_POINT('',(0.05325,0.0028,0.0969689110867545));
#1634=CARTESIAN_POINT('',(0.05175,0.0038,0.0969689110867545));
#1635=CARTESIAN_POINT('',(0.05325,0.0038,0.0969689110867545));
#1636=CARTESIAN_POINT('',(-0.005,0.0028,0.1));
#1637=CARTESIAN_POINT('',(0.0465,0.0028,0.1));
#1638=CARTESIAN_POINT('',(0.0465,0.0028,0.1));
#1639=CARTESIAN_POINT('',(0.048,0.0028,0.1));
#1640=CARTESIAN_POINT('',(0.0465,0.0038,0.1));
#1641=CARTESIAN_POINT('',(0.048,0.0038,0.1));
#1642=CARTESIAN_POINT('',(-0.005,0.0028,0.1));
#1643=CARTESIAN_POINT('',(0.05175,0.0028,0.103031088913245));
#1644=CARTESIAN_POINT('',(0.05175,0.0028,0.103031088913245));
#1645=CARTESIAN_POINT('',(0.05325,0.0028,0.103031088913245));
#1646=CARTESIAN_POINT('',(0.05175,0.0038,0.103031088913245));
#1647=CARTESIAN_POINT('',(0.05325,0.0038,0.103031088913245));
#1648=CARTESIAN_POINT('',(-0.005,0.0028,0.1));
#1649=CARTESIAN_POINT('',(0.,0.0028,0.0965));
#1650=CARTESIAN_POINT('',(0.,0.0028,0.0965));
#1651=CARTESIAN_POINT('',(0.0015,0.0028,0.0965));
#1652=CARTESIAN_POINT('',(0.,0.0038,0.0965));
#1653=CARTESIAN_POINT('',(0.0015,0.0038,0.0965));
#1654=CARTESIAN_POINT('',(-0.005,0.0028,0.1));
#1655=CARTESIAN_POINT('',(0.,0.0028,0.1035));
#1656=CARTESIAN_POINT('',(0.,0.0028,0.1035));
#1657=CARTESIAN_POINT('',(0.0015,0.0028,0.1035));
#1658=CARTESIAN_POINT('',(0.,0.0038,0.1035));
#1659=CARTESIAN_POINT('',(0.0015,0.0038,0.1035));
#1660=CARTESIAN_POINT('',(-0.005,0.0028,0.1));
#1661=CARTESIAN_POINT('',(-0.05,0.0028,0.15));
#1662=CARTESIAN_POINT('',(-0.05,0.0028,0.15));
#1663=CARTESIAN_POINT('',(-0.0485,0.0028,0.15));
#1664=CARTESIAN_POINT('',(-0.05,0.0038,0.15));
#1665=CARTESIAN_POINT('',(-0.0485,0.0038,0.15));
#1666=CARTESIAN_POINT('',(-0.005,0.0028,0.15));
#1667=CARTESIAN_POINT('',(0.05175,0.0028,0.146968911086754));
#1668=CARTESIAN_POINT('',(0.05175,0.0028,0.146968911086754));
#1669=CARTESIAN_POINT('',(0.05325,0.0028,0.146968911086754));
#1670=CARTESIAN_POINT('',(0.05175,0.0038,0.146968911086754));
#1671=CARTESIAN_POINT('',(0.05325,0.0038,0.146968911086754));
#1672=CARTESIAN_POINT('',(-0.005,0.0028,0.15));
#1673=CARTESIAN_POINT('',(0.0465,0.0028,0.15));
#1674=CARTESIAN_POINT('',(0.0465,0.0028,0.15));
#1675=CARTESIAN_POINT('',(0.048,0.0028,0.15));
#1676=CARTESIAN_POINT('',(0.0465,0.0038,0.15));
#1677=CARTESIAN_POINT('',(0.048,0.0038,0.15));
#1678=CARTESIAN_POINT('',(-0.005,0.0028,0.15));
#1679=CARTESIAN_POINT('',(0.05175,0.0028,0.153031088913245));
#1680=CARTESIAN_POINT('',(0.05175,0.0028,0.153031088913245));
#1681=CARTESIAN_POINT('',(0.05325,0.0028,0.153031088913245));
#1682=CARTESIAN_POINT('',(0.05175,0.0038,0.153031088913245));
#1683=CARTESIAN_POINT('',(0.05325,0.0038,0.153031088913245));
#1684=CARTESIAN_POINT('',(-0.005,0.0028,0.15));
#1685=CARTESIAN_POINT('',(0.,0.0028,0.1465));
#1686=CARTESIAN_POINT('',(0.,0.0028,0.1465));
#1687=CARTESIAN_POINT('',(0.0015,0.0028,0.1465));
#1688=CARTESIAN_POINT('',(0.,0.0038,0.1465));
#1689=CARTESIAN_POINT('',(0.0015,0.0038,0.1465));
#1690=CARTESIAN_POINT('',(-0.005,0.0028,0.15));
#1691=CARTESIAN_POINT('',(0.,0.0028,0.1535));
#1692=CARTESIAN_POINT('',(0.,0.0028,0.1535));
#1693=CARTESIAN_POINT('',(0.0015,0.0028,0.1535));
#1694=CARTESIAN_POINT('',(0.,0.0038,0.1535));
#1695=CARTESIAN_POINT('',(0.0015,0.0038,0.1535));
#1696=CARTESIAN_POINT('',(-0.005,0.0028,0.15));
#1697=CARTESIAN_POINT('',(-0.08,0.005002,0.15));
#1698=CARTESIAN_POINT('',(-0.08,0.005002,0.212));
#1699=CARTESIAN_POINT('',(-0.08,-0.0046,0.212));
#1700=CARTESIAN_POINT('',(-0.08,0.0046,0.212));
#1701=CARTESIAN_POINT('',(-0.08,0.0046,0.08));
#1702=CARTESIAN_POINT('',(-0.08,0.0046,0.08));
#1703=CARTESIAN_POINT('',(-0.08,0.005002,0.08));
#1704=CARTESIAN_POINT('',(-0.08,-0.0046,0.08));
#1705=CARTESIAN_POINT('',(-0.08,-0.0046,0.212));
#1706=CARTESIAN_POINT('',(0.,0.005002,0.08));
#1707=CARTESIAN_POINT('',(0.06,-1.00157020385197E-17,0.08));
#1708=CARTESIAN_POINT('',(0.06,-0.00322500000000001,0.08));
#1709=CARTESIAN_POINT('',(0.03,-4.61358889999045E-18,0.08));
#1710=CARTESIAN_POINT('',(0.03,-0.003225,0.08));
#1711=CARTESIAN_POINT('',(-9.54097911787244E-18,7.88524238538825E-19,0.08));
#1712=CARTESIAN_POINT('',(-9.54097911787244E-18,-0.003225,0.08));
#1713=CARTESIAN_POINT('',(-0.03,6.1906373770681E-18,0.08));
#1714=CARTESIAN_POINT('',(-0.03,-0.00322499999999999,0.08));
#1715=CARTESIAN_POINT('',(-0.06,1.15927505155974E-17,0.08));
#1716=CARTESIAN_POINT('',(-0.06,-0.00322499999999999,0.08));
#1717=CARTESIAN_POINT('',(0.08,0.0046,0.08));
#1718=CARTESIAN_POINT('',(0.08,0.0046,0.08));
#1719=CARTESIAN_POINT('',(0.08,0.005002,0.08));
#1720=CARTESIAN_POINT('',(0.08,-0.0046,0.08));
#1721=CARTESIAN_POINT('',(-0.08,-0.0046,0.08));
#1722=CARTESIAN_POINT('',(0.08,0.005002,0.15));
#1723=CARTESIAN_POINT('',(0.08,0.0046,0.15));
#1724=CARTESIAN_POINT('',(0.08,0.0046,0.212));
#1725=CARTESIAN_POINT('',(0.08,-0.005,0.212));
#1726=CARTESIAN_POINT('',(0.08,-0.0046,0.212));
#1727=CARTESIAN_POINT('',(0.08,-0.0046,0.15));
#1728=CARTESIAN_POINT('',(-2.77555756156289E-17,0.005002,0.22));
#1729=CARTESIAN_POINT('',(0.072,0.005,0.22));
#1730=CARTESIAN_POINT('',(0.072,-0.0046,0.22));
#1731=CARTESIAN_POINT('',(0.072,0.0046,0.22));
#1732=CARTESIAN_POINT('',(-0.072,0.0046,0.22));
#1733=CARTESIAN_POINT('',(-0.072,0.0046,0.22));
#1734=CARTESIAN_POINT('',(-0.072,0.005002,0.22));
#1735=CARTESIAN_POINT('',(-0.072,-0.0046,0.22));
#1736=CARTESIAN_POINT('',(0.072,-0.0046,0.22));
#1737=CARTESIAN_POINT('',(-1.38777878078145E-17,-0.005,0.07));
#1738=CARTESIAN_POINT('',(0.08,-0.005,0.0804));
#1739=CARTESIAN_POINT('',(-0.0796,-0.005,0.0804));
#1740=CARTESIAN_POINT('',(0.0796,-0.005,0.0804));
#1741=CARTESIAN_POINT('',(0.0796,-0.005,0.07));
#1742=CARTESIAN_POINT('',(0.0796,-0.005,0.212));
#1743=CARTESIAN_POINT('',(0.072,-0.005,0.212));
#1744=CARTESIAN_POINT('',(0.072,-0.005,0.2196));
#1745=CARTESIAN_POINT('',(-0.072,-0.005,0.2196));
#1746=CARTESIAN_POINT('',(-0.072,-0.005,0.2196));
#1747=CARTESIAN_POINT('',(-0.072,-0.005,0.212));
#1748=CARTESIAN_POINT('',(-0.0796,-0.005,0.212));
#1749=CARTESIAN_POINT('',(-0.0796,-0.005,0.08));
#1750=CARTESIAN_POINT('',(0.,0.005,0.));
#1751=CARTESIAN_POINT('',(0.072,0.005,0.212));
#1752=CARTESIAN_POINT('',(0.072,0.005,0.2196));
#1753=CARTESIAN_POINT('',(0.0796,0.005,0.212));
#1754=CARTESIAN_POINT('',(0.0796,0.005,0.));
#1755=CARTESIAN_POINT('',(0.0796,0.005,0.0804));
#1756=CARTESIAN_POINT('',(-0.08,0.005,0.0804));
#1757=CARTESIAN_POINT('',(-0.0796,0.005,0.0804));
#1758=CARTESIAN_POINT('',(-0.0796,0.005,0.212));
#1759=CARTESIAN_POINT('',(-0.0796,0.005,0.212));
#1760=CARTESIAN_POINT('',(-0.072,0.005,0.212));
#1761=CARTESIAN_POINT('',(-0.072,0.005,0.2196));
#1762=CARTESIAN_POINT('',(0.072,0.005,0.2196));
#1763=CARTESIAN_POINT('',(-0.05,0.005,0.15));
#1764=CARTESIAN_POINT('',(-0.0365,0.005,0.15));
#1765=CARTESIAN_POINT('',(-0.05,0.005,0.2));
#1766=CARTESIAN_POINT('',(-0.0365,0.005,0.2));
#1767=CARTESIAN_POINT('',(6.93889390390723E-18,0.005,0.1));
#1768=CARTESIAN_POINT('',(0.0135,0.005,0.1));
#1769=CARTESIAN_POINT('',(1.38777878078145E-17,0.005,0.15));
#1770=CARTESIAN_POINT('',(0.0135,0.005,0.15));
#1771=CARTESIAN_POINT('',(0.05,0.005,0.2));
#1772=CARTESIAN_POINT('',(0.0635,0.005,0.2));
#1773=CARTESIAN_POINT('',(0.05,0.005,0.15));
#1774=CARTESIAN_POINT('',(0.0635,0.005,0.15));
#1775=CARTESIAN_POINT('',(0.05,0.005,0.1));
#1776=CARTESIAN_POINT('',(0.0635,0.005,0.1));
#1777=CARTESIAN_POINT('',(2.08166817117217E-17,0.005,0.2));
#1778=CARTESIAN_POINT('',(0.0135,0.005,0.2));
#1779=CARTESIAN_POINT('',(-0.05,0.005,0.1));
#1780=CARTESIAN_POINT('',(-0.0365,0.005,0.1));
#1781=CARTESIAN_POINT('',(-0.072,0.005002,0.212));
#1782=CARTESIAN_POINT('',(-0.072,0.0046,0.212));
#1783=CARTESIAN_POINT('',(-0.072,-0.0046,0.212));
#1784=CARTESIAN_POINT('',(0.072,0.005002,0.212));
#1785=CARTESIAN_POINT('',(0.072,0.0046,0.212));
#1786=CARTESIAN_POINT('',(0.072,-0.0046,0.212));
#1787=CARTESIAN_POINT('',(-0.05,0.0038,0.1));
#1788=CARTESIAN_POINT('',(-0.05,0.0038,0.1));
#1789=CARTESIAN_POINT('',(-0.0365,0.0038,0.1));
#1790=CARTESIAN_POINT('',(-1.38777878078145E-17,0.0038,0.15));
#1791=CARTESIAN_POINT('',(2.08166817117217E-17,0.0038,0.2));
#1792=CARTESIAN_POINT('',(2.08166817117217E-17,0.0038,0.2));
#1793=CARTESIAN_POINT('',(0.0135,0.0038,0.2));
#1794=CARTESIAN_POINT('',(-1.38777878078145E-17,0.0038,0.15));
#1795=CARTESIAN_POINT('',(0.,0.0038,0.1965));
#1796=CARTESIAN_POINT('',(0.0015,0.0038,0.1965));
#1797=CARTESIAN_POINT('',(0.,0.0038,0.2035));
#1798=CARTESIAN_POINT('',(0.0015,0.0038,0.2035));
#1799=CARTESIAN_POINT('',(0.05,0.0038,0.1));
#1800=CARTESIAN_POINT('',(0.05,0.0038,0.1));
#1801=CARTESIAN_POINT('',(0.0635,0.0038,0.1));
#1802=CARTESIAN_POINT('',(-1.38777878078145E-17,0.0038,0.15));
#1803=CARTESIAN_POINT('',(0.05,0.0038,0.15));
#1804=CARTESIAN_POINT('',(0.05,0.0038,0.15));
#1805=CARTESIAN_POINT('',(0.0635,0.0038,0.15));
#1806=CARTESIAN_POINT('',(-1.38777878078145E-17,0.0038,0.15));
#1807=CARTESIAN_POINT('',(0.05,0.0038,0.2));
#1808=CARTESIAN_POINT('',(0.05,0.0038,0.2));
#1809=CARTESIAN_POINT('',(0.0635,0.0038,0.2));
#1810=CARTESIAN_POINT('',(-1.38777878078145E-17,0.0038,0.15));
#1811=CARTESIAN_POINT('',(0.05175,0.0038,0.203031088913245));
#1812=CARTESIAN_POINT('',(0.05325,0.0038,0.203031088913245));
#1813=CARTESIAN_POINT('',(0.0465,0.0038,0.2));
#1814=CARTESIAN_POINT('',(0.048,0.0038,0.2));
#1815=CARTESIAN_POINT('',(0.05175,0.0038,0.196968911086754));
#1816=CARTESIAN_POINT('',(0.05325,0.0038,0.196968911086754));
#1817=CARTESIAN_POINT('',(1.38777878078145E-17,0.0038,0.15));
#1818=CARTESIAN_POINT('',(1.38777878078145E-17,0.0038,0.15));
#1819=CARTESIAN_POINT('',(0.0135,0.0038,0.15));
#1820=CARTESIAN_POINT('',(-1.38777878078145E-17,0.0038,0.15));
#1821=CARTESIAN_POINT('',(6.93889390390723E-18,0.0038,0.1));
#1822=CARTESIAN_POINT('',(6.93889390390723E-18,0.0038,0.1));
#1823=CARTESIAN_POINT('',(0.0135,0.0038,0.1));
#1824=CARTESIAN_POINT('',(-1.38777878078145E-17,0.0038,0.15));
#1825=CARTESIAN_POINT('',(-0.05,0.0038,0.2));
#1826=CARTESIAN_POINT('',(-0.05,0.0038,0.2));
#1827=CARTESIAN_POINT('',(-0.0365,0.0038,0.2));
#1828=CARTESIAN_POINT('',(-1.38777878078145E-17,0.0038,0.15));
#1829=CARTESIAN_POINT('',(-0.05,0.0038,0.2));
#1830=CARTESIAN_POINT('',(-0.0485,0.0038,0.2));
#1831=CARTESIAN_POINT('',(-0.05,0.0038,0.15));
#1832=CARTESIAN_POINT('',(-0.05,0.0038,0.15));
#1833=CARTESIAN_POINT('',(-0.0365,0.0038,0.15));
#1834=CARTESIAN_POINT('',(-1.38777878078145E-17,0.0038,0.15));
#1835=CARTESIAN_POINT('',(-0.072,-0.005,0.212));
#1836=CARTESIAN_POINT('',(-0.072,-0.0046,0.22));
#1837=CARTESIAN_POINT('',(-0.0796,-0.005,0.212));
#1838=CARTESIAN_POINT('',(-0.08,-0.0046,0.15));
#1839=CARTESIAN_POINT('',(-0.0533333333333335,-0.0312666666666667,0.106666666666666));
#1840=CARTESIAN_POINT('',(-2.77555756156289E-17,-0.0046,0.22));
#1841=CARTESIAN_POINT('',(0.072,-0.0046,0.22));
#1842=CARTESIAN_POINT('',(0.,-0.0046,0.08));
#1843=CARTESIAN_POINT('',(0.0533333333333335,-0.0312666666666667,0.106666666666666));
#1844=CARTESIAN_POINT('',(0.072,-0.005,0.212));
#1845=CARTESIAN_POINT('',(0.08,-0.0046,0.212));
#1846=CARTESIAN_POINT('',(0.0796,-0.005,0.07));
#1847=CARTESIAN_POINT('',(-0.072,0.005,0.212));
#1848=CARTESIAN_POINT('',(-0.072,0.005,0.2196));
#1849=CARTESIAN_POINT('',(-0.08,0.0046,0.212));
#1850=CARTESIAN_POINT('',(-0.0796,0.005,0.));
#1851=CARTESIAN_POINT('',(-0.0530666666666668,0.0315333333333334,0.106933333333333));
#1852=CARTESIAN_POINT('',(0.,0.005,0.2196));
#1853=CARTESIAN_POINT('',(0.072,0.005,0.2196));
#1854=CARTESIAN_POINT('',(0.,0.005,0.0804));
#1855=CARTESIAN_POINT('',(0.0530666666666668,0.0315333333333334,0.106933333333333));
#1856=CARTESIAN_POINT('',(0.072,0.005,0.212));
#1857=CARTESIAN_POINT('',(0.0796,0.005,0.212));
#1858=CARTESIAN_POINT('',(0.08,0.0046,0.15));
#1859=CARTESIAN_POINT('',(-0.05,0.0028,0.2));
#1860=CARTESIAN_POINT('',(-0.05,0.0028,0.2));
#1861=CARTESIAN_POINT('',(-0.0485,0.0028,0.2));
#1862=CARTESIAN_POINT('',(-0.005,0.0028,0.2));
#1863=CARTESIAN_POINT('',(0.05175,0.0028,0.196968911086754));
#1864=CARTESIAN_POINT('',(0.05175,0.0028,0.196968911086754));
#1865=CARTESIAN_POINT('',(0.05325,0.0028,0.196968911086754));
#1866=CARTESIAN_POINT('',(-0.005,0.0028,0.2));
#1867=CARTESIAN_POINT('',(0.0465,0.0028,0.2));
#1868=CARTESIAN_POINT('',(0.0465,0.0028,0.2));
#1869=CARTESIAN_POINT('',(0.048,0.0028,0.2));
#1870=CARTESIAN_POINT('',(-0.005,0.0028,0.2));
#1871=CARTESIAN_POINT('',(0.05175,0.0028,0.203031088913245));
#1872=CARTESIAN_POINT('',(0.05175,0.0028,0.203031088913245));
#1873=CARTESIAN_POINT('',(0.05325,0.0028,0.203031088913245));
#1874=CARTESIAN_POINT('',(-0.005,0.0028,0.2));
#1875=CARTESIAN_POINT('',(0.,0.0028,0.2035));
#1876=CARTESIAN_POINT('',(0.,0.0028,0.2035));
#1877=CARTESIAN_POINT('',(0.0015,0.0028,0.2035));
#1878=CARTESIAN_POINT('',(-0.005,0.0028,0.2));
#1879=CARTESIAN_POINT('',(0.,0.0028,0.1965));
#1880=CARTESIAN_POINT('',(0.,0.0028,0.1965));
#1881=CARTESIAN_POINT('',(0.0015,0.0028,0.1965));
#1882=CARTESIAN_POINT('',(-0.005,0.0028,0.2));
#1883=CARTESIAN_POINT('',(0.06,-1.00157020385197E-17,0.0822));
#1884=CARTESIAN_POINT('',(0.06,-1.00157020385197E-17,0.08015));
#1885=CARTESIAN_POINT('',(0.06,-0.00307500000000001,0.08015));
#1886=CARTESIAN_POINT('',(0.06,-1.00157020385197E-17,0.0822));
#1887=CARTESIAN_POINT('',(0.06,-0.00307500000000001,0.0822));
#1888=CARTESIAN_POINT('',(0.,-8.67361737988404E-19,0.0822));
#1889=CARTESIAN_POINT('',(0.03,-4.61358889999045E-18,0.0822));
#1890=CARTESIAN_POINT('',(0.03,-4.61358889999045E-18,0.08015));
#1891=CARTESIAN_POINT('',(0.03,-0.003075,0.08015));
#1892=CARTESIAN_POINT('',(0.03,-4.61358889999045E-18,0.0822));
#1893=CARTESIAN_POINT('',(0.03,-0.003075,0.0822));
#1894=CARTESIAN_POINT('',(0.,-8.67361737988404E-19,0.0822));
#1895=CARTESIAN_POINT('',(-9.54097911787244E-18,7.88524238538825E-19,0.0822));
#1896=CARTESIAN_POINT('',(-9.54097911787244E-18,7.88524238538825E-19,0.08015));
#1897=CARTESIAN_POINT('',(-9.54097911787244E-18,-0.003075,0.08015));
#1898=CARTESIAN_POINT('',(-9.54097911787244E-18,7.88524238538825E-19,0.0822));
#1899=CARTESIAN_POINT('',(-9.54097911787244E-18,-0.003075,0.0822));
#1900=CARTESIAN_POINT('',(0.,-8.67361737988404E-19,0.0822));
#1901=CARTESIAN_POINT('',(-0.03,6.1906373770681E-18,0.0822));
#1902=CARTESIAN_POINT('',(-0.03,6.1906373770681E-18,0.08015));
#1903=CARTESIAN_POINT('',(-0.03,-0.00307499999999999,0.08015));
#1904=CARTESIAN_POINT('',(-0.03,6.1906373770681E-18,0.0822));
#1905=CARTESIAN_POINT('',(-0.03,-0.00307499999999999,0.0822));
#1906=CARTESIAN_POINT('',(0.,-8.67361737988404E-19,0.0822));
#1907=CARTESIAN_POINT('',(-0.06,1.15927505155974E-17,0.0822));
#1908=CARTESIAN_POINT('',(-0.06,1.15927505155974E-17,0.08015));
#1909=CARTESIAN_POINT('',(-0.06,-0.00307499999999999,0.08015));
#1910=CARTESIAN_POINT('',(-0.06,1.15927505155974E-17,0.0822));
#1911=CARTESIAN_POINT('',(-0.06,-0.00307499999999999,0.0822));
#1912=CARTESIAN_POINT('',(0.,-8.67361737988404E-19,0.0822));
#1913=CARTESIAN_POINT('',(0.06,-1.00157020385197E-17,0.08));
#1914=CARTESIAN_POINT('',(0.03,-4.61358889999045E-18,0.08));
#1915=CARTESIAN_POINT('',(-9.54097911787244E-18,7.88524238538825E-19,0.08));
#1916=CARTESIAN_POINT('',(-0.03,6.1906373770681E-18,0.08));
#1917=CARTESIAN_POINT('',(-0.06,1.15927505155974E-17,0.08));
#1918=MECHANICAL_DESIGN_GEOMETRIC_PRESENTATION_REPRESENTATION('',(#1078),
#1919);
#1919=(
GEOMETRIC_REPRESENTATION_CONTEXT(3)
GLOBAL_UNCERTAINTY_ASSIGNED_CONTEXT((#1920))
GLOBAL_UNIT_ASSIGNED_CONTEXT((#1923,#1922,#1921))
REPRESENTATION_CONTEXT('Cake TopTray','TOP_LEVEL_ASSEMBLY_PART')
);
#1920=UNCERTAINTY_MEASURE_WITH_UNIT(LENGTH_MEASURE(1.E-8),#1923,
'DISTANCE_ACCURACY_VALUE','Maximum Tolerance applied to model');
#1921=(
NAMED_UNIT(*)
SI_UNIT($,.STERADIAN.)
SOLID_ANGLE_UNIT()
);
#1922=(
NAMED_UNIT(*)
PLANE_ANGLE_UNIT()
SI_UNIT($,.RADIAN.)
);
#1923=(
LENGTH_UNIT()
NAMED_UNIT(*)
SI_UNIT($,.METRE.)
);
#1924=PRODUCT_DEFINITION_SHAPE('','',#1925);
#1925=PRODUCT_DEFINITION('','',#1927,#1926);
#1926=PRODUCT_DEFINITION_CONTEXT('',#1933,'design');
#1927=PRODUCT_DEFINITION_FORMATION_WITH_SPECIFIED_SOURCE('','',#1929,
 .NOT_KNOWN.);
#1928=PRODUCT_RELATED_PRODUCT_CATEGORY('','',(#1929));
#1929=PRODUCT('Cake TopTray','Cake TopTray','Cake TopTray',(#1931));
#1930=PRODUCT_CATEGORY('','');
#1931=PRODUCT_CONTEXT('',#1933,'mechanical');
#1932=APPLICATION_PROTOCOL_DEFINITION('international standard',
'ap242_managed_model_based_3d_engineering',2020,#1933);
#1933=APPLICATION_CONTEXT('managed model based 3d engineering');
ENDSEC;
END-ISO-10303-21;
